<?xml version="1.0" standalone="no"?>
<!DOCTYPE svg PUBLIC "-//W3C//DTD SVG 1.1//EN" "http://www.w3.org/Graphics/SVG/1.1/DTD/svg11.dtd" >
<svg xmlns="http://www.w3.org/2000/svg" xmlns:xlink="http://www.w3.org/1999/xlink" version="1.1">
<metadata>
Created by FontForge 20170924 at Mon Feb 21 11:52:58 2022
 By www
averox (c)Almarkhatype 2020. All Rights Reserved
</metadata>
<defs>
<font id="averox" horiz-adv-x="100" >
  <font-face 
    font-family="averox"
    font-weight="400"
    font-stretch="normal"
    units-per-em="1000"
    panose-1="2 0 5 0 0 0 0 0 0 0"
    ascent="800"
    descent="-200"
    x-height="700"
    cap-height="700"
    bbox="26 -202 1161 899"
    underline-thickness="50"
    underline-position="-100"
    unicode-range="U+0020-2122"
  />
    <missing-glyph />
    <glyph glyph-name="space" unicode=" " horiz-adv-x="276" 
 />
    <glyph glyph-name="space" unicode="&#xa0;" horiz-adv-x="276" 
 />
    <glyph glyph-name="exclam" unicode="!" horiz-adv-x="1213" 
d="M375 551q-22 0 -28 26q-3 14 -3 34q0 55 32 55q20 0 27 -21q4 -14 4 -40q0 -54 -32 -54zM939 551q-22 0 -28 24q-3 13 -3 34q0 46 18 54q5 3 13 3q22 0 28 -23q4 -13 4 -35q0 -45 -18 -54q-6 -3 -14 -3zM83 553h-10v111h33q30 0 30 -31q0 -21 -13 -27q-6 -3 -20 -3h-20
v-50zM199 553h-51v111h48l2 -6h-39v-43h31v-3v-3.5t-31 -0.5v-49h42q-1 -6 -2 -6zM281 553h-11q-1 0 -4 14q-11 38 -17 38h-24v-52h-10v111h32q29 0 29 -29q0 -25 -16 -28q9 -11 21 -54zM306 553h-8q-1 0 -3 12q6 -6 11 -6q13 0 13 18q0 13 -13 35q-9 17 -9 28q0 17 13 23
l7 1h10q1 0 3 -10v-1q-7 5 -11 5q-11 0 -11 -13t11 -32.5t11 -34.5q0 -17 -14 -23q-5 -2 -10 -2zM479 553h-8q-5 6 -44 94v-94h-6v56q0 55 1 55h9l41 -90h1v90h6v-111zM560 553h-11l-10 33h-33l-10 -33h-6l32 111h5q1 -1 4 -14zM625 553h-51v111h10v-105h42zM710 551
q-18 0 -24.5 13t-6.5 44v56h11v-62q0 -32 5 -38.5t16 -6.5q13 0 16.5 9t3.5 34v64h7v-49q0 -40 -4 -48q-6 -16 -24 -16zM761 553h-8l-3 12q6 -6 11 -6q11 0 13 15v4q0 12 -12 33q-10 18 -10 31q0 16 14 21q3 1 7 1h10l3 -11q-8 5 -12 5q-11 0 -11 -13t11 -33t11 -34
q0 -17 -14 -23q-4 -2 -10 -2zM854 553h-51q-1 0 -1 56q0 55 1 55h47q1 0 2 -6h-39v-43h31v0q1 -1 1 -3q0 -3 -0.5 -3.5t-31.5 -0.5v-49h42zM1042 553h-8l-43 94v-94h-6v111h10l41 -90v90h6v-111zM1107 553h-50q-1 0 -1 56l1 55h10v-105h42q0 -6 -2 -6zM1134 553h-11v56
l-27 55h11q1 0 24 -47l23 47h7l-27 -54v-57zM376 557q12 0 16 9.5t4 42.5q0 36 -5 43.5t-15 7.5q-14 0 -17.5 -11.5t-3.5 -39.5q0 -34 4.5 -43t16.5 -9zM940 557q12 0 16 11t4 41q0 39 -6 45t-15 6q-12 0 -16 -10t-4 -41q0 -38 5 -45t16 -7zM105 609q12 0 15.5 6t3.5 18
q0 19 -8 23q-3 2 -15 2h-18v-49h22zM242 612q15 0 18.5 4.5t3.5 18.5q0 17 -5 20t-17 3h-17v-46h17zM537 592l-15 51l-14 -51h29zM638 134q-2 0 -9 5q-9 4 -11.5 10.5t-2.5 25.5q0 84 63 263q0 1 -23 1q-115 0 -137 -47q-6 9 -6 23q0 31 33 40t100 9q29 0 33 2q11 0 17 8
l3 1q6 0 9 -13l6 -12q1 0 2 -2l-7 -15q-42 -92 -57 -175q-2 -11 -2 -17q43 128 75 128q13 0 19 -15q1 -5 1 -13q0 -24 -15 -60q-6 -11 -16 -23.5t-16 -16.5t-14 -7q-3 -1 -3 -2q0 -2 9 -11q5 -3 10 -3q10 0 26 17q25 30 26 42q4 20 12 51q18 68 46 138q4 12 7 15t5 4h3
q3 -2 5 -7q3 -11 8 -18l1 -2q0 -2 -7 -16q-43 -91 -59 -181l-2 -21q1 0 4 9q41 100 74 100l12 -1q10 0 11 -6q0 -4 -7 -18q-27 -53 -27 -100q0 -38 30 -59q15 -9 32 -9q-7 -15 -34 -15q-38 0 -53 38q-4 11 -4 25q0 37 16 94l3 11q-53 -106 -65 -149q-4 -10 -7 -10l-7 5
q-7 3 -8.5 6t-1.5 15q0 18 2 44q-29 -25 -46 -25q-10 0 -17 10q-10 12 -14 19q-1 0 -3 -7q-6 -19 -14 -65q-5 -18 -8 -18zM984 324q-10 4 -10 16q0 10 12 37l9 22q-16 -23 -20 -23q-3 0 -7 10v2q-10 -12 -14 -12q-3 0 -9 11l-1 8q0 7 7 25l10 29q0 1 -1 1q-17 -1 -23 -15v-1
q-7 3 -7 10q0 10 22 14q13 2 13.5 2.5t1.5 5.5q2 8 3.5 11t5 3.5t11.5 3.5q1 0 2 -2l-8 -20q0 -1 4 -1q29 0 54 -7q10 -4 10 -8q0 -2 -1 -2q-3 2 -14 5q-17 4 -37 4q-4 0 -8 -0.5t-9.5 -0.5t-22.5 -49l-3 -8q1 -3 3 -3t7 5q10 10 17 19q3 5 13 9q-2 -6 -11 -21l-4 -11
q3 0 6 6q24 31 27 31q5 -1 5 -3q-14 -30 -26 -62q-8 -26 -8 -34zM378 -12h-6q-63 0 -97.5 40t-34.5 100q0 49 18 109q11 32 23 56l9 18q-2 1 -40 1q-76 0 -100 -28l-7 -11q-4 11 -4 21q0 28 28 39q16 6 55 6l80 -3q3 0 7 7q13 20 31 42q54 61 89 61q17 0 17 -16
q-9 -72 -71 -103q-20 -9 -22 -9q-8 -3 -22.5 -5t-16 -4.5t-12.5 -31.5q-35 -91 -35 -149q0 -54 41 -87q29 -22 63 -22q53 0 155 32l109 34q114 38 182 38q84 0 130 -46q16 -16 16 -25l-1 -1q-44 39 -135 39q-93 0 -230 -47l-104 -34q-72 -21 -115 -21zM1058 382q-8 0 -13 7
v4q0 15 8 29l4 2q6 0 7 -8q0 -14 -12 -23v-2q1 -3 3 -3q5 2 9 9.5t4 16.5q0 6 -2 17v1q7 0 9 -16l1 -6q0 -14 -11 -25q-4 -3 -7 -3zM993 326q-5 3 -5 8q1 12 25 72q9 21 12 21q6 -1 6 -4l-5 -9q-6 -12 -11 -26l21 37q5 0 6 -18q0 -24 -11 -25q-3 0 -8 4q-1 0 -5 -8
q-17 -31 -23 -49zM334 337q24 0 50 19q14 12 21 21q16 24 17 42l1 5q-22 -13 -48 -34q-32 -30 -46 -52v-1h5zM1054 402q5 5 5 12h-1q-4 -7 -4 -12zM1024 389q11 0 11 15q0 5 -1 5zM605 104q-19 0 -32 15q-9 12 -9 25q0 20 21 112l16 67q1 4 5 9q-16 -6 -42 -13q-1 0 -1 -2
v-17q0 -38 -11 -90q-15 -53 -30 -53q-4 0 -9.5 6.5t-10.5 9t-8.5 12.5t-3.5 46q-19 -76 -33 -76q-4 0 -8 6q-1 1 -7 3.5t-8.5 11.5t-2.5 18q0 26 10 59q7 20 17 35q15 23 26 23q10 0 15 -19q5 9 10.5 14.5t10.5 5.5q7 0 11 -3q0 -2 -5.5 -10.5t-9.5 -21.5q-9 -29 -9 -56
q0 -22 6 -33q2 -4 3 -4q5 3 11 23q15 47 15 92q0 25 -7 27q-20 8 -20 26q0 13 14 20q4 2 8 2q16 0 22 -31q1 -5 3 -5l30 8q13 5 14.5 5.5t7 6t9.5 5.5q9 0 10 -12q0 -3 -5 -20q-33 -112 -33 -166q0 -30 13 -60zM976 124q-25 0 -45.5 22.5t-20.5 71.5q0 20 7 41v4
q-29 -78 -39 -78q-4 0 -7 6t-9 8q-3 0 -6 4q-4 7 -4 18q0 18 9 52q8 27 18 44q19 36 36 36q11 0 16 -22q15 35 26 35q6 0 6 -11q0 -13 -14 -61q-17 -59 -17 -98q0 -37 16 -55q9 -7 19 -7q13 0 29 12q35 30 35 107q0 28 -4 53q-3 9 -6 9q-4 0 -14 -22q-17 -39 -17 -71
q0 -18 7 -29q1 -2 2 -2q-6 -3 -10 -3q-13 0 -18 28q-2 8 -5 12q-3 8 -3 17q0 18 16 46q5 7 15.5 19t15.5 14q10 6 20 6q37 0 37 -52q0 -29 -11 -67q-7 -21 -16 -38q-29 -49 -64 -49zM676 255q4 1 12 9t13 18q12 20 22 62q-12 -12 -32 -51q-16 -32 -16 -38h1zM876 212
q8 14 48 106q0 9 -6 17l-1 1q-2 0 -9 -12q-22 -37 -31 -82l-2 -20zM358 70q-5 0 -11 5q-14 14 -14 55q0 31 10 77v1q-15 -39 -22 -62l-2 -8h-1q-6 0 -14 5q-12 8 -12 28q0 26 21 87q14 37 19 37q18 -2 18 -6q0 -2 -8 -19q-27 -66 -27 -89q32 77 55 115q7 11 11 11t12 -5
l2 -2l-9 -21q-10 -24 -19 -59q-11 -42 -11 -68l1 -1q29 98 52 149q12 22 18 22l14 -3q4 -1 4 -4l-7 -24q-14 -41 -26 -100q-5 -28 -5 -51q0 -21 8 -21q3 0 25 7q39 13 59 13q26 0 38 -15q-7 -1 -32.5 -5.5t-41.5 -10t-33 -14.5q-5 -2 -10 -2q-10 0 -18 13l-8 8
q-11 10 -11 32q0 16 12 66l3 16h-1q-15 -40 -28 -90q-10 -41 -10 -61v-4q0 -2 -1 -2zM235 43q-19 0 -31 17q-9 14 -9 37t6 75v1q-1 0 -7 -13q-14 -30 -25 -48q-5 -8 -10 -8q-4 0 -7.5 6.5t-10 8.5t-6.5 19t12 52q9 24 20 42q21 36 39 36q10 0 14 -17q13 28 16 32q6 8 12 12
t8 4q4 0 5 -7q0 -13 -18 -56q-20 -54 -20 -96q0 -56 19 -93l1 -2q0 -2 -8 -2zM456 177q2 0 7 17q26 74 26 80t-5 14h-2q-11 -3 -24 -55q-5 -19 -7 -40v-2q1 -14 5 -14zM158 131q4 4 8 12l45 86q2 3 2 7q0 5 -4 14l-1 1q-2 0 -9 -9q-17 -24 -30 -58q-10 -28 -11 -48v-5z
M418 -172h-9v86l9 4v-90zM657 -172h-10l-25 35l-3 -3v-32h-8v86q0 1 8 4v-51l25 22h7l-22 -20zM707 -172h-9v34q0 17 -4 20t-8 3q-9 0 -12 -11v-46h-9v86q0 1 9 4v-33q5 4 12 4q15 0 19 -13q2 -6 2 -30v-18zM799 -172q-19 0 -22 5.5t-3 21.5v30h-9v4h9v12q0 1 8 4v-16h11v-4
h-11v-31q0 -18 3 -19.5t6 -1.5q4 0 10 4zM862 -202h-1q0 84 -1 87l6 3l3 -3q5 5 14 5q13 0 18 -11q2 -6 2 -20q0 -25 -9 -29q-5 -3 -11 -3q-8 0 -13 4v-29q0 -1 -3 -2t-5 -2zM501 -172h-9v32q0 18 -3 21.5t-8 3.5q-10 0 -12 -14v-43h-9v26q0 24 -2.5 27.5t-8.5 3.5
q-9 0 -11 -10q-1 -3 -1 -26v-21h-9v58q0 1 3.5 2t5.5 2v-4q5 3 12 3q12 0 17 -7v-1q0 3 5.5 5.5t8.5 2.5q15 0 19 -10q2 -7 2 -34v-17zM572 -172h-9v58q1 1 9 4v-8q2 4 10 7h16q1 0 4 -10q-8 6 -15 6q-10 0 -14 -16q-1 -9 -1 -31v-10zM829 -201h-13l-3 10q8 -5 13 -5
q12 0 14 14l1 14q-5 -4 -13 -4q-14 0 -18 11q-3 6 -3 17v30l9 4v-31q0 -20 3.5 -23t7.5 -3q11 0 14 11v42q0 1 8 4v-61q0 -30 -20 -30zM1156 -172h-8v26q0 24 -3 27.5t-9 3.5q-8 0 -11 -10q-1 -4 -1 -25v-22h-8q-1 0 -1 34q0 17 -3 20t-8 3q-8 0 -11 -9q-1 -4 -1 -27v-21h-8
q-1 0 -1 58q0 1 9 4v-4q5 3 13 3q11 0 16 -6v-2q0 3 5 5.5t9 2.5q16 0 20 -12q1 -6 1 -34v-15zM949 -172h-15q-21 0 -21 25v11q0 26 22 26q20 0 20 -27q0 -2 -10 -4l-23 -5q0 -17 7 -20q3 -1 8 -1q7 0 15 5zM1052 -173q-22 0 -22 31q0 32 22 32q21 0 21 -31t-21 -32z
M133 -172h-4l-13 36l-12 -36h-4q-1 0 -2 5l-20 56h9l17 -46l10 28l-7 18h9q1 0 17 -46l17 46h5zM219 -172h-4q-1 1 -6.5 17.5t-6.5 17.5l-12 -35h-4q-1 1 -22 61h9l3 -7q12 -33 13 -39q1 0 9 24l2 4l-7 18h9l17 -46l17 46h5zM305 -172h-4l-13 36q-12 -36 -13 -36h-4l-21 61
h9l16 -46l10 28l-6 18h9q1 0 17 -46l17 46h5zM372 -173q-12 0 -16 13l-1 9q0 24 32 24q0 12 -13 12q-9 0 -14 -5l-2 -1q3 10 4 10h14q17 0 20 -16v-36q0 -5 3 -9h-8q-2 1 -3 5q-6 -6 -16 -6zM528 -173q-12 0 -16 12l-1 9q0 16 10 20.5t22 4.5q0 12 -13 12q-9 0 -15 -5l-1 -1
q2 10 3 10h15q20 0 20 -26q0 -32 2 -35h-7q-2 0 -3 6q-7 -7 -16 -7zM734 -173q-12 0 -16 12q-1 3 -1 9q0 16 9.5 20.5t22.5 4.5q-1 6 -3.5 9t-9.5 3q-9 0 -16 -6q2 10 3 10h15q14 0 18 -13q2 -5 2 -19q0 -25 2 -29h-8q-2 3 -2 6q-7 -7 -16 -7zM1019 -172h-14q-22 0 -22 31
q0 30 21 30h15q1 0 3 -10q-7 6 -14 6q-11 0 -13 -4.5t-2 -22.5q0 -20 3 -22.5t11 -2.5t15 5q-2 -10 -3 -10zM883 -168q7 0 9.5 6.5t2.5 23.5t-4 20t-9 3q-12 0 -12 -14v-25q0 -14 13 -14zM922 -140l24 4q0 21 -12 21t-12 -23v-2zM1052 -168q7 0 9.5 7t2.5 20q0 20 -4.5 23
t-7.5 3q-13 0 -13 -26q0 -21 4.5 -24t8.5 -3zM375 -166q8 0 13 7v27q-15 0 -19.5 -5.5t-4.5 -13.5q0 -15 10 -15h1zM530 -166q9 0 13 7v27q-15 0 -19 -5.5t-4 -13.5q0 -14 10 -15zM736 -166q9 0 13 7v27q-17 0 -22 -9q-2 -4 -2 -11q0 -14 11 -14zM343 -172h-1q-4 0 -6 4
q0 5 5 7q4 0 6 -5q0 -5 -4 -6zM971 -172h-2q-5 0 -5 5q0 4 5 6q4 0 5 -2.5t1 -3.5q0 -3 -4 -5z" />
    <glyph glyph-name="quotedbl" unicode="&#x22;" horiz-adv-x="242" 
d="M85 613h-40l22 160h56zM167 613h-40l22 160h56z" />
    <glyph glyph-name="numbersign" unicode="#" horiz-adv-x="1213" 
d="M375 551q-22 0 -28 26q-3 14 -3 34q0 55 32 55q20 0 27 -21q4 -14 4 -40q0 -54 -32 -54zM939 551q-22 0 -28 24q-3 13 -3 34q0 46 18 54q5 3 13 3q22 0 28 -23q4 -13 4 -35q0 -45 -18 -54q-6 -3 -14 -3zM83 553h-10v111h33q30 0 30 -31q0 -21 -13 -27q-6 -3 -20 -3h-20
v-50zM199 553h-51v111h48l2 -6h-39v-43h31v-3v-3.5t-31 -0.5v-49h42q-1 -6 -2 -6zM281 553h-11q-1 0 -4 14q-11 38 -17 38h-24v-52h-10v111h32q29 0 29 -29q0 -25 -16 -28q9 -11 21 -54zM306 553h-8q-1 0 -3 12q6 -6 11 -6q13 0 13 18q0 13 -13 35q-9 17 -9 28q0 17 13 23
l7 1h10q1 0 3 -10v-1q-7 5 -11 5q-11 0 -11 -13t11 -32.5t11 -34.5q0 -17 -14 -23q-5 -2 -10 -2zM479 553h-8q-5 6 -44 94v-94h-6v56q0 55 1 55h9l41 -90h1v90h6v-111zM560 553h-11l-10 33h-33l-10 -33h-6l32 111h5q1 -1 4 -14zM625 553h-51v111h10v-105h42zM710 551
q-18 0 -24.5 13t-6.5 44v56h11v-62q0 -32 5 -38.5t16 -6.5q13 0 16.5 9t3.5 34v64h7v-49q0 -40 -4 -48q-6 -16 -24 -16zM761 553h-8l-3 12q6 -6 11 -6q11 0 13 15v4q0 12 -12 33q-10 18 -10 31q0 16 14 21q3 1 7 1h10l3 -11q-8 5 -12 5q-11 0 -11 -13t11 -33t11 -34
q0 -17 -14 -23q-4 -2 -10 -2zM854 553h-51q-1 0 -1 56q0 55 1 55h47q1 0 2 -6h-39v-43h31v0q1 -1 1 -3q0 -3 -0.5 -3.5t-31.5 -0.5v-49h42zM1042 553h-8l-43 94v-94h-6v111h10l41 -90v90h6v-111zM1107 553h-50q-1 0 -1 56l1 55h10v-105h42q0 -6 -2 -6zM1134 553h-11v56
l-27 55h11q1 0 24 -47l23 47h7l-27 -54v-57zM376 557q12 0 16 9.5t4 42.5q0 36 -5 43.5t-15 7.5q-14 0 -17.5 -11.5t-3.5 -39.5q0 -34 4.5 -43t16.5 -9zM940 557q12 0 16 11t4 41q0 39 -6 45t-15 6q-12 0 -16 -10t-4 -41q0 -38 5 -45t16 -7zM105 609q12 0 15.5 6t3.5 18
q0 19 -8 23q-3 2 -15 2h-18v-49h22zM242 612q15 0 18.5 4.5t3.5 18.5q0 17 -5 20t-17 3h-17v-46h17zM537 592l-15 51l-14 -51h29zM638 134q-2 0 -9 5q-9 4 -11.5 10.5t-2.5 25.5q0 84 63 263q0 1 -23 1q-115 0 -137 -47q-6 9 -6 23q0 31 33 40t100 9q29 0 33 2q11 0 17 8
l3 1q6 0 9 -13l6 -12q1 0 2 -2l-7 -15q-42 -92 -57 -175q-2 -11 -2 -17q43 128 75 128q13 0 19 -15q1 -5 1 -13q0 -24 -15 -60q-6 -11 -16 -23.5t-16 -16.5t-14 -7q-3 -1 -3 -2q0 -2 9 -11q5 -3 10 -3q10 0 26 17q25 30 26 42q4 20 12 51q18 68 46 138q4 12 7 15t5 4h3
q3 -2 5 -7q3 -11 8 -18l1 -2q0 -2 -7 -16q-43 -91 -59 -181l-2 -21q1 0 4 9q41 100 74 100l12 -1q10 0 11 -6q0 -4 -7 -18q-27 -53 -27 -100q0 -38 30 -59q15 -9 32 -9q-7 -15 -34 -15q-38 0 -53 38q-4 11 -4 25q0 37 16 94l3 11q-53 -106 -65 -149q-4 -10 -7 -10l-7 5
q-7 3 -8.5 6t-1.5 15q0 18 2 44q-29 -25 -46 -25q-10 0 -17 10q-10 12 -14 19q-1 0 -3 -7q-6 -19 -14 -65q-5 -18 -8 -18zM984 324q-10 4 -10 16q0 10 12 37l9 22q-16 -23 -20 -23q-3 0 -7 10v2q-10 -12 -14 -12q-3 0 -9 11l-1 8q0 7 7 25l10 29q0 1 -1 1q-17 -1 -23 -15v-1
q-7 3 -7 10q0 10 22 14q13 2 13.5 2.5t1.5 5.5q2 8 3.5 11t5 3.5t11.5 3.5q1 0 2 -2l-8 -20q0 -1 4 -1q29 0 54 -7q10 -4 10 -8q0 -2 -1 -2q-3 2 -14 5q-17 4 -37 4q-4 0 -8 -0.5t-9.5 -0.5t-22.5 -49l-3 -8q1 -3 3 -3t7 5q10 10 17 19q3 5 13 9q-2 -6 -11 -21l-4 -11
q3 0 6 6q24 31 27 31q5 -1 5 -3q-14 -30 -26 -62q-8 -26 -8 -34zM378 -12h-6q-63 0 -97.5 40t-34.5 100q0 49 18 109q11 32 23 56l9 18q-2 1 -40 1q-76 0 -100 -28l-7 -11q-4 11 -4 21q0 28 28 39q16 6 55 6l80 -3q3 0 7 7q13 20 31 42q54 61 89 61q17 0 17 -16
q-9 -72 -71 -103q-20 -9 -22 -9q-8 -3 -22.5 -5t-16 -4.5t-12.5 -31.5q-35 -91 -35 -149q0 -54 41 -87q29 -22 63 -22q53 0 155 32l109 34q114 38 182 38q84 0 130 -46q16 -16 16 -25l-1 -1q-44 39 -135 39q-93 0 -230 -47l-104 -34q-72 -21 -115 -21zM1058 382q-8 0 -13 7
v4q0 15 8 29l4 2q6 0 7 -8q0 -14 -12 -23v-2q1 -3 3 -3q5 2 9 9.5t4 16.5q0 6 -2 17v1q7 0 9 -16l1 -6q0 -14 -11 -25q-4 -3 -7 -3zM993 326q-5 3 -5 8q1 12 25 72q9 21 12 21q6 -1 6 -4l-5 -9q-6 -12 -11 -26l21 37q5 0 6 -18q0 -24 -11 -25q-3 0 -8 4q-1 0 -5 -8
q-17 -31 -23 -49zM334 337q24 0 50 19q14 12 21 21q16 24 17 42l1 5q-22 -13 -48 -34q-32 -30 -46 -52v-1h5zM1054 402q5 5 5 12h-1q-4 -7 -4 -12zM1024 389q11 0 11 15q0 5 -1 5zM605 104q-19 0 -32 15q-9 12 -9 25q0 20 21 112l16 67q1 4 5 9q-16 -6 -42 -13q-1 0 -1 -2
v-17q0 -38 -11 -90q-15 -53 -30 -53q-4 0 -9.5 6.5t-10.5 9t-8.5 12.5t-3.5 46q-19 -76 -33 -76q-4 0 -8 6q-1 1 -7 3.5t-8.5 11.5t-2.5 18q0 26 10 59q7 20 17 35q15 23 26 23q10 0 15 -19q5 9 10.5 14.5t10.5 5.5q7 0 11 -3q0 -2 -5.5 -10.5t-9.5 -21.5q-9 -29 -9 -56
q0 -22 6 -33q2 -4 3 -4q5 3 11 23q15 47 15 92q0 25 -7 27q-20 8 -20 26q0 13 14 20q4 2 8 2q16 0 22 -31q1 -5 3 -5l30 8q13 5 14.5 5.5t7 6t9.5 5.5q9 0 10 -12q0 -3 -5 -20q-33 -112 -33 -166q0 -30 13 -60zM976 124q-25 0 -45.5 22.5t-20.5 71.5q0 20 7 41v4
q-29 -78 -39 -78q-4 0 -7 6t-9 8q-3 0 -6 4q-4 7 -4 18q0 18 9 52q8 27 18 44q19 36 36 36q11 0 16 -22q15 35 26 35q6 0 6 -11q0 -13 -14 -61q-17 -59 -17 -98q0 -37 16 -55q9 -7 19 -7q13 0 29 12q35 30 35 107q0 28 -4 53q-3 9 -6 9q-4 0 -14 -22q-17 -39 -17 -71
q0 -18 7 -29q1 -2 2 -2q-6 -3 -10 -3q-13 0 -18 28q-2 8 -5 12q-3 8 -3 17q0 18 16 46q5 7 15.5 19t15.5 14q10 6 20 6q37 0 37 -52q0 -29 -11 -67q-7 -21 -16 -38q-29 -49 -64 -49zM676 255q4 1 12 9t13 18q12 20 22 62q-12 -12 -32 -51q-16 -32 -16 -38h1zM876 212
q8 14 48 106q0 9 -6 17l-1 1q-2 0 -9 -12q-22 -37 -31 -82l-2 -20zM358 70q-5 0 -11 5q-14 14 -14 55q0 31 10 77v1q-15 -39 -22 -62l-2 -8h-1q-6 0 -14 5q-12 8 -12 28q0 26 21 87q14 37 19 37q18 -2 18 -6q0 -2 -8 -19q-27 -66 -27 -89q32 77 55 115q7 11 11 11t12 -5
l2 -2l-9 -21q-10 -24 -19 -59q-11 -42 -11 -68l1 -1q29 98 52 149q12 22 18 22l14 -3q4 -1 4 -4l-7 -24q-14 -41 -26 -100q-5 -28 -5 -51q0 -21 8 -21q3 0 25 7q39 13 59 13q26 0 38 -15q-7 -1 -32.5 -5.5t-41.5 -10t-33 -14.5q-5 -2 -10 -2q-10 0 -18 13l-8 8
q-11 10 -11 32q0 16 12 66l3 16h-1q-15 -40 -28 -90q-10 -41 -10 -61v-4q0 -2 -1 -2zM235 43q-19 0 -31 17q-9 14 -9 37t6 75v1q-1 0 -7 -13q-14 -30 -25 -48q-5 -8 -10 -8q-4 0 -7.5 6.5t-10 8.5t-6.5 19t12 52q9 24 20 42q21 36 39 36q10 0 14 -17q13 28 16 32q6 8 12 12
t8 4q4 0 5 -7q0 -13 -18 -56q-20 -54 -20 -96q0 -56 19 -93l1 -2q0 -2 -8 -2zM456 177q2 0 7 17q26 74 26 80t-5 14h-2q-11 -3 -24 -55q-5 -19 -7 -40v-2q1 -14 5 -14zM158 131q4 4 8 12l45 86q2 3 2 7q0 5 -4 14l-1 1q-2 0 -9 -9q-17 -24 -30 -58q-10 -28 -11 -48v-5z
M418 -172h-9v86l9 4v-90zM657 -172h-10l-25 35l-3 -3v-32h-8v86q0 1 8 4v-51l25 22h7l-22 -20zM707 -172h-9v34q0 17 -4 20t-8 3q-9 0 -12 -11v-46h-9v86q0 1 9 4v-33q5 4 12 4q15 0 19 -13q2 -6 2 -30v-18zM799 -172q-19 0 -22 5.5t-3 21.5v30h-9v4h9v12q0 1 8 4v-16h11v-4
h-11v-31q0 -18 3 -19.5t6 -1.5q4 0 10 4zM862 -202h-1q0 84 -1 87l6 3l3 -3q5 5 14 5q13 0 18 -11q2 -6 2 -20q0 -25 -9 -29q-5 -3 -11 -3q-8 0 -13 4v-29q0 -1 -3 -2t-5 -2zM501 -172h-9v32q0 18 -3 21.5t-8 3.5q-10 0 -12 -14v-43h-9v26q0 24 -2.5 27.5t-8.5 3.5
q-9 0 -11 -10q-1 -3 -1 -26v-21h-9v58q0 1 3.5 2t5.5 2v-4q5 3 12 3q12 0 17 -7v-1q0 3 5.5 5.5t8.5 2.5q15 0 19 -10q2 -7 2 -34v-17zM572 -172h-9v58q1 1 9 4v-8q2 4 10 7h16q1 0 4 -10q-8 6 -15 6q-10 0 -14 -16q-1 -9 -1 -31v-10zM829 -201h-13l-3 10q8 -5 13 -5
q12 0 14 14l1 14q-5 -4 -13 -4q-14 0 -18 11q-3 6 -3 17v30l9 4v-31q0 -20 3.5 -23t7.5 -3q11 0 14 11v42q0 1 8 4v-61q0 -30 -20 -30zM1156 -172h-8v26q0 24 -3 27.5t-9 3.5q-8 0 -11 -10q-1 -4 -1 -25v-22h-8q-1 0 -1 34q0 17 -3 20t-8 3q-8 0 -11 -9q-1 -4 -1 -27v-21h-8
q-1 0 -1 58q0 1 9 4v-4q5 3 13 3q11 0 16 -6v-2q0 3 5 5.5t9 2.5q16 0 20 -12q1 -6 1 -34v-15zM949 -172h-15q-21 0 -21 25v11q0 26 22 26q20 0 20 -27q0 -2 -10 -4l-23 -5q0 -17 7 -20q3 -1 8 -1q7 0 15 5zM1052 -173q-22 0 -22 31q0 32 22 32q21 0 21 -31t-21 -32z
M133 -172h-4l-13 36l-12 -36h-4q-1 0 -2 5l-20 56h9l17 -46l10 28l-7 18h9q1 0 17 -46l17 46h5zM219 -172h-4q-1 1 -6.5 17.5t-6.5 17.5l-12 -35h-4q-1 1 -22 61h9l3 -7q12 -33 13 -39q1 0 9 24l2 4l-7 18h9l17 -46l17 46h5zM305 -172h-4l-13 36q-12 -36 -13 -36h-4l-21 61
h9l16 -46l10 28l-6 18h9q1 0 17 -46l17 46h5zM372 -173q-12 0 -16 13l-1 9q0 24 32 24q0 12 -13 12q-9 0 -14 -5l-2 -1q3 10 4 10h14q17 0 20 -16v-36q0 -5 3 -9h-8q-2 1 -3 5q-6 -6 -16 -6zM528 -173q-12 0 -16 12l-1 9q0 16 10 20.5t22 4.5q0 12 -13 12q-9 0 -15 -5l-1 -1
q2 10 3 10h15q20 0 20 -26q0 -32 2 -35h-7q-2 0 -3 6q-7 -7 -16 -7zM734 -173q-12 0 -16 12q-1 3 -1 9q0 16 9.5 20.5t22.5 4.5q-1 6 -3.5 9t-9.5 3q-9 0 -16 -6q2 10 3 10h15q14 0 18 -13q2 -5 2 -19q0 -25 2 -29h-8q-2 3 -2 6q-7 -7 -16 -7zM1019 -172h-14q-22 0 -22 31
q0 30 21 30h15q1 0 3 -10q-7 6 -14 6q-11 0 -13 -4.5t-2 -22.5q0 -20 3 -22.5t11 -2.5t15 5q-2 -10 -3 -10zM883 -168q7 0 9.5 6.5t2.5 23.5t-4 20t-9 3q-12 0 -12 -14v-25q0 -14 13 -14zM922 -140l24 4q0 21 -12 21t-12 -23v-2zM1052 -168q7 0 9.5 7t2.5 20q0 20 -4.5 23
t-7.5 3q-13 0 -13 -26q0 -21 4.5 -24t8.5 -3zM375 -166q8 0 13 7v27q-15 0 -19.5 -5.5t-4.5 -13.5q0 -15 10 -15h1zM530 -166q9 0 13 7v27q-15 0 -19 -5.5t-4 -13.5q0 -14 10 -15zM736 -166q9 0 13 7v27q-17 0 -22 -9q-2 -4 -2 -11q0 -14 11 -14zM343 -172h-1q-4 0 -6 4
q0 5 5 7q4 0 6 -5q0 -5 -4 -6zM971 -172h-2q-5 0 -5 5q0 4 5 6q4 0 5 -2.5t1 -3.5q0 -3 -4 -5z" />
    <glyph glyph-name="dollar" unicode="$" horiz-adv-x="1213" 
d="M375 551q-22 0 -28 26q-3 14 -3 34q0 55 32 55q20 0 27 -21q4 -14 4 -40q0 -54 -32 -54zM939 551q-22 0 -28 24q-3 13 -3 34q0 46 18 54q5 3 13 3q22 0 28 -23q4 -13 4 -35q0 -45 -18 -54q-6 -3 -14 -3zM83 553h-10v111h33q30 0 30 -31q0 -21 -13 -27q-6 -3 -20 -3h-20
v-50zM199 553h-51v111h48l2 -6h-39v-43h31v-3v-3.5t-31 -0.5v-49h42q-1 -6 -2 -6zM281 553h-11q-1 0 -4 14q-11 38 -17 38h-24v-52h-10v111h32q29 0 29 -29q0 -25 -16 -28q9 -11 21 -54zM306 553h-8q-1 0 -3 12q6 -6 11 -6q13 0 13 18q0 13 -13 35q-9 17 -9 28q0 17 13 23
l7 1h10q1 0 3 -10v-1q-7 5 -11 5q-11 0 -11 -13t11 -32.5t11 -34.5q0 -17 -14 -23q-5 -2 -10 -2zM479 553h-8q-5 6 -44 94v-94h-6v56q0 55 1 55h9l41 -90h1v90h6v-111zM560 553h-11l-10 33h-33l-10 -33h-6l32 111h5q1 -1 4 -14zM625 553h-51v111h10v-105h42zM710 551
q-18 0 -24.5 13t-6.5 44v56h11v-62q0 -32 5 -38.5t16 -6.5q13 0 16.5 9t3.5 34v64h7v-49q0 -40 -4 -48q-6 -16 -24 -16zM761 553h-8l-3 12q6 -6 11 -6q11 0 13 15v4q0 12 -12 33q-10 18 -10 31q0 16 14 21q3 1 7 1h10l3 -11q-8 5 -12 5q-11 0 -11 -13t11 -33t11 -34
q0 -17 -14 -23q-4 -2 -10 -2zM854 553h-51q-1 0 -1 56q0 55 1 55h47q1 0 2 -6h-39v-43h31v0q1 -1 1 -3q0 -3 -0.5 -3.5t-31.5 -0.5v-49h42zM1042 553h-8l-43 94v-94h-6v111h10l41 -90v90h6v-111zM1107 553h-50q-1 0 -1 56l1 55h10v-105h42q0 -6 -2 -6zM1134 553h-11v56
l-27 55h11q1 0 24 -47l23 47h7l-27 -54v-57zM376 557q12 0 16 9.5t4 42.5q0 36 -5 43.5t-15 7.5q-14 0 -17.5 -11.5t-3.5 -39.5q0 -34 4.5 -43t16.5 -9zM940 557q12 0 16 11t4 41q0 39 -6 45t-15 6q-12 0 -16 -10t-4 -41q0 -38 5 -45t16 -7zM105 609q12 0 15.5 6t3.5 18
q0 19 -8 23q-3 2 -15 2h-18v-49h22zM242 612q15 0 18.5 4.5t3.5 18.5q0 17 -5 20t-17 3h-17v-46h17zM537 592l-15 51l-14 -51h29zM638 134q-2 0 -9 5q-9 4 -11.5 10.5t-2.5 25.5q0 84 63 263q0 1 -23 1q-115 0 -137 -47q-6 9 -6 23q0 31 33 40t100 9q29 0 33 2q11 0 17 8
l3 1q6 0 9 -13l6 -12q1 0 2 -2l-7 -15q-42 -92 -57 -175q-2 -11 -2 -17q43 128 75 128q13 0 19 -15q1 -5 1 -13q0 -24 -15 -60q-6 -11 -16 -23.5t-16 -16.5t-14 -7q-3 -1 -3 -2q0 -2 9 -11q5 -3 10 -3q10 0 26 17q25 30 26 42q4 20 12 51q18 68 46 138q4 12 7 15t5 4h3
q3 -2 5 -7q3 -11 8 -18l1 -2q0 -2 -7 -16q-43 -91 -59 -181l-2 -21q1 0 4 9q41 100 74 100l12 -1q10 0 11 -6q0 -4 -7 -18q-27 -53 -27 -100q0 -38 30 -59q15 -9 32 -9q-7 -15 -34 -15q-38 0 -53 38q-4 11 -4 25q0 37 16 94l3 11q-53 -106 -65 -149q-4 -10 -7 -10l-7 5
q-7 3 -8.5 6t-1.5 15q0 18 2 44q-29 -25 -46 -25q-10 0 -17 10q-10 12 -14 19q-1 0 -3 -7q-6 -19 -14 -65q-5 -18 -8 -18zM984 324q-10 4 -10 16q0 10 12 37l9 22q-16 -23 -20 -23q-3 0 -7 10v2q-10 -12 -14 -12q-3 0 -9 11l-1 8q0 7 7 25l10 29q0 1 -1 1q-17 -1 -23 -15v-1
q-7 3 -7 10q0 10 22 14q13 2 13.5 2.5t1.5 5.5q2 8 3.5 11t5 3.5t11.5 3.5q1 0 2 -2l-8 -20q0 -1 4 -1q29 0 54 -7q10 -4 10 -8q0 -2 -1 -2q-3 2 -14 5q-17 4 -37 4q-4 0 -8 -0.5t-9.5 -0.5t-22.5 -49l-3 -8q1 -3 3 -3t7 5q10 10 17 19q3 5 13 9q-2 -6 -11 -21l-4 -11
q3 0 6 6q24 31 27 31q5 -1 5 -3q-14 -30 -26 -62q-8 -26 -8 -34zM378 -12h-6q-63 0 -97.5 40t-34.5 100q0 49 18 109q11 32 23 56l9 18q-2 1 -40 1q-76 0 -100 -28l-7 -11q-4 11 -4 21q0 28 28 39q16 6 55 6l80 -3q3 0 7 7q13 20 31 42q54 61 89 61q17 0 17 -16
q-9 -72 -71 -103q-20 -9 -22 -9q-8 -3 -22.5 -5t-16 -4.5t-12.5 -31.5q-35 -91 -35 -149q0 -54 41 -87q29 -22 63 -22q53 0 155 32l109 34q114 38 182 38q84 0 130 -46q16 -16 16 -25l-1 -1q-44 39 -135 39q-93 0 -230 -47l-104 -34q-72 -21 -115 -21zM1058 382q-8 0 -13 7
v4q0 15 8 29l4 2q6 0 7 -8q0 -14 -12 -23v-2q1 -3 3 -3q5 2 9 9.5t4 16.5q0 6 -2 17v1q7 0 9 -16l1 -6q0 -14 -11 -25q-4 -3 -7 -3zM993 326q-5 3 -5 8q1 12 25 72q9 21 12 21q6 -1 6 -4l-5 -9q-6 -12 -11 -26l21 37q5 0 6 -18q0 -24 -11 -25q-3 0 -8 4q-1 0 -5 -8
q-17 -31 -23 -49zM334 337q24 0 50 19q14 12 21 21q16 24 17 42l1 5q-22 -13 -48 -34q-32 -30 -46 -52v-1h5zM1054 402q5 5 5 12h-1q-4 -7 -4 -12zM1024 389q11 0 11 15q0 5 -1 5zM605 104q-19 0 -32 15q-9 12 -9 25q0 20 21 112l16 67q1 4 5 9q-16 -6 -42 -13q-1 0 -1 -2
v-17q0 -38 -11 -90q-15 -53 -30 -53q-4 0 -9.5 6.5t-10.5 9t-8.5 12.5t-3.5 46q-19 -76 -33 -76q-4 0 -8 6q-1 1 -7 3.5t-8.5 11.5t-2.5 18q0 26 10 59q7 20 17 35q15 23 26 23q10 0 15 -19q5 9 10.5 14.5t10.5 5.5q7 0 11 -3q0 -2 -5.5 -10.5t-9.5 -21.5q-9 -29 -9 -56
q0 -22 6 -33q2 -4 3 -4q5 3 11 23q15 47 15 92q0 25 -7 27q-20 8 -20 26q0 13 14 20q4 2 8 2q16 0 22 -31q1 -5 3 -5l30 8q13 5 14.5 5.5t7 6t9.5 5.5q9 0 10 -12q0 -3 -5 -20q-33 -112 -33 -166q0 -30 13 -60zM976 124q-25 0 -45.5 22.5t-20.5 71.5q0 20 7 41v4
q-29 -78 -39 -78q-4 0 -7 6t-9 8q-3 0 -6 4q-4 7 -4 18q0 18 9 52q8 27 18 44q19 36 36 36q11 0 16 -22q15 35 26 35q6 0 6 -11q0 -13 -14 -61q-17 -59 -17 -98q0 -37 16 -55q9 -7 19 -7q13 0 29 12q35 30 35 107q0 28 -4 53q-3 9 -6 9q-4 0 -14 -22q-17 -39 -17 -71
q0 -18 7 -29q1 -2 2 -2q-6 -3 -10 -3q-13 0 -18 28q-2 8 -5 12q-3 8 -3 17q0 18 16 46q5 7 15.5 19t15.5 14q10 6 20 6q37 0 37 -52q0 -29 -11 -67q-7 -21 -16 -38q-29 -49 -64 -49zM676 255q4 1 12 9t13 18q12 20 22 62q-12 -12 -32 -51q-16 -32 -16 -38h1zM876 212
q8 14 48 106q0 9 -6 17l-1 1q-2 0 -9 -12q-22 -37 -31 -82l-2 -20zM358 70q-5 0 -11 5q-14 14 -14 55q0 31 10 77v1q-15 -39 -22 -62l-2 -8h-1q-6 0 -14 5q-12 8 -12 28q0 26 21 87q14 37 19 37q18 -2 18 -6q0 -2 -8 -19q-27 -66 -27 -89q32 77 55 115q7 11 11 11t12 -5
l2 -2l-9 -21q-10 -24 -19 -59q-11 -42 -11 -68l1 -1q29 98 52 149q12 22 18 22l14 -3q4 -1 4 -4l-7 -24q-14 -41 -26 -100q-5 -28 -5 -51q0 -21 8 -21q3 0 25 7q39 13 59 13q26 0 38 -15q-7 -1 -32.5 -5.5t-41.5 -10t-33 -14.5q-5 -2 -10 -2q-10 0 -18 13l-8 8
q-11 10 -11 32q0 16 12 66l3 16h-1q-15 -40 -28 -90q-10 -41 -10 -61v-4q0 -2 -1 -2zM235 43q-19 0 -31 17q-9 14 -9 37t6 75v1q-1 0 -7 -13q-14 -30 -25 -48q-5 -8 -10 -8q-4 0 -7.5 6.5t-10 8.5t-6.5 19t12 52q9 24 20 42q21 36 39 36q10 0 14 -17q13 28 16 32q6 8 12 12
t8 4q4 0 5 -7q0 -13 -18 -56q-20 -54 -20 -96q0 -56 19 -93l1 -2q0 -2 -8 -2zM456 177q2 0 7 17q26 74 26 80t-5 14h-2q-11 -3 -24 -55q-5 -19 -7 -40v-2q1 -14 5 -14zM158 131q4 4 8 12l45 86q2 3 2 7q0 5 -4 14l-1 1q-2 0 -9 -9q-17 -24 -30 -58q-10 -28 -11 -48v-5z
M418 -172h-9v86l9 4v-90zM657 -172h-10l-25 35l-3 -3v-32h-8v86q0 1 8 4v-51l25 22h7l-22 -20zM707 -172h-9v34q0 17 -4 20t-8 3q-9 0 -12 -11v-46h-9v86q0 1 9 4v-33q5 4 12 4q15 0 19 -13q2 -6 2 -30v-18zM799 -172q-19 0 -22 5.5t-3 21.5v30h-9v4h9v12q0 1 8 4v-16h11v-4
h-11v-31q0 -18 3 -19.5t6 -1.5q4 0 10 4zM862 -202h-1q0 84 -1 87l6 3l3 -3q5 5 14 5q13 0 18 -11q2 -6 2 -20q0 -25 -9 -29q-5 -3 -11 -3q-8 0 -13 4v-29q0 -1 -3 -2t-5 -2zM501 -172h-9v32q0 18 -3 21.5t-8 3.5q-10 0 -12 -14v-43h-9v26q0 24 -2.5 27.5t-8.5 3.5
q-9 0 -11 -10q-1 -3 -1 -26v-21h-9v58q0 1 3.5 2t5.5 2v-4q5 3 12 3q12 0 17 -7v-1q0 3 5.5 5.5t8.5 2.5q15 0 19 -10q2 -7 2 -34v-17zM572 -172h-9v58q1 1 9 4v-8q2 4 10 7h16q1 0 4 -10q-8 6 -15 6q-10 0 -14 -16q-1 -9 -1 -31v-10zM829 -201h-13l-3 10q8 -5 13 -5
q12 0 14 14l1 14q-5 -4 -13 -4q-14 0 -18 11q-3 6 -3 17v30l9 4v-31q0 -20 3.5 -23t7.5 -3q11 0 14 11v42q0 1 8 4v-61q0 -30 -20 -30zM1156 -172h-8v26q0 24 -3 27.5t-9 3.5q-8 0 -11 -10q-1 -4 -1 -25v-22h-8q-1 0 -1 34q0 17 -3 20t-8 3q-8 0 -11 -9q-1 -4 -1 -27v-21h-8
q-1 0 -1 58q0 1 9 4v-4q5 3 13 3q11 0 16 -6v-2q0 3 5 5.5t9 2.5q16 0 20 -12q1 -6 1 -34v-15zM949 -172h-15q-21 0 -21 25v11q0 26 22 26q20 0 20 -27q0 -2 -10 -4l-23 -5q0 -17 7 -20q3 -1 8 -1q7 0 15 5zM1052 -173q-22 0 -22 31q0 32 22 32q21 0 21 -31t-21 -32z
M133 -172h-4l-13 36l-12 -36h-4q-1 0 -2 5l-20 56h9l17 -46l10 28l-7 18h9q1 0 17 -46l17 46h5zM219 -172h-4q-1 1 -6.5 17.5t-6.5 17.5l-12 -35h-4q-1 1 -22 61h9l3 -7q12 -33 13 -39q1 0 9 24l2 4l-7 18h9l17 -46l17 46h5zM305 -172h-4l-13 36q-12 -36 -13 -36h-4l-21 61
h9l16 -46l10 28l-6 18h9q1 0 17 -46l17 46h5zM372 -173q-12 0 -16 13l-1 9q0 24 32 24q0 12 -13 12q-9 0 -14 -5l-2 -1q3 10 4 10h14q17 0 20 -16v-36q0 -5 3 -9h-8q-2 1 -3 5q-6 -6 -16 -6zM528 -173q-12 0 -16 12l-1 9q0 16 10 20.5t22 4.5q0 12 -13 12q-9 0 -15 -5l-1 -1
q2 10 3 10h15q20 0 20 -26q0 -32 2 -35h-7q-2 0 -3 6q-7 -7 -16 -7zM734 -173q-12 0 -16 12q-1 3 -1 9q0 16 9.5 20.5t22.5 4.5q-1 6 -3.5 9t-9.5 3q-9 0 -16 -6q2 10 3 10h15q14 0 18 -13q2 -5 2 -19q0 -25 2 -29h-8q-2 3 -2 6q-7 -7 -16 -7zM1019 -172h-14q-22 0 -22 31
q0 30 21 30h15q1 0 3 -10q-7 6 -14 6q-11 0 -13 -4.5t-2 -22.5q0 -20 3 -22.5t11 -2.5t15 5q-2 -10 -3 -10zM883 -168q7 0 9.5 6.5t2.5 23.5t-4 20t-9 3q-12 0 -12 -14v-25q0 -14 13 -14zM922 -140l24 4q0 21 -12 21t-12 -23v-2zM1052 -168q7 0 9.5 7t2.5 20q0 20 -4.5 23
t-7.5 3q-13 0 -13 -26q0 -21 4.5 -24t8.5 -3zM375 -166q8 0 13 7v27q-15 0 -19.5 -5.5t-4.5 -13.5q0 -15 10 -15h1zM530 -166q9 0 13 7v27q-15 0 -19 -5.5t-4 -13.5q0 -14 10 -15zM736 -166q9 0 13 7v27q-17 0 -22 -9q-2 -4 -2 -11q0 -14 11 -14zM343 -172h-1q-4 0 -6 4
q0 5 5 7q4 0 6 -5q0 -5 -4 -6zM971 -172h-2q-5 0 -5 5q0 4 5 6q4 0 5 -2.5t1 -3.5q0 -3 -4 -5z" />
    <glyph glyph-name="percent" unicode="%" horiz-adv-x="709" 
d="M185 345q-66 0 -103 46.5t-37 125.5t37 125t103 46t103 -46t37 -125t-37 -125.5t-103 -46.5zM185 385q96 0 100 132q0 128 -100 131q-96 0 -100 -131q0 -129 100 -132zM181 -12h-46l394 700h46zM525 -12q-66 0 -103 46.5t-37 125.5t37 125t103 46t103 -46t37 -125
t-37 -125.5t-103 -46.5zM525 28q96 0 100 132q0 128 -100 131q-96 0 -100 -131q0 -129 100 -132z" />
    <glyph glyph-name="ampersand" unicode="&#x26;" horiz-adv-x="1213" 
d="M375 551q-22 0 -28 26q-3 14 -3 34q0 55 32 55q20 0 27 -21q4 -14 4 -40q0 -54 -32 -54zM939 551q-22 0 -28 24q-3 13 -3 34q0 46 18 54q5 3 13 3q22 0 28 -23q4 -13 4 -35q0 -45 -18 -54q-6 -3 -14 -3zM83 553h-10v111h33q30 0 30 -31q0 -21 -13 -27q-6 -3 -20 -3h-20
v-50zM199 553h-51v111h48l2 -6h-39v-43h31v-3v-3.5t-31 -0.5v-49h42q-1 -6 -2 -6zM281 553h-11q-1 0 -4 14q-11 38 -17 38h-24v-52h-10v111h32q29 0 29 -29q0 -25 -16 -28q9 -11 21 -54zM306 553h-8q-1 0 -3 12q6 -6 11 -6q13 0 13 18q0 13 -13 35q-9 17 -9 28q0 17 13 23
l7 1h10q1 0 3 -10v-1q-7 5 -11 5q-11 0 -11 -13t11 -32.5t11 -34.5q0 -17 -14 -23q-5 -2 -10 -2zM479 553h-8q-5 6 -44 94v-94h-6v56q0 55 1 55h9l41 -90h1v90h6v-111zM560 553h-11l-10 33h-33l-10 -33h-6l32 111h5q1 -1 4 -14zM625 553h-51v111h10v-105h42zM710 551
q-18 0 -24.5 13t-6.5 44v56h11v-62q0 -32 5 -38.5t16 -6.5q13 0 16.5 9t3.5 34v64h7v-49q0 -40 -4 -48q-6 -16 -24 -16zM761 553h-8l-3 12q6 -6 11 -6q11 0 13 15v4q0 12 -12 33q-10 18 -10 31q0 16 14 21q3 1 7 1h10l3 -11q-8 5 -12 5q-11 0 -11 -13t11 -33t11 -34
q0 -17 -14 -23q-4 -2 -10 -2zM854 553h-51q-1 0 -1 56q0 55 1 55h47q1 0 2 -6h-39v-43h31v0q1 -1 1 -3q0 -3 -0.5 -3.5t-31.5 -0.5v-49h42zM1042 553h-8l-43 94v-94h-6v111h10l41 -90v90h6v-111zM1107 553h-50q-1 0 -1 56l1 55h10v-105h42q0 -6 -2 -6zM1134 553h-11v56
l-27 55h11q1 0 24 -47l23 47h7l-27 -54v-57zM376 557q12 0 16 9.5t4 42.5q0 36 -5 43.5t-15 7.5q-14 0 -17.5 -11.5t-3.5 -39.5q0 -34 4.5 -43t16.5 -9zM940 557q12 0 16 11t4 41q0 39 -6 45t-15 6q-12 0 -16 -10t-4 -41q0 -38 5 -45t16 -7zM105 609q12 0 15.5 6t3.5 18
q0 19 -8 23q-3 2 -15 2h-18v-49h22zM242 612q15 0 18.5 4.5t3.5 18.5q0 17 -5 20t-17 3h-17v-46h17zM537 592l-15 51l-14 -51h29zM638 134q-2 0 -9 5q-9 4 -11.5 10.5t-2.5 25.5q0 84 63 263q0 1 -23 1q-115 0 -137 -47q-6 9 -6 23q0 31 33 40t100 9q29 0 33 2q11 0 17 8
l3 1q6 0 9 -13l6 -12q1 0 2 -2l-7 -15q-42 -92 -57 -175q-2 -11 -2 -17q43 128 75 128q13 0 19 -15q1 -5 1 -13q0 -24 -15 -60q-6 -11 -16 -23.5t-16 -16.5t-14 -7q-3 -1 -3 -2q0 -2 9 -11q5 -3 10 -3q10 0 26 17q25 30 26 42q4 20 12 51q18 68 46 138q4 12 7 15t5 4h3
q3 -2 5 -7q3 -11 8 -18l1 -2q0 -2 -7 -16q-43 -91 -59 -181l-2 -21q1 0 4 9q41 100 74 100l12 -1q10 0 11 -6q0 -4 -7 -18q-27 -53 -27 -100q0 -38 30 -59q15 -9 32 -9q-7 -15 -34 -15q-38 0 -53 38q-4 11 -4 25q0 37 16 94l3 11q-53 -106 -65 -149q-4 -10 -7 -10l-7 5
q-7 3 -8.5 6t-1.5 15q0 18 2 44q-29 -25 -46 -25q-10 0 -17 10q-10 12 -14 19q-1 0 -3 -7q-6 -19 -14 -65q-5 -18 -8 -18zM984 324q-10 4 -10 16q0 10 12 37l9 22q-16 -23 -20 -23q-3 0 -7 10v2q-10 -12 -14 -12q-3 0 -9 11l-1 8q0 7 7 25l10 29q0 1 -1 1q-17 -1 -23 -15v-1
q-7 3 -7 10q0 10 22 14q13 2 13.5 2.5t1.5 5.5q2 8 3.5 11t5 3.5t11.5 3.5q1 0 2 -2l-8 -20q0 -1 4 -1q29 0 54 -7q10 -4 10 -8q0 -2 -1 -2q-3 2 -14 5q-17 4 -37 4q-4 0 -8 -0.5t-9.5 -0.5t-22.5 -49l-3 -8q1 -3 3 -3t7 5q10 10 17 19q3 5 13 9q-2 -6 -11 -21l-4 -11
q3 0 6 6q24 31 27 31q5 -1 5 -3q-14 -30 -26 -62q-8 -26 -8 -34zM378 -12h-6q-63 0 -97.5 40t-34.5 100q0 49 18 109q11 32 23 56l9 18q-2 1 -40 1q-76 0 -100 -28l-7 -11q-4 11 -4 21q0 28 28 39q16 6 55 6l80 -3q3 0 7 7q13 20 31 42q54 61 89 61q17 0 17 -16
q-9 -72 -71 -103q-20 -9 -22 -9q-8 -3 -22.5 -5t-16 -4.5t-12.5 -31.5q-35 -91 -35 -149q0 -54 41 -87q29 -22 63 -22q53 0 155 32l109 34q114 38 182 38q84 0 130 -46q16 -16 16 -25l-1 -1q-44 39 -135 39q-93 0 -230 -47l-104 -34q-72 -21 -115 -21zM1058 382q-8 0 -13 7
v4q0 15 8 29l4 2q6 0 7 -8q0 -14 -12 -23v-2q1 -3 3 -3q5 2 9 9.5t4 16.5q0 6 -2 17v1q7 0 9 -16l1 -6q0 -14 -11 -25q-4 -3 -7 -3zM993 326q-5 3 -5 8q1 12 25 72q9 21 12 21q6 -1 6 -4l-5 -9q-6 -12 -11 -26l21 37q5 0 6 -18q0 -24 -11 -25q-3 0 -8 4q-1 0 -5 -8
q-17 -31 -23 -49zM334 337q24 0 50 19q14 12 21 21q16 24 17 42l1 5q-22 -13 -48 -34q-32 -30 -46 -52v-1h5zM1054 402q5 5 5 12h-1q-4 -7 -4 -12zM1024 389q11 0 11 15q0 5 -1 5zM605 104q-19 0 -32 15q-9 12 -9 25q0 20 21 112l16 67q1 4 5 9q-16 -6 -42 -13q-1 0 -1 -2
v-17q0 -38 -11 -90q-15 -53 -30 -53q-4 0 -9.5 6.5t-10.5 9t-8.5 12.5t-3.5 46q-19 -76 -33 -76q-4 0 -8 6q-1 1 -7 3.5t-8.5 11.5t-2.5 18q0 26 10 59q7 20 17 35q15 23 26 23q10 0 15 -19q5 9 10.5 14.5t10.5 5.5q7 0 11 -3q0 -2 -5.5 -10.5t-9.5 -21.5q-9 -29 -9 -56
q0 -22 6 -33q2 -4 3 -4q5 3 11 23q15 47 15 92q0 25 -7 27q-20 8 -20 26q0 13 14 20q4 2 8 2q16 0 22 -31q1 -5 3 -5l30 8q13 5 14.5 5.5t7 6t9.5 5.5q9 0 10 -12q0 -3 -5 -20q-33 -112 -33 -166q0 -30 13 -60zM976 124q-25 0 -45.5 22.5t-20.5 71.5q0 20 7 41v4
q-29 -78 -39 -78q-4 0 -7 6t-9 8q-3 0 -6 4q-4 7 -4 18q0 18 9 52q8 27 18 44q19 36 36 36q11 0 16 -22q15 35 26 35q6 0 6 -11q0 -13 -14 -61q-17 -59 -17 -98q0 -37 16 -55q9 -7 19 -7q13 0 29 12q35 30 35 107q0 28 -4 53q-3 9 -6 9q-4 0 -14 -22q-17 -39 -17 -71
q0 -18 7 -29q1 -2 2 -2q-6 -3 -10 -3q-13 0 -18 28q-2 8 -5 12q-3 8 -3 17q0 18 16 46q5 7 15.5 19t15.5 14q10 6 20 6q37 0 37 -52q0 -29 -11 -67q-7 -21 -16 -38q-29 -49 -64 -49zM676 255q4 1 12 9t13 18q12 20 22 62q-12 -12 -32 -51q-16 -32 -16 -38h1zM876 212
q8 14 48 106q0 9 -6 17l-1 1q-2 0 -9 -12q-22 -37 -31 -82l-2 -20zM358 70q-5 0 -11 5q-14 14 -14 55q0 31 10 77v1q-15 -39 -22 -62l-2 -8h-1q-6 0 -14 5q-12 8 -12 28q0 26 21 87q14 37 19 37q18 -2 18 -6q0 -2 -8 -19q-27 -66 -27 -89q32 77 55 115q7 11 11 11t12 -5
l2 -2l-9 -21q-10 -24 -19 -59q-11 -42 -11 -68l1 -1q29 98 52 149q12 22 18 22l14 -3q4 -1 4 -4l-7 -24q-14 -41 -26 -100q-5 -28 -5 -51q0 -21 8 -21q3 0 25 7q39 13 59 13q26 0 38 -15q-7 -1 -32.5 -5.5t-41.5 -10t-33 -14.5q-5 -2 -10 -2q-10 0 -18 13l-8 8
q-11 10 -11 32q0 16 12 66l3 16h-1q-15 -40 -28 -90q-10 -41 -10 -61v-4q0 -2 -1 -2zM235 43q-19 0 -31 17q-9 14 -9 37t6 75v1q-1 0 -7 -13q-14 -30 -25 -48q-5 -8 -10 -8q-4 0 -7.5 6.5t-10 8.5t-6.5 19t12 52q9 24 20 42q21 36 39 36q10 0 14 -17q13 28 16 32q6 8 12 12
t8 4q4 0 5 -7q0 -13 -18 -56q-20 -54 -20 -96q0 -56 19 -93l1 -2q0 -2 -8 -2zM456 177q2 0 7 17q26 74 26 80t-5 14h-2q-11 -3 -24 -55q-5 -19 -7 -40v-2q1 -14 5 -14zM158 131q4 4 8 12l45 86q2 3 2 7q0 5 -4 14l-1 1q-2 0 -9 -9q-17 -24 -30 -58q-10 -28 -11 -48v-5z
M418 -172h-9v86l9 4v-90zM657 -172h-10l-25 35l-3 -3v-32h-8v86q0 1 8 4v-51l25 22h7l-22 -20zM707 -172h-9v34q0 17 -4 20t-8 3q-9 0 -12 -11v-46h-9v86q0 1 9 4v-33q5 4 12 4q15 0 19 -13q2 -6 2 -30v-18zM799 -172q-19 0 -22 5.5t-3 21.5v30h-9v4h9v12q0 1 8 4v-16h11v-4
h-11v-31q0 -18 3 -19.5t6 -1.5q4 0 10 4zM862 -202h-1q0 84 -1 87l6 3l3 -3q5 5 14 5q13 0 18 -11q2 -6 2 -20q0 -25 -9 -29q-5 -3 -11 -3q-8 0 -13 4v-29q0 -1 -3 -2t-5 -2zM501 -172h-9v32q0 18 -3 21.5t-8 3.5q-10 0 -12 -14v-43h-9v26q0 24 -2.5 27.5t-8.5 3.5
q-9 0 -11 -10q-1 -3 -1 -26v-21h-9v58q0 1 3.5 2t5.5 2v-4q5 3 12 3q12 0 17 -7v-1q0 3 5.5 5.5t8.5 2.5q15 0 19 -10q2 -7 2 -34v-17zM572 -172h-9v58q1 1 9 4v-8q2 4 10 7h16q1 0 4 -10q-8 6 -15 6q-10 0 -14 -16q-1 -9 -1 -31v-10zM829 -201h-13l-3 10q8 -5 13 -5
q12 0 14 14l1 14q-5 -4 -13 -4q-14 0 -18 11q-3 6 -3 17v30l9 4v-31q0 -20 3.5 -23t7.5 -3q11 0 14 11v42q0 1 8 4v-61q0 -30 -20 -30zM1156 -172h-8v26q0 24 -3 27.5t-9 3.5q-8 0 -11 -10q-1 -4 -1 -25v-22h-8q-1 0 -1 34q0 17 -3 20t-8 3q-8 0 -11 -9q-1 -4 -1 -27v-21h-8
q-1 0 -1 58q0 1 9 4v-4q5 3 13 3q11 0 16 -6v-2q0 3 5 5.5t9 2.5q16 0 20 -12q1 -6 1 -34v-15zM949 -172h-15q-21 0 -21 25v11q0 26 22 26q20 0 20 -27q0 -2 -10 -4l-23 -5q0 -17 7 -20q3 -1 8 -1q7 0 15 5zM1052 -173q-22 0 -22 31q0 32 22 32q21 0 21 -31t-21 -32z
M133 -172h-4l-13 36l-12 -36h-4q-1 0 -2 5l-20 56h9l17 -46l10 28l-7 18h9q1 0 17 -46l17 46h5zM219 -172h-4q-1 1 -6.5 17.5t-6.5 17.5l-12 -35h-4q-1 1 -22 61h9l3 -7q12 -33 13 -39q1 0 9 24l2 4l-7 18h9l17 -46l17 46h5zM305 -172h-4l-13 36q-12 -36 -13 -36h-4l-21 61
h9l16 -46l10 28l-6 18h9q1 0 17 -46l17 46h5zM372 -173q-12 0 -16 13l-1 9q0 24 32 24q0 12 -13 12q-9 0 -14 -5l-2 -1q3 10 4 10h14q17 0 20 -16v-36q0 -5 3 -9h-8q-2 1 -3 5q-6 -6 -16 -6zM528 -173q-12 0 -16 12l-1 9q0 16 10 20.5t22 4.5q0 12 -13 12q-9 0 -15 -5l-1 -1
q2 10 3 10h15q20 0 20 -26q0 -32 2 -35h-7q-2 0 -3 6q-7 -7 -16 -7zM734 -173q-12 0 -16 12q-1 3 -1 9q0 16 9.5 20.5t22.5 4.5q-1 6 -3.5 9t-9.5 3q-9 0 -16 -6q2 10 3 10h15q14 0 18 -13q2 -5 2 -19q0 -25 2 -29h-8q-2 3 -2 6q-7 -7 -16 -7zM1019 -172h-14q-22 0 -22 31
q0 30 21 30h15q1 0 3 -10q-7 6 -14 6q-11 0 -13 -4.5t-2 -22.5q0 -20 3 -22.5t11 -2.5t15 5q-2 -10 -3 -10zM883 -168q7 0 9.5 6.5t2.5 23.5t-4 20t-9 3q-12 0 -12 -14v-25q0 -14 13 -14zM922 -140l24 4q0 21 -12 21t-12 -23v-2zM1052 -168q7 0 9.5 7t2.5 20q0 20 -4.5 23
t-7.5 3q-13 0 -13 -26q0 -21 4.5 -24t8.5 -3zM375 -166q8 0 13 7v27q-15 0 -19.5 -5.5t-4.5 -13.5q0 -15 10 -15h1zM530 -166q9 0 13 7v27q-15 0 -19 -5.5t-4 -13.5q0 -14 10 -15zM736 -166q9 0 13 7v27q-17 0 -22 -9q-2 -4 -2 -11q0 -14 11 -14zM343 -172h-1q-4 0 -6 4
q0 5 5 7q4 0 6 -5q0 -5 -4 -6zM971 -172h-2q-5 0 -5 5q0 4 5 6q4 0 5 -2.5t1 -3.5q0 -3 -4 -5z" />
    <glyph glyph-name="quotesingle" unicode="'" horiz-adv-x="140" 
d="M85 627h-40v120h40v-120z" />
    <glyph glyph-name="parenleft" unicode="(" horiz-adv-x="258" 
d="M187 -60q-66 45 -100.5 147.5t-34.5 251.5q0 142 33 246t102 152l23 -33q-56 -38 -87 -131t-31 -234q0 -148 32.5 -239.5t85.5 -126.5z" />
    <glyph glyph-name="parenright" unicode=")" horiz-adv-x="258" 
d="M74 -60l-22 33q56 38 87 131t31 235q0 148 -32.5 239t-85.5 126l22 33q136 -99 136 -398q0 -142 -33 -246.5t-103 -152.5z" />
    <glyph glyph-name="asterisk" unicode="*" horiz-adv-x="397" 
d="M272 554l-71 99l-72 -99l-33 23l72 99l-116 38l12 38l117 -38v122h40v-122l116 38l12 -38l-116 -38l72 -99z" />
    <glyph glyph-name="plus" unicode="+" horiz-adv-x="640" 
d="M338 96h-40v230h-250v40h250v230h40v-230h250v-40h-250v-230z" />
    <glyph glyph-name="comma" unicode="," horiz-adv-x="180" 
d="M94 -78h-37l32 81q-14 3 -23 14t-9 25q0 17 12 28.5t28 11.5q17 0 28.5 -11.5t11.5 -28.5q0 -21 -13 -46z" />
    <glyph glyph-name="hyphen" unicode="-" horiz-adv-x="540" 
d="M490 328h-440v40h440v-40z" />
    <glyph glyph-name="hyphen" unicode="&#xad;" horiz-adv-x="540" 
d="M490 328h-440v40h440v-40z" />
    <glyph glyph-name="period" unicode="." horiz-adv-x="180" 
d="M95 2q-16 0 -28 12t-12 28q0 17 12 28.5t28 11.5q17 0 28.5 -11.5t11.5 -28.5q0 -16 -11.5 -28t-28.5 -12z" />
    <glyph glyph-name="slash" unicode="/" horiz-adv-x="431" 
d="M82 -4h-44l304 700h44z" />
    <glyph glyph-name="zero" unicode="0" horiz-adv-x="660" 
d="M330 -1q-132 0 -206 93.5t-74 256.5t74 256.5t206 93.5t206 -93.5t74 -256.5t-74 -256.5t-206 -93.5zM330 42q112 0 174.5 79.5t62.5 227.5t-62.5 227.5t-174.5 79.5t-174.5 -79.5t-62.5 -227.5t62.5 -227.5t174.5 -79.5z" />
    <glyph glyph-name="one" unicode="1" horiz-adv-x="219" 
d="M169 0h-40v641l-65 -55l-26 30l98 84l33 -15v-685z" />
    <glyph glyph-name="two" unicode="2" horiz-adv-x="580" 
 />
    <glyph glyph-name="three" unicode="3" horiz-adv-x="579" 
 />
    <glyph glyph-name="four" unicode="4" horiz-adv-x="1213" 
d="M375 551q-22 0 -28 26q-3 14 -3 34q0 55 32 55q20 0 27 -21q4 -14 4 -40q0 -54 -32 -54zM939 551q-22 0 -28 24q-3 13 -3 34q0 46 18 54q5 3 13 3q22 0 28 -23q4 -13 4 -35q0 -45 -18 -54q-6 -3 -14 -3zM83 553h-10v111h33q30 0 30 -31q0 -21 -13 -27q-6 -3 -20 -3h-20
v-50zM199 553h-51v111h48l2 -6h-39v-43h31v-3v-3.5t-31 -0.5v-49h42q-1 -6 -2 -6zM281 553h-11q-1 0 -4 14q-11 38 -17 38h-24v-52h-10v111h32q29 0 29 -29q0 -25 -16 -28q9 -11 21 -54zM306 553h-8q-1 0 -3 12q6 -6 11 -6q13 0 13 18q0 13 -13 35q-9 17 -9 28q0 17 13 23
l7 1h10q1 0 3 -10v-1q-7 5 -11 5q-11 0 -11 -13t11 -32.5t11 -34.5q0 -17 -14 -23q-5 -2 -10 -2zM479 553h-8q-5 6 -44 94v-94h-6v56q0 55 1 55h9l41 -90h1v90h6v-111zM560 553h-11l-10 33h-33l-10 -33h-6l32 111h5q1 -1 4 -14zM625 553h-51v111h10v-105h42zM710 551
q-18 0 -24.5 13t-6.5 44v56h11v-62q0 -32 5 -38.5t16 -6.5q13 0 16.5 9t3.5 34v64h7v-49q0 -40 -4 -48q-6 -16 -24 -16zM761 553h-8l-3 12q6 -6 11 -6q11 0 13 15v4q0 12 -12 33q-10 18 -10 31q0 16 14 21q3 1 7 1h10l3 -11q-8 5 -12 5q-11 0 -11 -13t11 -33t11 -34
q0 -17 -14 -23q-4 -2 -10 -2zM854 553h-51q-1 0 -1 56q0 55 1 55h47q1 0 2 -6h-39v-43h31v0q1 -1 1 -3q0 -3 -0.5 -3.5t-31.5 -0.5v-49h42zM1042 553h-8l-43 94v-94h-6v111h10l41 -90v90h6v-111zM1107 553h-50q-1 0 -1 56l1 55h10v-105h42q0 -6 -2 -6zM1134 553h-11v56
l-27 55h11q1 0 24 -47l23 47h7l-27 -54v-57zM376 557q12 0 16 9.5t4 42.5q0 36 -5 43.5t-15 7.5q-14 0 -17.5 -11.5t-3.5 -39.5q0 -34 4.5 -43t16.5 -9zM940 557q12 0 16 11t4 41q0 39 -6 45t-15 6q-12 0 -16 -10t-4 -41q0 -38 5 -45t16 -7zM105 609q12 0 15.5 6t3.5 18
q0 19 -8 23q-3 2 -15 2h-18v-49h22zM242 612q15 0 18.5 4.5t3.5 18.5q0 17 -5 20t-17 3h-17v-46h17zM537 592l-15 51l-14 -51h29zM638 134q-2 0 -9 5q-9 4 -11.5 10.5t-2.5 25.5q0 84 63 263q0 1 -23 1q-115 0 -137 -47q-6 9 -6 23q0 31 33 40t100 9q29 0 33 2q11 0 17 8
l3 1q6 0 9 -13l6 -12q1 0 2 -2l-7 -15q-42 -92 -57 -175q-2 -11 -2 -17q43 128 75 128q13 0 19 -15q1 -5 1 -13q0 -24 -15 -60q-6 -11 -16 -23.5t-16 -16.5t-14 -7q-3 -1 -3 -2q0 -2 9 -11q5 -3 10 -3q10 0 26 17q25 30 26 42q4 20 12 51q18 68 46 138q4 12 7 15t5 4h3
q3 -2 5 -7q3 -11 8 -18l1 -2q0 -2 -7 -16q-43 -91 -59 -181l-2 -21q1 0 4 9q41 100 74 100l12 -1q10 0 11 -6q0 -4 -7 -18q-27 -53 -27 -100q0 -38 30 -59q15 -9 32 -9q-7 -15 -34 -15q-38 0 -53 38q-4 11 -4 25q0 37 16 94l3 11q-53 -106 -65 -149q-4 -10 -7 -10l-7 5
q-7 3 -8.5 6t-1.5 15q0 18 2 44q-29 -25 -46 -25q-10 0 -17 10q-10 12 -14 19q-1 0 -3 -7q-6 -19 -14 -65q-5 -18 -8 -18zM984 324q-10 4 -10 16q0 10 12 37l9 22q-16 -23 -20 -23q-3 0 -7 10v2q-10 -12 -14 -12q-3 0 -9 11l-1 8q0 7 7 25l10 29q0 1 -1 1q-17 -1 -23 -15v-1
q-7 3 -7 10q0 10 22 14q13 2 13.5 2.5t1.5 5.5q2 8 3.5 11t5 3.5t11.5 3.5q1 0 2 -2l-8 -20q0 -1 4 -1q29 0 54 -7q10 -4 10 -8q0 -2 -1 -2q-3 2 -14 5q-17 4 -37 4q-4 0 -8 -0.5t-9.5 -0.5t-22.5 -49l-3 -8q1 -3 3 -3t7 5q10 10 17 19q3 5 13 9q-2 -6 -11 -21l-4 -11
q3 0 6 6q24 31 27 31q5 -1 5 -3q-14 -30 -26 -62q-8 -26 -8 -34zM378 -12h-6q-63 0 -97.5 40t-34.5 100q0 49 18 109q11 32 23 56l9 18q-2 1 -40 1q-76 0 -100 -28l-7 -11q-4 11 -4 21q0 28 28 39q16 6 55 6l80 -3q3 0 7 7q13 20 31 42q54 61 89 61q17 0 17 -16
q-9 -72 -71 -103q-20 -9 -22 -9q-8 -3 -22.5 -5t-16 -4.5t-12.5 -31.5q-35 -91 -35 -149q0 -54 41 -87q29 -22 63 -22q53 0 155 32l109 34q114 38 182 38q84 0 130 -46q16 -16 16 -25l-1 -1q-44 39 -135 39q-93 0 -230 -47l-104 -34q-72 -21 -115 -21zM1058 382q-8 0 -13 7
v4q0 15 8 29l4 2q6 0 7 -8q0 -14 -12 -23v-2q1 -3 3 -3q5 2 9 9.5t4 16.5q0 6 -2 17v1q7 0 9 -16l1 -6q0 -14 -11 -25q-4 -3 -7 -3zM993 326q-5 3 -5 8q1 12 25 72q9 21 12 21q6 -1 6 -4l-5 -9q-6 -12 -11 -26l21 37q5 0 6 -18q0 -24 -11 -25q-3 0 -8 4q-1 0 -5 -8
q-17 -31 -23 -49zM334 337q24 0 50 19q14 12 21 21q16 24 17 42l1 5q-22 -13 -48 -34q-32 -30 -46 -52v-1h5zM1054 402q5 5 5 12h-1q-4 -7 -4 -12zM1024 389q11 0 11 15q0 5 -1 5zM605 104q-19 0 -32 15q-9 12 -9 25q0 20 21 112l16 67q1 4 5 9q-16 -6 -42 -13q-1 0 -1 -2
v-17q0 -38 -11 -90q-15 -53 -30 -53q-4 0 -9.5 6.5t-10.5 9t-8.5 12.5t-3.5 46q-19 -76 -33 -76q-4 0 -8 6q-1 1 -7 3.5t-8.5 11.5t-2.5 18q0 26 10 59q7 20 17 35q15 23 26 23q10 0 15 -19q5 9 10.5 14.5t10.5 5.5q7 0 11 -3q0 -2 -5.5 -10.5t-9.5 -21.5q-9 -29 -9 -56
q0 -22 6 -33q2 -4 3 -4q5 3 11 23q15 47 15 92q0 25 -7 27q-20 8 -20 26q0 13 14 20q4 2 8 2q16 0 22 -31q1 -5 3 -5l30 8q13 5 14.5 5.5t7 6t9.5 5.5q9 0 10 -12q0 -3 -5 -20q-33 -112 -33 -166q0 -30 13 -60zM976 124q-25 0 -45.5 22.5t-20.5 71.5q0 20 7 41v4
q-29 -78 -39 -78q-4 0 -7 6t-9 8q-3 0 -6 4q-4 7 -4 18q0 18 9 52q8 27 18 44q19 36 36 36q11 0 16 -22q15 35 26 35q6 0 6 -11q0 -13 -14 -61q-17 -59 -17 -98q0 -37 16 -55q9 -7 19 -7q13 0 29 12q35 30 35 107q0 28 -4 53q-3 9 -6 9q-4 0 -14 -22q-17 -39 -17 -71
q0 -18 7 -29q1 -2 2 -2q-6 -3 -10 -3q-13 0 -18 28q-2 8 -5 12q-3 8 -3 17q0 18 16 46q5 7 15.5 19t15.5 14q10 6 20 6q37 0 37 -52q0 -29 -11 -67q-7 -21 -16 -38q-29 -49 -64 -49zM676 255q4 1 12 9t13 18q12 20 22 62q-12 -12 -32 -51q-16 -32 -16 -38h1zM876 212
q8 14 48 106q0 9 -6 17l-1 1q-2 0 -9 -12q-22 -37 -31 -82l-2 -20zM358 70q-5 0 -11 5q-14 14 -14 55q0 31 10 77v1q-15 -39 -22 -62l-2 -8h-1q-6 0 -14 5q-12 8 -12 28q0 26 21 87q14 37 19 37q18 -2 18 -6q0 -2 -8 -19q-27 -66 -27 -89q32 77 55 115q7 11 11 11t12 -5
l2 -2l-9 -21q-10 -24 -19 -59q-11 -42 -11 -68l1 -1q29 98 52 149q12 22 18 22l14 -3q4 -1 4 -4l-7 -24q-14 -41 -26 -100q-5 -28 -5 -51q0 -21 8 -21q3 0 25 7q39 13 59 13q26 0 38 -15q-7 -1 -32.5 -5.5t-41.5 -10t-33 -14.5q-5 -2 -10 -2q-10 0 -18 13l-8 8
q-11 10 -11 32q0 16 12 66l3 16h-1q-15 -40 -28 -90q-10 -41 -10 -61v-4q0 -2 -1 -2zM235 43q-19 0 -31 17q-9 14 -9 37t6 75v1q-1 0 -7 -13q-14 -30 -25 -48q-5 -8 -10 -8q-4 0 -7.5 6.5t-10 8.5t-6.5 19t12 52q9 24 20 42q21 36 39 36q10 0 14 -17q13 28 16 32q6 8 12 12
t8 4q4 0 5 -7q0 -13 -18 -56q-20 -54 -20 -96q0 -56 19 -93l1 -2q0 -2 -8 -2zM456 177q2 0 7 17q26 74 26 80t-5 14h-2q-11 -3 -24 -55q-5 -19 -7 -40v-2q1 -14 5 -14zM158 131q4 4 8 12l45 86q2 3 2 7q0 5 -4 14l-1 1q-2 0 -9 -9q-17 -24 -30 -58q-10 -28 -11 -48v-5z
M418 -172h-9v86l9 4v-90zM657 -172h-10l-25 35l-3 -3v-32h-8v86q0 1 8 4v-51l25 22h7l-22 -20zM707 -172h-9v34q0 17 -4 20t-8 3q-9 0 -12 -11v-46h-9v86q0 1 9 4v-33q5 4 12 4q15 0 19 -13q2 -6 2 -30v-18zM799 -172q-19 0 -22 5.5t-3 21.5v30h-9v4h9v12q0 1 8 4v-16h11v-4
h-11v-31q0 -18 3 -19.5t6 -1.5q4 0 10 4zM862 -202h-1q0 84 -1 87l6 3l3 -3q5 5 14 5q13 0 18 -11q2 -6 2 -20q0 -25 -9 -29q-5 -3 -11 -3q-8 0 -13 4v-29q0 -1 -3 -2t-5 -2zM501 -172h-9v32q0 18 -3 21.5t-8 3.5q-10 0 -12 -14v-43h-9v26q0 24 -2.5 27.5t-8.5 3.5
q-9 0 -11 -10q-1 -3 -1 -26v-21h-9v58q0 1 3.5 2t5.5 2v-4q5 3 12 3q12 0 17 -7v-1q0 3 5.5 5.5t8.5 2.5q15 0 19 -10q2 -7 2 -34v-17zM572 -172h-9v58q1 1 9 4v-8q2 4 10 7h16q1 0 4 -10q-8 6 -15 6q-10 0 -14 -16q-1 -9 -1 -31v-10zM829 -201h-13l-3 10q8 -5 13 -5
q12 0 14 14l1 14q-5 -4 -13 -4q-14 0 -18 11q-3 6 -3 17v30l9 4v-31q0 -20 3.5 -23t7.5 -3q11 0 14 11v42q0 1 8 4v-61q0 -30 -20 -30zM1156 -172h-8v26q0 24 -3 27.5t-9 3.5q-8 0 -11 -10q-1 -4 -1 -25v-22h-8q-1 0 -1 34q0 17 -3 20t-8 3q-8 0 -11 -9q-1 -4 -1 -27v-21h-8
q-1 0 -1 58q0 1 9 4v-4q5 3 13 3q11 0 16 -6v-2q0 3 5 5.5t9 2.5q16 0 20 -12q1 -6 1 -34v-15zM949 -172h-15q-21 0 -21 25v11q0 26 22 26q20 0 20 -27q0 -2 -10 -4l-23 -5q0 -17 7 -20q3 -1 8 -1q7 0 15 5zM1052 -173q-22 0 -22 31q0 32 22 32q21 0 21 -31t-21 -32z
M133 -172h-4l-13 36l-12 -36h-4q-1 0 -2 5l-20 56h9l17 -46l10 28l-7 18h9q1 0 17 -46l17 46h5zM219 -172h-4q-1 1 -6.5 17.5t-6.5 17.5l-12 -35h-4q-1 1 -22 61h9l3 -7q12 -33 13 -39q1 0 9 24l2 4l-7 18h9l17 -46l17 46h5zM305 -172h-4l-13 36q-12 -36 -13 -36h-4l-21 61
h9l16 -46l10 28l-6 18h9q1 0 17 -46l17 46h5zM372 -173q-12 0 -16 13l-1 9q0 24 32 24q0 12 -13 12q-9 0 -14 -5l-2 -1q3 10 4 10h14q17 0 20 -16v-36q0 -5 3 -9h-8q-2 1 -3 5q-6 -6 -16 -6zM528 -173q-12 0 -16 12l-1 9q0 16 10 20.5t22 4.5q0 12 -13 12q-9 0 -15 -5l-1 -1
q2 10 3 10h15q20 0 20 -26q0 -32 2 -35h-7q-2 0 -3 6q-7 -7 -16 -7zM734 -173q-12 0 -16 12q-1 3 -1 9q0 16 9.5 20.5t22.5 4.5q-1 6 -3.5 9t-9.5 3q-9 0 -16 -6q2 10 3 10h15q14 0 18 -13q2 -5 2 -19q0 -25 2 -29h-8q-2 3 -2 6q-7 -7 -16 -7zM1019 -172h-14q-22 0 -22 31
q0 30 21 30h15q1 0 3 -10q-7 6 -14 6q-11 0 -13 -4.5t-2 -22.5q0 -20 3 -22.5t11 -2.5t15 5q-2 -10 -3 -10zM883 -168q7 0 9.5 6.5t2.5 23.5t-4 20t-9 3q-12 0 -12 -14v-25q0 -14 13 -14zM922 -140l24 4q0 21 -12 21t-12 -23v-2zM1052 -168q7 0 9.5 7t2.5 20q0 20 -4.5 23
t-7.5 3q-13 0 -13 -26q0 -21 4.5 -24t8.5 -3zM375 -166q8 0 13 7v27q-15 0 -19.5 -5.5t-4.5 -13.5q0 -15 10 -15h1zM530 -166q9 0 13 7v27q-15 0 -19 -5.5t-4 -13.5q0 -14 10 -15zM736 -166q9 0 13 7v27q-17 0 -22 -9q-2 -4 -2 -11q0 -14 11 -14zM343 -172h-1q-4 0 -6 4
q0 5 5 7q4 0 6 -5q0 -5 -4 -6zM971 -172h-2q-5 0 -5 5q0 4 5 6q4 0 5 -2.5t1 -3.5q0 -3 -4 -5z" />
    <glyph glyph-name="five" unicode="5" horiz-adv-x="580" 
 />
    <glyph glyph-name="six" unicode="6" horiz-adv-x="1213" 
d="M375 551q-22 0 -28 26q-3 14 -3 34q0 55 32 55q20 0 27 -21q4 -14 4 -40q0 -54 -32 -54zM939 551q-22 0 -28 24q-3 13 -3 34q0 46 18 54q5 3 13 3q22 0 28 -23q4 -13 4 -35q0 -45 -18 -54q-6 -3 -14 -3zM83 553h-10v111h33q30 0 30 -31q0 -21 -13 -27q-6 -3 -20 -3h-20
v-50zM199 553h-51v111h48l2 -6h-39v-43h31v-3v-3.5t-31 -0.5v-49h42q-1 -6 -2 -6zM281 553h-11q-1 0 -4 14q-11 38 -17 38h-24v-52h-10v111h32q29 0 29 -29q0 -25 -16 -28q9 -11 21 -54zM306 553h-8q-1 0 -3 12q6 -6 11 -6q13 0 13 18q0 13 -13 35q-9 17 -9 28q0 17 13 23
l7 1h10q1 0 3 -10v-1q-7 5 -11 5q-11 0 -11 -13t11 -32.5t11 -34.5q0 -17 -14 -23q-5 -2 -10 -2zM479 553h-8q-5 6 -44 94v-94h-6v56q0 55 1 55h9l41 -90h1v90h6v-111zM560 553h-11l-10 33h-33l-10 -33h-6l32 111h5q1 -1 4 -14zM625 553h-51v111h10v-105h42zM710 551
q-18 0 -24.5 13t-6.5 44v56h11v-62q0 -32 5 -38.5t16 -6.5q13 0 16.5 9t3.5 34v64h7v-49q0 -40 -4 -48q-6 -16 -24 -16zM761 553h-8l-3 12q6 -6 11 -6q11 0 13 15v4q0 12 -12 33q-10 18 -10 31q0 16 14 21q3 1 7 1h10l3 -11q-8 5 -12 5q-11 0 -11 -13t11 -33t11 -34
q0 -17 -14 -23q-4 -2 -10 -2zM854 553h-51q-1 0 -1 56q0 55 1 55h47q1 0 2 -6h-39v-43h31v0q1 -1 1 -3q0 -3 -0.5 -3.5t-31.5 -0.5v-49h42zM1042 553h-8l-43 94v-94h-6v111h10l41 -90v90h6v-111zM1107 553h-50q-1 0 -1 56l1 55h10v-105h42q0 -6 -2 -6zM1134 553h-11v56
l-27 55h11q1 0 24 -47l23 47h7l-27 -54v-57zM376 557q12 0 16 9.5t4 42.5q0 36 -5 43.5t-15 7.5q-14 0 -17.5 -11.5t-3.5 -39.5q0 -34 4.5 -43t16.5 -9zM940 557q12 0 16 11t4 41q0 39 -6 45t-15 6q-12 0 -16 -10t-4 -41q0 -38 5 -45t16 -7zM105 609q12 0 15.5 6t3.5 18
q0 19 -8 23q-3 2 -15 2h-18v-49h22zM242 612q15 0 18.5 4.5t3.5 18.5q0 17 -5 20t-17 3h-17v-46h17zM537 592l-15 51l-14 -51h29zM638 134q-2 0 -9 5q-9 4 -11.5 10.5t-2.5 25.5q0 84 63 263q0 1 -23 1q-115 0 -137 -47q-6 9 -6 23q0 31 33 40t100 9q29 0 33 2q11 0 17 8
l3 1q6 0 9 -13l6 -12q1 0 2 -2l-7 -15q-42 -92 -57 -175q-2 -11 -2 -17q43 128 75 128q13 0 19 -15q1 -5 1 -13q0 -24 -15 -60q-6 -11 -16 -23.5t-16 -16.5t-14 -7q-3 -1 -3 -2q0 -2 9 -11q5 -3 10 -3q10 0 26 17q25 30 26 42q4 20 12 51q18 68 46 138q4 12 7 15t5 4h3
q3 -2 5 -7q3 -11 8 -18l1 -2q0 -2 -7 -16q-43 -91 -59 -181l-2 -21q1 0 4 9q41 100 74 100l12 -1q10 0 11 -6q0 -4 -7 -18q-27 -53 -27 -100q0 -38 30 -59q15 -9 32 -9q-7 -15 -34 -15q-38 0 -53 38q-4 11 -4 25q0 37 16 94l3 11q-53 -106 -65 -149q-4 -10 -7 -10l-7 5
q-7 3 -8.5 6t-1.5 15q0 18 2 44q-29 -25 -46 -25q-10 0 -17 10q-10 12 -14 19q-1 0 -3 -7q-6 -19 -14 -65q-5 -18 -8 -18zM984 324q-10 4 -10 16q0 10 12 37l9 22q-16 -23 -20 -23q-3 0 -7 10v2q-10 -12 -14 -12q-3 0 -9 11l-1 8q0 7 7 25l10 29q0 1 -1 1q-17 -1 -23 -15v-1
q-7 3 -7 10q0 10 22 14q13 2 13.5 2.5t1.5 5.5q2 8 3.5 11t5 3.5t11.5 3.5q1 0 2 -2l-8 -20q0 -1 4 -1q29 0 54 -7q10 -4 10 -8q0 -2 -1 -2q-3 2 -14 5q-17 4 -37 4q-4 0 -8 -0.5t-9.5 -0.5t-22.5 -49l-3 -8q1 -3 3 -3t7 5q10 10 17 19q3 5 13 9q-2 -6 -11 -21l-4 -11
q3 0 6 6q24 31 27 31q5 -1 5 -3q-14 -30 -26 -62q-8 -26 -8 -34zM378 -12h-6q-63 0 -97.5 40t-34.5 100q0 49 18 109q11 32 23 56l9 18q-2 1 -40 1q-76 0 -100 -28l-7 -11q-4 11 -4 21q0 28 28 39q16 6 55 6l80 -3q3 0 7 7q13 20 31 42q54 61 89 61q17 0 17 -16
q-9 -72 -71 -103q-20 -9 -22 -9q-8 -3 -22.5 -5t-16 -4.5t-12.5 -31.5q-35 -91 -35 -149q0 -54 41 -87q29 -22 63 -22q53 0 155 32l109 34q114 38 182 38q84 0 130 -46q16 -16 16 -25l-1 -1q-44 39 -135 39q-93 0 -230 -47l-104 -34q-72 -21 -115 -21zM1058 382q-8 0 -13 7
v4q0 15 8 29l4 2q6 0 7 -8q0 -14 -12 -23v-2q1 -3 3 -3q5 2 9 9.5t4 16.5q0 6 -2 17v1q7 0 9 -16l1 -6q0 -14 -11 -25q-4 -3 -7 -3zM993 326q-5 3 -5 8q1 12 25 72q9 21 12 21q6 -1 6 -4l-5 -9q-6 -12 -11 -26l21 37q5 0 6 -18q0 -24 -11 -25q-3 0 -8 4q-1 0 -5 -8
q-17 -31 -23 -49zM334 337q24 0 50 19q14 12 21 21q16 24 17 42l1 5q-22 -13 -48 -34q-32 -30 -46 -52v-1h5zM1054 402q5 5 5 12h-1q-4 -7 -4 -12zM1024 389q11 0 11 15q0 5 -1 5zM605 104q-19 0 -32 15q-9 12 -9 25q0 20 21 112l16 67q1 4 5 9q-16 -6 -42 -13q-1 0 -1 -2
v-17q0 -38 -11 -90q-15 -53 -30 -53q-4 0 -9.5 6.5t-10.5 9t-8.5 12.5t-3.5 46q-19 -76 -33 -76q-4 0 -8 6q-1 1 -7 3.5t-8.5 11.5t-2.5 18q0 26 10 59q7 20 17 35q15 23 26 23q10 0 15 -19q5 9 10.5 14.5t10.5 5.5q7 0 11 -3q0 -2 -5.5 -10.5t-9.5 -21.5q-9 -29 -9 -56
q0 -22 6 -33q2 -4 3 -4q5 3 11 23q15 47 15 92q0 25 -7 27q-20 8 -20 26q0 13 14 20q4 2 8 2q16 0 22 -31q1 -5 3 -5l30 8q13 5 14.5 5.5t7 6t9.5 5.5q9 0 10 -12q0 -3 -5 -20q-33 -112 -33 -166q0 -30 13 -60zM976 124q-25 0 -45.5 22.5t-20.5 71.5q0 20 7 41v4
q-29 -78 -39 -78q-4 0 -7 6t-9 8q-3 0 -6 4q-4 7 -4 18q0 18 9 52q8 27 18 44q19 36 36 36q11 0 16 -22q15 35 26 35q6 0 6 -11q0 -13 -14 -61q-17 -59 -17 -98q0 -37 16 -55q9 -7 19 -7q13 0 29 12q35 30 35 107q0 28 -4 53q-3 9 -6 9q-4 0 -14 -22q-17 -39 -17 -71
q0 -18 7 -29q1 -2 2 -2q-6 -3 -10 -3q-13 0 -18 28q-2 8 -5 12q-3 8 -3 17q0 18 16 46q5 7 15.5 19t15.5 14q10 6 20 6q37 0 37 -52q0 -29 -11 -67q-7 -21 -16 -38q-29 -49 -64 -49zM676 255q4 1 12 9t13 18q12 20 22 62q-12 -12 -32 -51q-16 -32 -16 -38h1zM876 212
q8 14 48 106q0 9 -6 17l-1 1q-2 0 -9 -12q-22 -37 -31 -82l-2 -20zM358 70q-5 0 -11 5q-14 14 -14 55q0 31 10 77v1q-15 -39 -22 -62l-2 -8h-1q-6 0 -14 5q-12 8 -12 28q0 26 21 87q14 37 19 37q18 -2 18 -6q0 -2 -8 -19q-27 -66 -27 -89q32 77 55 115q7 11 11 11t12 -5
l2 -2l-9 -21q-10 -24 -19 -59q-11 -42 -11 -68l1 -1q29 98 52 149q12 22 18 22l14 -3q4 -1 4 -4l-7 -24q-14 -41 -26 -100q-5 -28 -5 -51q0 -21 8 -21q3 0 25 7q39 13 59 13q26 0 38 -15q-7 -1 -32.5 -5.5t-41.5 -10t-33 -14.5q-5 -2 -10 -2q-10 0 -18 13l-8 8
q-11 10 -11 32q0 16 12 66l3 16h-1q-15 -40 -28 -90q-10 -41 -10 -61v-4q0 -2 -1 -2zM235 43q-19 0 -31 17q-9 14 -9 37t6 75v1q-1 0 -7 -13q-14 -30 -25 -48q-5 -8 -10 -8q-4 0 -7.5 6.5t-10 8.5t-6.5 19t12 52q9 24 20 42q21 36 39 36q10 0 14 -17q13 28 16 32q6 8 12 12
t8 4q4 0 5 -7q0 -13 -18 -56q-20 -54 -20 -96q0 -56 19 -93l1 -2q0 -2 -8 -2zM456 177q2 0 7 17q26 74 26 80t-5 14h-2q-11 -3 -24 -55q-5 -19 -7 -40v-2q1 -14 5 -14zM158 131q4 4 8 12l45 86q2 3 2 7q0 5 -4 14l-1 1q-2 0 -9 -9q-17 -24 -30 -58q-10 -28 -11 -48v-5z
M418 -172h-9v86l9 4v-90zM657 -172h-10l-25 35l-3 -3v-32h-8v86q0 1 8 4v-51l25 22h7l-22 -20zM707 -172h-9v34q0 17 -4 20t-8 3q-9 0 -12 -11v-46h-9v86q0 1 9 4v-33q5 4 12 4q15 0 19 -13q2 -6 2 -30v-18zM799 -172q-19 0 -22 5.5t-3 21.5v30h-9v4h9v12q0 1 8 4v-16h11v-4
h-11v-31q0 -18 3 -19.5t6 -1.5q4 0 10 4zM862 -202h-1q0 84 -1 87l6 3l3 -3q5 5 14 5q13 0 18 -11q2 -6 2 -20q0 -25 -9 -29q-5 -3 -11 -3q-8 0 -13 4v-29q0 -1 -3 -2t-5 -2zM501 -172h-9v32q0 18 -3 21.5t-8 3.5q-10 0 -12 -14v-43h-9v26q0 24 -2.5 27.5t-8.5 3.5
q-9 0 -11 -10q-1 -3 -1 -26v-21h-9v58q0 1 3.5 2t5.5 2v-4q5 3 12 3q12 0 17 -7v-1q0 3 5.5 5.5t8.5 2.5q15 0 19 -10q2 -7 2 -34v-17zM572 -172h-9v58q1 1 9 4v-8q2 4 10 7h16q1 0 4 -10q-8 6 -15 6q-10 0 -14 -16q-1 -9 -1 -31v-10zM829 -201h-13l-3 10q8 -5 13 -5
q12 0 14 14l1 14q-5 -4 -13 -4q-14 0 -18 11q-3 6 -3 17v30l9 4v-31q0 -20 3.5 -23t7.5 -3q11 0 14 11v42q0 1 8 4v-61q0 -30 -20 -30zM1156 -172h-8v26q0 24 -3 27.5t-9 3.5q-8 0 -11 -10q-1 -4 -1 -25v-22h-8q-1 0 -1 34q0 17 -3 20t-8 3q-8 0 -11 -9q-1 -4 -1 -27v-21h-8
q-1 0 -1 58q0 1 9 4v-4q5 3 13 3q11 0 16 -6v-2q0 3 5 5.5t9 2.5q16 0 20 -12q1 -6 1 -34v-15zM949 -172h-15q-21 0 -21 25v11q0 26 22 26q20 0 20 -27q0 -2 -10 -4l-23 -5q0 -17 7 -20q3 -1 8 -1q7 0 15 5zM1052 -173q-22 0 -22 31q0 32 22 32q21 0 21 -31t-21 -32z
M133 -172h-4l-13 36l-12 -36h-4q-1 0 -2 5l-20 56h9l17 -46l10 28l-7 18h9q1 0 17 -46l17 46h5zM219 -172h-4q-1 1 -6.5 17.5t-6.5 17.5l-12 -35h-4q-1 1 -22 61h9l3 -7q12 -33 13 -39q1 0 9 24l2 4l-7 18h9l17 -46l17 46h5zM305 -172h-4l-13 36q-12 -36 -13 -36h-4l-21 61
h9l16 -46l10 28l-6 18h9q1 0 17 -46l17 46h5zM372 -173q-12 0 -16 13l-1 9q0 24 32 24q0 12 -13 12q-9 0 -14 -5l-2 -1q3 10 4 10h14q17 0 20 -16v-36q0 -5 3 -9h-8q-2 1 -3 5q-6 -6 -16 -6zM528 -173q-12 0 -16 12l-1 9q0 16 10 20.5t22 4.5q0 12 -13 12q-9 0 -15 -5l-1 -1
q2 10 3 10h15q20 0 20 -26q0 -32 2 -35h-7q-2 0 -3 6q-7 -7 -16 -7zM734 -173q-12 0 -16 12q-1 3 -1 9q0 16 9.5 20.5t22.5 4.5q-1 6 -3.5 9t-9.5 3q-9 0 -16 -6q2 10 3 10h15q14 0 18 -13q2 -5 2 -19q0 -25 2 -29h-8q-2 3 -2 6q-7 -7 -16 -7zM1019 -172h-14q-22 0 -22 31
q0 30 21 30h15q1 0 3 -10q-7 6 -14 6q-11 0 -13 -4.5t-2 -22.5q0 -20 3 -22.5t11 -2.5t15 5q-2 -10 -3 -10zM883 -168q7 0 9.5 6.5t2.5 23.5t-4 20t-9 3q-12 0 -12 -14v-25q0 -14 13 -14zM922 -140l24 4q0 21 -12 21t-12 -23v-2zM1052 -168q7 0 9.5 7t2.5 20q0 20 -4.5 23
t-7.5 3q-13 0 -13 -26q0 -21 4.5 -24t8.5 -3zM375 -166q8 0 13 7v27q-15 0 -19.5 -5.5t-4.5 -13.5q0 -15 10 -15h1zM530 -166q9 0 13 7v27q-15 0 -19 -5.5t-4 -13.5q0 -14 10 -15zM736 -166q9 0 13 7v27q-17 0 -22 -9q-2 -4 -2 -11q0 -14 11 -14zM343 -172h-1q-4 0 -6 4
q0 5 5 7q4 0 6 -5q0 -5 -4 -6zM971 -172h-2q-5 0 -5 5q0 4 5 6q4 0 5 -2.5t1 -3.5q0 -3 -4 -5z" />
    <glyph glyph-name="seven" unicode="7" horiz-adv-x="554" 
 />
    <glyph glyph-name="eight" unicode="8" horiz-adv-x="570" 
 />
    <glyph glyph-name="nine" unicode="9" horiz-adv-x="1213" 
d="M375 551q-22 0 -28 26q-3 14 -3 34q0 55 32 55q20 0 27 -21q4 -14 4 -40q0 -54 -32 -54zM939 551q-22 0 -28 24q-3 13 -3 34q0 46 18 54q5 3 13 3q22 0 28 -23q4 -13 4 -35q0 -45 -18 -54q-6 -3 -14 -3zM83 553h-10v111h33q30 0 30 -31q0 -21 -13 -27q-6 -3 -20 -3h-20
v-50zM199 553h-51v111h48l2 -6h-39v-43h31v-3v-3.5t-31 -0.5v-49h42q-1 -6 -2 -6zM281 553h-11q-1 0 -4 14q-11 38 -17 38h-24v-52h-10v111h32q29 0 29 -29q0 -25 -16 -28q9 -11 21 -54zM306 553h-8q-1 0 -3 12q6 -6 11 -6q13 0 13 18q0 13 -13 35q-9 17 -9 28q0 17 13 23
l7 1h10q1 0 3 -10v-1q-7 5 -11 5q-11 0 -11 -13t11 -32.5t11 -34.5q0 -17 -14 -23q-5 -2 -10 -2zM479 553h-8q-5 6 -44 94v-94h-6v56q0 55 1 55h9l41 -90h1v90h6v-111zM560 553h-11l-10 33h-33l-10 -33h-6l32 111h5q1 -1 4 -14zM625 553h-51v111h10v-105h42zM710 551
q-18 0 -24.5 13t-6.5 44v56h11v-62q0 -32 5 -38.5t16 -6.5q13 0 16.5 9t3.5 34v64h7v-49q0 -40 -4 -48q-6 -16 -24 -16zM761 553h-8l-3 12q6 -6 11 -6q11 0 13 15v4q0 12 -12 33q-10 18 -10 31q0 16 14 21q3 1 7 1h10l3 -11q-8 5 -12 5q-11 0 -11 -13t11 -33t11 -34
q0 -17 -14 -23q-4 -2 -10 -2zM854 553h-51q-1 0 -1 56q0 55 1 55h47q1 0 2 -6h-39v-43h31v0q1 -1 1 -3q0 -3 -0.5 -3.5t-31.5 -0.5v-49h42zM1042 553h-8l-43 94v-94h-6v111h10l41 -90v90h6v-111zM1107 553h-50q-1 0 -1 56l1 55h10v-105h42q0 -6 -2 -6zM1134 553h-11v56
l-27 55h11q1 0 24 -47l23 47h7l-27 -54v-57zM376 557q12 0 16 9.5t4 42.5q0 36 -5 43.5t-15 7.5q-14 0 -17.5 -11.5t-3.5 -39.5q0 -34 4.5 -43t16.5 -9zM940 557q12 0 16 11t4 41q0 39 -6 45t-15 6q-12 0 -16 -10t-4 -41q0 -38 5 -45t16 -7zM105 609q12 0 15.5 6t3.5 18
q0 19 -8 23q-3 2 -15 2h-18v-49h22zM242 612q15 0 18.5 4.5t3.5 18.5q0 17 -5 20t-17 3h-17v-46h17zM537 592l-15 51l-14 -51h29zM638 134q-2 0 -9 5q-9 4 -11.5 10.5t-2.5 25.5q0 84 63 263q0 1 -23 1q-115 0 -137 -47q-6 9 -6 23q0 31 33 40t100 9q29 0 33 2q11 0 17 8
l3 1q6 0 9 -13l6 -12q1 0 2 -2l-7 -15q-42 -92 -57 -175q-2 -11 -2 -17q43 128 75 128q13 0 19 -15q1 -5 1 -13q0 -24 -15 -60q-6 -11 -16 -23.5t-16 -16.5t-14 -7q-3 -1 -3 -2q0 -2 9 -11q5 -3 10 -3q10 0 26 17q25 30 26 42q4 20 12 51q18 68 46 138q4 12 7 15t5 4h3
q3 -2 5 -7q3 -11 8 -18l1 -2q0 -2 -7 -16q-43 -91 -59 -181l-2 -21q1 0 4 9q41 100 74 100l12 -1q10 0 11 -6q0 -4 -7 -18q-27 -53 -27 -100q0 -38 30 -59q15 -9 32 -9q-7 -15 -34 -15q-38 0 -53 38q-4 11 -4 25q0 37 16 94l3 11q-53 -106 -65 -149q-4 -10 -7 -10l-7 5
q-7 3 -8.5 6t-1.5 15q0 18 2 44q-29 -25 -46 -25q-10 0 -17 10q-10 12 -14 19q-1 0 -3 -7q-6 -19 -14 -65q-5 -18 -8 -18zM984 324q-10 4 -10 16q0 10 12 37l9 22q-16 -23 -20 -23q-3 0 -7 10v2q-10 -12 -14 -12q-3 0 -9 11l-1 8q0 7 7 25l10 29q0 1 -1 1q-17 -1 -23 -15v-1
q-7 3 -7 10q0 10 22 14q13 2 13.5 2.5t1.5 5.5q2 8 3.5 11t5 3.5t11.5 3.5q1 0 2 -2l-8 -20q0 -1 4 -1q29 0 54 -7q10 -4 10 -8q0 -2 -1 -2q-3 2 -14 5q-17 4 -37 4q-4 0 -8 -0.5t-9.5 -0.5t-22.5 -49l-3 -8q1 -3 3 -3t7 5q10 10 17 19q3 5 13 9q-2 -6 -11 -21l-4 -11
q3 0 6 6q24 31 27 31q5 -1 5 -3q-14 -30 -26 -62q-8 -26 -8 -34zM378 -12h-6q-63 0 -97.5 40t-34.5 100q0 49 18 109q11 32 23 56l9 18q-2 1 -40 1q-76 0 -100 -28l-7 -11q-4 11 -4 21q0 28 28 39q16 6 55 6l80 -3q3 0 7 7q13 20 31 42q54 61 89 61q17 0 17 -16
q-9 -72 -71 -103q-20 -9 -22 -9q-8 -3 -22.5 -5t-16 -4.5t-12.5 -31.5q-35 -91 -35 -149q0 -54 41 -87q29 -22 63 -22q53 0 155 32l109 34q114 38 182 38q84 0 130 -46q16 -16 16 -25l-1 -1q-44 39 -135 39q-93 0 -230 -47l-104 -34q-72 -21 -115 -21zM1058 382q-8 0 -13 7
v4q0 15 8 29l4 2q6 0 7 -8q0 -14 -12 -23v-2q1 -3 3 -3q5 2 9 9.5t4 16.5q0 6 -2 17v1q7 0 9 -16l1 -6q0 -14 -11 -25q-4 -3 -7 -3zM993 326q-5 3 -5 8q1 12 25 72q9 21 12 21q6 -1 6 -4l-5 -9q-6 -12 -11 -26l21 37q5 0 6 -18q0 -24 -11 -25q-3 0 -8 4q-1 0 -5 -8
q-17 -31 -23 -49zM334 337q24 0 50 19q14 12 21 21q16 24 17 42l1 5q-22 -13 -48 -34q-32 -30 -46 -52v-1h5zM1054 402q5 5 5 12h-1q-4 -7 -4 -12zM1024 389q11 0 11 15q0 5 -1 5zM605 104q-19 0 -32 15q-9 12 -9 25q0 20 21 112l16 67q1 4 5 9q-16 -6 -42 -13q-1 0 -1 -2
v-17q0 -38 -11 -90q-15 -53 -30 -53q-4 0 -9.5 6.5t-10.5 9t-8.5 12.5t-3.5 46q-19 -76 -33 -76q-4 0 -8 6q-1 1 -7 3.5t-8.5 11.5t-2.5 18q0 26 10 59q7 20 17 35q15 23 26 23q10 0 15 -19q5 9 10.5 14.5t10.5 5.5q7 0 11 -3q0 -2 -5.5 -10.5t-9.5 -21.5q-9 -29 -9 -56
q0 -22 6 -33q2 -4 3 -4q5 3 11 23q15 47 15 92q0 25 -7 27q-20 8 -20 26q0 13 14 20q4 2 8 2q16 0 22 -31q1 -5 3 -5l30 8q13 5 14.5 5.5t7 6t9.5 5.5q9 0 10 -12q0 -3 -5 -20q-33 -112 -33 -166q0 -30 13 -60zM976 124q-25 0 -45.5 22.5t-20.5 71.5q0 20 7 41v4
q-29 -78 -39 -78q-4 0 -7 6t-9 8q-3 0 -6 4q-4 7 -4 18q0 18 9 52q8 27 18 44q19 36 36 36q11 0 16 -22q15 35 26 35q6 0 6 -11q0 -13 -14 -61q-17 -59 -17 -98q0 -37 16 -55q9 -7 19 -7q13 0 29 12q35 30 35 107q0 28 -4 53q-3 9 -6 9q-4 0 -14 -22q-17 -39 -17 -71
q0 -18 7 -29q1 -2 2 -2q-6 -3 -10 -3q-13 0 -18 28q-2 8 -5 12q-3 8 -3 17q0 18 16 46q5 7 15.5 19t15.5 14q10 6 20 6q37 0 37 -52q0 -29 -11 -67q-7 -21 -16 -38q-29 -49 -64 -49zM676 255q4 1 12 9t13 18q12 20 22 62q-12 -12 -32 -51q-16 -32 -16 -38h1zM876 212
q8 14 48 106q0 9 -6 17l-1 1q-2 0 -9 -12q-22 -37 -31 -82l-2 -20zM358 70q-5 0 -11 5q-14 14 -14 55q0 31 10 77v1q-15 -39 -22 -62l-2 -8h-1q-6 0 -14 5q-12 8 -12 28q0 26 21 87q14 37 19 37q18 -2 18 -6q0 -2 -8 -19q-27 -66 -27 -89q32 77 55 115q7 11 11 11t12 -5
l2 -2l-9 -21q-10 -24 -19 -59q-11 -42 -11 -68l1 -1q29 98 52 149q12 22 18 22l14 -3q4 -1 4 -4l-7 -24q-14 -41 -26 -100q-5 -28 -5 -51q0 -21 8 -21q3 0 25 7q39 13 59 13q26 0 38 -15q-7 -1 -32.5 -5.5t-41.5 -10t-33 -14.5q-5 -2 -10 -2q-10 0 -18 13l-8 8
q-11 10 -11 32q0 16 12 66l3 16h-1q-15 -40 -28 -90q-10 -41 -10 -61v-4q0 -2 -1 -2zM235 43q-19 0 -31 17q-9 14 -9 37t6 75v1q-1 0 -7 -13q-14 -30 -25 -48q-5 -8 -10 -8q-4 0 -7.5 6.5t-10 8.5t-6.5 19t12 52q9 24 20 42q21 36 39 36q10 0 14 -17q13 28 16 32q6 8 12 12
t8 4q4 0 5 -7q0 -13 -18 -56q-20 -54 -20 -96q0 -56 19 -93l1 -2q0 -2 -8 -2zM456 177q2 0 7 17q26 74 26 80t-5 14h-2q-11 -3 -24 -55q-5 -19 -7 -40v-2q1 -14 5 -14zM158 131q4 4 8 12l45 86q2 3 2 7q0 5 -4 14l-1 1q-2 0 -9 -9q-17 -24 -30 -58q-10 -28 -11 -48v-5z
M418 -172h-9v86l9 4v-90zM657 -172h-10l-25 35l-3 -3v-32h-8v86q0 1 8 4v-51l25 22h7l-22 -20zM707 -172h-9v34q0 17 -4 20t-8 3q-9 0 -12 -11v-46h-9v86q0 1 9 4v-33q5 4 12 4q15 0 19 -13q2 -6 2 -30v-18zM799 -172q-19 0 -22 5.5t-3 21.5v30h-9v4h9v12q0 1 8 4v-16h11v-4
h-11v-31q0 -18 3 -19.5t6 -1.5q4 0 10 4zM862 -202h-1q0 84 -1 87l6 3l3 -3q5 5 14 5q13 0 18 -11q2 -6 2 -20q0 -25 -9 -29q-5 -3 -11 -3q-8 0 -13 4v-29q0 -1 -3 -2t-5 -2zM501 -172h-9v32q0 18 -3 21.5t-8 3.5q-10 0 -12 -14v-43h-9v26q0 24 -2.5 27.5t-8.5 3.5
q-9 0 -11 -10q-1 -3 -1 -26v-21h-9v58q0 1 3.5 2t5.5 2v-4q5 3 12 3q12 0 17 -7v-1q0 3 5.5 5.5t8.5 2.5q15 0 19 -10q2 -7 2 -34v-17zM572 -172h-9v58q1 1 9 4v-8q2 4 10 7h16q1 0 4 -10q-8 6 -15 6q-10 0 -14 -16q-1 -9 -1 -31v-10zM829 -201h-13l-3 10q8 -5 13 -5
q12 0 14 14l1 14q-5 -4 -13 -4q-14 0 -18 11q-3 6 -3 17v30l9 4v-31q0 -20 3.5 -23t7.5 -3q11 0 14 11v42q0 1 8 4v-61q0 -30 -20 -30zM1156 -172h-8v26q0 24 -3 27.5t-9 3.5q-8 0 -11 -10q-1 -4 -1 -25v-22h-8q-1 0 -1 34q0 17 -3 20t-8 3q-8 0 -11 -9q-1 -4 -1 -27v-21h-8
q-1 0 -1 58q0 1 9 4v-4q5 3 13 3q11 0 16 -6v-2q0 3 5 5.5t9 2.5q16 0 20 -12q1 -6 1 -34v-15zM949 -172h-15q-21 0 -21 25v11q0 26 22 26q20 0 20 -27q0 -2 -10 -4l-23 -5q0 -17 7 -20q3 -1 8 -1q7 0 15 5zM1052 -173q-22 0 -22 31q0 32 22 32q21 0 21 -31t-21 -32z
M133 -172h-4l-13 36l-12 -36h-4q-1 0 -2 5l-20 56h9l17 -46l10 28l-7 18h9q1 0 17 -46l17 46h5zM219 -172h-4q-1 1 -6.5 17.5t-6.5 17.5l-12 -35h-4q-1 1 -22 61h9l3 -7q12 -33 13 -39q1 0 9 24l2 4l-7 18h9l17 -46l17 46h5zM305 -172h-4l-13 36q-12 -36 -13 -36h-4l-21 61
h9l16 -46l10 28l-6 18h9q1 0 17 -46l17 46h5zM372 -173q-12 0 -16 13l-1 9q0 24 32 24q0 12 -13 12q-9 0 -14 -5l-2 -1q3 10 4 10h14q17 0 20 -16v-36q0 -5 3 -9h-8q-2 1 -3 5q-6 -6 -16 -6zM528 -173q-12 0 -16 12l-1 9q0 16 10 20.5t22 4.5q0 12 -13 12q-9 0 -15 -5l-1 -1
q2 10 3 10h15q20 0 20 -26q0 -32 2 -35h-7q-2 0 -3 6q-7 -7 -16 -7zM734 -173q-12 0 -16 12q-1 3 -1 9q0 16 9.5 20.5t22.5 4.5q-1 6 -3.5 9t-9.5 3q-9 0 -16 -6q2 10 3 10h15q14 0 18 -13q2 -5 2 -19q0 -25 2 -29h-8q-2 3 -2 6q-7 -7 -16 -7zM1019 -172h-14q-22 0 -22 31
q0 30 21 30h15q1 0 3 -10q-7 6 -14 6q-11 0 -13 -4.5t-2 -22.5q0 -20 3 -22.5t11 -2.5t15 5q-2 -10 -3 -10zM883 -168q7 0 9.5 6.5t2.5 23.5t-4 20t-9 3q-12 0 -12 -14v-25q0 -14 13 -14zM922 -140l24 4q0 21 -12 21t-12 -23v-2zM1052 -168q7 0 9.5 7t2.5 20q0 20 -4.5 23
t-7.5 3q-13 0 -13 -26q0 -21 4.5 -24t8.5 -3zM375 -166q8 0 13 7v27q-15 0 -19.5 -5.5t-4.5 -13.5q0 -15 10 -15h1zM530 -166q9 0 13 7v27q-15 0 -19 -5.5t-4 -13.5q0 -14 10 -15zM736 -166q9 0 13 7v27q-17 0 -22 -9q-2 -4 -2 -11q0 -14 11 -14zM343 -172h-1q-4 0 -6 4
q0 5 5 7q4 0 6 -5q0 -5 -4 -6zM971 -172h-2q-5 0 -5 5q0 4 5 6q4 0 5 -2.5t1 -3.5q0 -3 -4 -5z" />
    <glyph glyph-name="colon" unicode=":" horiz-adv-x="180" 
d="M92 118q-16 0 -28 11.5t-12 28.5t12 28.5t28 11.5q17 0 28.5 -11.5t11.5 -28.5t-11.5 -28.5t-28.5 -11.5zM92 504q-16 0 -28 11.5t-12 28.5t12 28.5t28 11.5q17 0 28.5 -11.5t11.5 -28.5t-11.5 -28.5t-28.5 -11.5z" />
    <glyph glyph-name="semicolon" unicode=";" horiz-adv-x="180" 
d="M90 518q-16 0 -28 11.5t-12 28.5t12 28.5t28 11.5q17 0 28.5 -11.5t11.5 -28.5t-11.5 -28.5t-28.5 -11.5zM89 100h-37l32 80q-14 3 -23 14t-9 26q0 17 12 28.5t28 11.5q17 0 28.5 -11.5t11.5 -28.5q0 -22 -13 -46z" />
    <glyph glyph-name="semicolon" unicode="&#x37e;" horiz-adv-x="180" 
d="M90 518q-16 0 -28 11.5t-12 28.5t12 28.5t28 11.5q17 0 28.5 -11.5t11.5 -28.5t-11.5 -28.5t-28.5 -11.5zM89 100h-37l32 80q-14 3 -23 14t-9 26q0 17 12 28.5t28 11.5q17 0 28.5 -11.5t11.5 -28.5q0 -22 -13 -46z" />
    <glyph glyph-name="less" unicode="&#x3c;" horiz-adv-x="519" 
d="M462 153l-419 168v39l419 167v-44l-358 -143l358 -143v-44z" />
    <glyph glyph-name="equal" unicode="=" horiz-adv-x="580" 
d="M523 230h-480v40h480v-40zM523 430h-480v40h480v-40z" />
    <glyph glyph-name="greater" unicode="&#x3e;" horiz-adv-x="519" 
d="M43 153v44l358 143l-358 143v44l419 -167v-39z" />
    <glyph glyph-name="question" unicode="?" horiz-adv-x="1213" 
d="M375 551q-22 0 -28 26q-3 14 -3 34q0 55 32 55q20 0 27 -21q4 -14 4 -40q0 -54 -32 -54zM939 551q-22 0 -28 24q-3 13 -3 34q0 46 18 54q5 3 13 3q22 0 28 -23q4 -13 4 -35q0 -45 -18 -54q-6 -3 -14 -3zM83 553h-10v111h33q30 0 30 -31q0 -21 -13 -27q-6 -3 -20 -3h-20
v-50zM199 553h-51v111h48l2 -6h-39v-43h31v-3v-3.5t-31 -0.5v-49h42q-1 -6 -2 -6zM281 553h-11q-1 0 -4 14q-11 38 -17 38h-24v-52h-10v111h32q29 0 29 -29q0 -25 -16 -28q9 -11 21 -54zM306 553h-8q-1 0 -3 12q6 -6 11 -6q13 0 13 18q0 13 -13 35q-9 17 -9 28q0 17 13 23
l7 1h10q1 0 3 -10v-1q-7 5 -11 5q-11 0 -11 -13t11 -32.5t11 -34.5q0 -17 -14 -23q-5 -2 -10 -2zM479 553h-8q-5 6 -44 94v-94h-6v56q0 55 1 55h9l41 -90h1v90h6v-111zM560 553h-11l-10 33h-33l-10 -33h-6l32 111h5q1 -1 4 -14zM625 553h-51v111h10v-105h42zM710 551
q-18 0 -24.5 13t-6.5 44v56h11v-62q0 -32 5 -38.5t16 -6.5q13 0 16.5 9t3.5 34v64h7v-49q0 -40 -4 -48q-6 -16 -24 -16zM761 553h-8l-3 12q6 -6 11 -6q11 0 13 15v4q0 12 -12 33q-10 18 -10 31q0 16 14 21q3 1 7 1h10l3 -11q-8 5 -12 5q-11 0 -11 -13t11 -33t11 -34
q0 -17 -14 -23q-4 -2 -10 -2zM854 553h-51q-1 0 -1 56q0 55 1 55h47q1 0 2 -6h-39v-43h31v0q1 -1 1 -3q0 -3 -0.5 -3.5t-31.5 -0.5v-49h42zM1042 553h-8l-43 94v-94h-6v111h10l41 -90v90h6v-111zM1107 553h-50q-1 0 -1 56l1 55h10v-105h42q0 -6 -2 -6zM1134 553h-11v56
l-27 55h11q1 0 24 -47l23 47h7l-27 -54v-57zM376 557q12 0 16 9.5t4 42.5q0 36 -5 43.5t-15 7.5q-14 0 -17.5 -11.5t-3.5 -39.5q0 -34 4.5 -43t16.5 -9zM940 557q12 0 16 11t4 41q0 39 -6 45t-15 6q-12 0 -16 -10t-4 -41q0 -38 5 -45t16 -7zM105 609q12 0 15.5 6t3.5 18
q0 19 -8 23q-3 2 -15 2h-18v-49h22zM242 612q15 0 18.5 4.5t3.5 18.5q0 17 -5 20t-17 3h-17v-46h17zM537 592l-15 51l-14 -51h29zM638 134q-2 0 -9 5q-9 4 -11.5 10.5t-2.5 25.5q0 84 63 263q0 1 -23 1q-115 0 -137 -47q-6 9 -6 23q0 31 33 40t100 9q29 0 33 2q11 0 17 8
l3 1q6 0 9 -13l6 -12q1 0 2 -2l-7 -15q-42 -92 -57 -175q-2 -11 -2 -17q43 128 75 128q13 0 19 -15q1 -5 1 -13q0 -24 -15 -60q-6 -11 -16 -23.5t-16 -16.5t-14 -7q-3 -1 -3 -2q0 -2 9 -11q5 -3 10 -3q10 0 26 17q25 30 26 42q4 20 12 51q18 68 46 138q4 12 7 15t5 4h3
q3 -2 5 -7q3 -11 8 -18l1 -2q0 -2 -7 -16q-43 -91 -59 -181l-2 -21q1 0 4 9q41 100 74 100l12 -1q10 0 11 -6q0 -4 -7 -18q-27 -53 -27 -100q0 -38 30 -59q15 -9 32 -9q-7 -15 -34 -15q-38 0 -53 38q-4 11 -4 25q0 37 16 94l3 11q-53 -106 -65 -149q-4 -10 -7 -10l-7 5
q-7 3 -8.5 6t-1.5 15q0 18 2 44q-29 -25 -46 -25q-10 0 -17 10q-10 12 -14 19q-1 0 -3 -7q-6 -19 -14 -65q-5 -18 -8 -18zM984 324q-10 4 -10 16q0 10 12 37l9 22q-16 -23 -20 -23q-3 0 -7 10v2q-10 -12 -14 -12q-3 0 -9 11l-1 8q0 7 7 25l10 29q0 1 -1 1q-17 -1 -23 -15v-1
q-7 3 -7 10q0 10 22 14q13 2 13.5 2.5t1.5 5.5q2 8 3.5 11t5 3.5t11.5 3.5q1 0 2 -2l-8 -20q0 -1 4 -1q29 0 54 -7q10 -4 10 -8q0 -2 -1 -2q-3 2 -14 5q-17 4 -37 4q-4 0 -8 -0.5t-9.5 -0.5t-22.5 -49l-3 -8q1 -3 3 -3t7 5q10 10 17 19q3 5 13 9q-2 -6 -11 -21l-4 -11
q3 0 6 6q24 31 27 31q5 -1 5 -3q-14 -30 -26 -62q-8 -26 -8 -34zM378 -12h-6q-63 0 -97.5 40t-34.5 100q0 49 18 109q11 32 23 56l9 18q-2 1 -40 1q-76 0 -100 -28l-7 -11q-4 11 -4 21q0 28 28 39q16 6 55 6l80 -3q3 0 7 7q13 20 31 42q54 61 89 61q17 0 17 -16
q-9 -72 -71 -103q-20 -9 -22 -9q-8 -3 -22.5 -5t-16 -4.5t-12.5 -31.5q-35 -91 -35 -149q0 -54 41 -87q29 -22 63 -22q53 0 155 32l109 34q114 38 182 38q84 0 130 -46q16 -16 16 -25l-1 -1q-44 39 -135 39q-93 0 -230 -47l-104 -34q-72 -21 -115 -21zM1058 382q-8 0 -13 7
v4q0 15 8 29l4 2q6 0 7 -8q0 -14 -12 -23v-2q1 -3 3 -3q5 2 9 9.5t4 16.5q0 6 -2 17v1q7 0 9 -16l1 -6q0 -14 -11 -25q-4 -3 -7 -3zM993 326q-5 3 -5 8q1 12 25 72q9 21 12 21q6 -1 6 -4l-5 -9q-6 -12 -11 -26l21 37q5 0 6 -18q0 -24 -11 -25q-3 0 -8 4q-1 0 -5 -8
q-17 -31 -23 -49zM334 337q24 0 50 19q14 12 21 21q16 24 17 42l1 5q-22 -13 -48 -34q-32 -30 -46 -52v-1h5zM1054 402q5 5 5 12h-1q-4 -7 -4 -12zM1024 389q11 0 11 15q0 5 -1 5zM605 104q-19 0 -32 15q-9 12 -9 25q0 20 21 112l16 67q1 4 5 9q-16 -6 -42 -13q-1 0 -1 -2
v-17q0 -38 -11 -90q-15 -53 -30 -53q-4 0 -9.5 6.5t-10.5 9t-8.5 12.5t-3.5 46q-19 -76 -33 -76q-4 0 -8 6q-1 1 -7 3.5t-8.5 11.5t-2.5 18q0 26 10 59q7 20 17 35q15 23 26 23q10 0 15 -19q5 9 10.5 14.5t10.5 5.5q7 0 11 -3q0 -2 -5.5 -10.5t-9.5 -21.5q-9 -29 -9 -56
q0 -22 6 -33q2 -4 3 -4q5 3 11 23q15 47 15 92q0 25 -7 27q-20 8 -20 26q0 13 14 20q4 2 8 2q16 0 22 -31q1 -5 3 -5l30 8q13 5 14.5 5.5t7 6t9.5 5.5q9 0 10 -12q0 -3 -5 -20q-33 -112 -33 -166q0 -30 13 -60zM976 124q-25 0 -45.5 22.5t-20.5 71.5q0 20 7 41v4
q-29 -78 -39 -78q-4 0 -7 6t-9 8q-3 0 -6 4q-4 7 -4 18q0 18 9 52q8 27 18 44q19 36 36 36q11 0 16 -22q15 35 26 35q6 0 6 -11q0 -13 -14 -61q-17 -59 -17 -98q0 -37 16 -55q9 -7 19 -7q13 0 29 12q35 30 35 107q0 28 -4 53q-3 9 -6 9q-4 0 -14 -22q-17 -39 -17 -71
q0 -18 7 -29q1 -2 2 -2q-6 -3 -10 -3q-13 0 -18 28q-2 8 -5 12q-3 8 -3 17q0 18 16 46q5 7 15.5 19t15.5 14q10 6 20 6q37 0 37 -52q0 -29 -11 -67q-7 -21 -16 -38q-29 -49 -64 -49zM676 255q4 1 12 9t13 18q12 20 22 62q-12 -12 -32 -51q-16 -32 -16 -38h1zM876 212
q8 14 48 106q0 9 -6 17l-1 1q-2 0 -9 -12q-22 -37 -31 -82l-2 -20zM358 70q-5 0 -11 5q-14 14 -14 55q0 31 10 77v1q-15 -39 -22 -62l-2 -8h-1q-6 0 -14 5q-12 8 -12 28q0 26 21 87q14 37 19 37q18 -2 18 -6q0 -2 -8 -19q-27 -66 -27 -89q32 77 55 115q7 11 11 11t12 -5
l2 -2l-9 -21q-10 -24 -19 -59q-11 -42 -11 -68l1 -1q29 98 52 149q12 22 18 22l14 -3q4 -1 4 -4l-7 -24q-14 -41 -26 -100q-5 -28 -5 -51q0 -21 8 -21q3 0 25 7q39 13 59 13q26 0 38 -15q-7 -1 -32.5 -5.5t-41.5 -10t-33 -14.5q-5 -2 -10 -2q-10 0 -18 13l-8 8
q-11 10 -11 32q0 16 12 66l3 16h-1q-15 -40 -28 -90q-10 -41 -10 -61v-4q0 -2 -1 -2zM235 43q-19 0 -31 17q-9 14 -9 37t6 75v1q-1 0 -7 -13q-14 -30 -25 -48q-5 -8 -10 -8q-4 0 -7.5 6.5t-10 8.5t-6.5 19t12 52q9 24 20 42q21 36 39 36q10 0 14 -17q13 28 16 32q6 8 12 12
t8 4q4 0 5 -7q0 -13 -18 -56q-20 -54 -20 -96q0 -56 19 -93l1 -2q0 -2 -8 -2zM456 177q2 0 7 17q26 74 26 80t-5 14h-2q-11 -3 -24 -55q-5 -19 -7 -40v-2q1 -14 5 -14zM158 131q4 4 8 12l45 86q2 3 2 7q0 5 -4 14l-1 1q-2 0 -9 -9q-17 -24 -30 -58q-10 -28 -11 -48v-5z
M418 -172h-9v86l9 4v-90zM657 -172h-10l-25 35l-3 -3v-32h-8v86q0 1 8 4v-51l25 22h7l-22 -20zM707 -172h-9v34q0 17 -4 20t-8 3q-9 0 -12 -11v-46h-9v86q0 1 9 4v-33q5 4 12 4q15 0 19 -13q2 -6 2 -30v-18zM799 -172q-19 0 -22 5.5t-3 21.5v30h-9v4h9v12q0 1 8 4v-16h11v-4
h-11v-31q0 -18 3 -19.5t6 -1.5q4 0 10 4zM862 -202h-1q0 84 -1 87l6 3l3 -3q5 5 14 5q13 0 18 -11q2 -6 2 -20q0 -25 -9 -29q-5 -3 -11 -3q-8 0 -13 4v-29q0 -1 -3 -2t-5 -2zM501 -172h-9v32q0 18 -3 21.5t-8 3.5q-10 0 -12 -14v-43h-9v26q0 24 -2.5 27.5t-8.5 3.5
q-9 0 -11 -10q-1 -3 -1 -26v-21h-9v58q0 1 3.5 2t5.5 2v-4q5 3 12 3q12 0 17 -7v-1q0 3 5.5 5.5t8.5 2.5q15 0 19 -10q2 -7 2 -34v-17zM572 -172h-9v58q1 1 9 4v-8q2 4 10 7h16q1 0 4 -10q-8 6 -15 6q-10 0 -14 -16q-1 -9 -1 -31v-10zM829 -201h-13l-3 10q8 -5 13 -5
q12 0 14 14l1 14q-5 -4 -13 -4q-14 0 -18 11q-3 6 -3 17v30l9 4v-31q0 -20 3.5 -23t7.5 -3q11 0 14 11v42q0 1 8 4v-61q0 -30 -20 -30zM1156 -172h-8v26q0 24 -3 27.5t-9 3.5q-8 0 -11 -10q-1 -4 -1 -25v-22h-8q-1 0 -1 34q0 17 -3 20t-8 3q-8 0 -11 -9q-1 -4 -1 -27v-21h-8
q-1 0 -1 58q0 1 9 4v-4q5 3 13 3q11 0 16 -6v-2q0 3 5 5.5t9 2.5q16 0 20 -12q1 -6 1 -34v-15zM949 -172h-15q-21 0 -21 25v11q0 26 22 26q20 0 20 -27q0 -2 -10 -4l-23 -5q0 -17 7 -20q3 -1 8 -1q7 0 15 5zM1052 -173q-22 0 -22 31q0 32 22 32q21 0 21 -31t-21 -32z
M133 -172h-4l-13 36l-12 -36h-4q-1 0 -2 5l-20 56h9l17 -46l10 28l-7 18h9q1 0 17 -46l17 46h5zM219 -172h-4q-1 1 -6.5 17.5t-6.5 17.5l-12 -35h-4q-1 1 -22 61h9l3 -7q12 -33 13 -39q1 0 9 24l2 4l-7 18h9l17 -46l17 46h5zM305 -172h-4l-13 36q-12 -36 -13 -36h-4l-21 61
h9l16 -46l10 28l-6 18h9q1 0 17 -46l17 46h5zM372 -173q-12 0 -16 13l-1 9q0 24 32 24q0 12 -13 12q-9 0 -14 -5l-2 -1q3 10 4 10h14q17 0 20 -16v-36q0 -5 3 -9h-8q-2 1 -3 5q-6 -6 -16 -6zM528 -173q-12 0 -16 12l-1 9q0 16 10 20.5t22 4.5q0 12 -13 12q-9 0 -15 -5l-1 -1
q2 10 3 10h15q20 0 20 -26q0 -32 2 -35h-7q-2 0 -3 6q-7 -7 -16 -7zM734 -173q-12 0 -16 12q-1 3 -1 9q0 16 9.5 20.5t22.5 4.5q-1 6 -3.5 9t-9.5 3q-9 0 -16 -6q2 10 3 10h15q14 0 18 -13q2 -5 2 -19q0 -25 2 -29h-8q-2 3 -2 6q-7 -7 -16 -7zM1019 -172h-14q-22 0 -22 31
q0 30 21 30h15q1 0 3 -10q-7 6 -14 6q-11 0 -13 -4.5t-2 -22.5q0 -20 3 -22.5t11 -2.5t15 5q-2 -10 -3 -10zM883 -168q7 0 9.5 6.5t2.5 23.5t-4 20t-9 3q-12 0 -12 -14v-25q0 -14 13 -14zM922 -140l24 4q0 21 -12 21t-12 -23v-2zM1052 -168q7 0 9.5 7t2.5 20q0 20 -4.5 23
t-7.5 3q-13 0 -13 -26q0 -21 4.5 -24t8.5 -3zM375 -166q8 0 13 7v27q-15 0 -19.5 -5.5t-4.5 -13.5q0 -15 10 -15h1zM530 -166q9 0 13 7v27q-15 0 -19 -5.5t-4 -13.5q0 -14 10 -15zM736 -166q9 0 13 7v27q-17 0 -22 -9q-2 -4 -2 -11q0 -14 11 -14zM343 -172h-1q-4 0 -6 4
q0 5 5 7q4 0 6 -5q0 -5 -4 -6zM971 -172h-2q-5 0 -5 5q0 4 5 6q4 0 5 -2.5t1 -3.5q0 -3 -4 -5z" />
    <glyph glyph-name="at" unicode="@" horiz-adv-x="1213" 
d="M375 551q-22 0 -28 26q-3 14 -3 34q0 55 32 55q20 0 27 -21q4 -14 4 -40q0 -54 -32 -54zM939 551q-22 0 -28 24q-3 13 -3 34q0 46 18 54q5 3 13 3q22 0 28 -23q4 -13 4 -35q0 -45 -18 -54q-6 -3 -14 -3zM83 553h-10v111h33q30 0 30 -31q0 -21 -13 -27q-6 -3 -20 -3h-20
v-50zM199 553h-51v111h48l2 -6h-39v-43h31v-3v-3.5t-31 -0.5v-49h42q-1 -6 -2 -6zM281 553h-11q-1 0 -4 14q-11 38 -17 38h-24v-52h-10v111h32q29 0 29 -29q0 -25 -16 -28q9 -11 21 -54zM306 553h-8q-1 0 -3 12q6 -6 11 -6q13 0 13 18q0 13 -13 35q-9 17 -9 28q0 17 13 23
l7 1h10q1 0 3 -10v-1q-7 5 -11 5q-11 0 -11 -13t11 -32.5t11 -34.5q0 -17 -14 -23q-5 -2 -10 -2zM479 553h-8q-5 6 -44 94v-94h-6v56q0 55 1 55h9l41 -90h1v90h6v-111zM560 553h-11l-10 33h-33l-10 -33h-6l32 111h5q1 -1 4 -14zM625 553h-51v111h10v-105h42zM710 551
q-18 0 -24.5 13t-6.5 44v56h11v-62q0 -32 5 -38.5t16 -6.5q13 0 16.5 9t3.5 34v64h7v-49q0 -40 -4 -48q-6 -16 -24 -16zM761 553h-8l-3 12q6 -6 11 -6q11 0 13 15v4q0 12 -12 33q-10 18 -10 31q0 16 14 21q3 1 7 1h10l3 -11q-8 5 -12 5q-11 0 -11 -13t11 -33t11 -34
q0 -17 -14 -23q-4 -2 -10 -2zM854 553h-51q-1 0 -1 56q0 55 1 55h47q1 0 2 -6h-39v-43h31v0q1 -1 1 -3q0 -3 -0.5 -3.5t-31.5 -0.5v-49h42zM1042 553h-8l-43 94v-94h-6v111h10l41 -90v90h6v-111zM1107 553h-50q-1 0 -1 56l1 55h10v-105h42q0 -6 -2 -6zM1134 553h-11v56
l-27 55h11q1 0 24 -47l23 47h7l-27 -54v-57zM376 557q12 0 16 9.5t4 42.5q0 36 -5 43.5t-15 7.5q-14 0 -17.5 -11.5t-3.5 -39.5q0 -34 4.5 -43t16.5 -9zM940 557q12 0 16 11t4 41q0 39 -6 45t-15 6q-12 0 -16 -10t-4 -41q0 -38 5 -45t16 -7zM105 609q12 0 15.5 6t3.5 18
q0 19 -8 23q-3 2 -15 2h-18v-49h22zM242 612q15 0 18.5 4.5t3.5 18.5q0 17 -5 20t-17 3h-17v-46h17zM537 592l-15 51l-14 -51h29zM638 134q-2 0 -9 5q-9 4 -11.5 10.5t-2.5 25.5q0 84 63 263q0 1 -23 1q-115 0 -137 -47q-6 9 -6 23q0 31 33 40t100 9q29 0 33 2q11 0 17 8
l3 1q6 0 9 -13l6 -12q1 0 2 -2l-7 -15q-42 -92 -57 -175q-2 -11 -2 -17q43 128 75 128q13 0 19 -15q1 -5 1 -13q0 -24 -15 -60q-6 -11 -16 -23.5t-16 -16.5t-14 -7q-3 -1 -3 -2q0 -2 9 -11q5 -3 10 -3q10 0 26 17q25 30 26 42q4 20 12 51q18 68 46 138q4 12 7 15t5 4h3
q3 -2 5 -7q3 -11 8 -18l1 -2q0 -2 -7 -16q-43 -91 -59 -181l-2 -21q1 0 4 9q41 100 74 100l12 -1q10 0 11 -6q0 -4 -7 -18q-27 -53 -27 -100q0 -38 30 -59q15 -9 32 -9q-7 -15 -34 -15q-38 0 -53 38q-4 11 -4 25q0 37 16 94l3 11q-53 -106 -65 -149q-4 -10 -7 -10l-7 5
q-7 3 -8.5 6t-1.5 15q0 18 2 44q-29 -25 -46 -25q-10 0 -17 10q-10 12 -14 19q-1 0 -3 -7q-6 -19 -14 -65q-5 -18 -8 -18zM984 324q-10 4 -10 16q0 10 12 37l9 22q-16 -23 -20 -23q-3 0 -7 10v2q-10 -12 -14 -12q-3 0 -9 11l-1 8q0 7 7 25l10 29q0 1 -1 1q-17 -1 -23 -15v-1
q-7 3 -7 10q0 10 22 14q13 2 13.5 2.5t1.5 5.5q2 8 3.5 11t5 3.5t11.5 3.5q1 0 2 -2l-8 -20q0 -1 4 -1q29 0 54 -7q10 -4 10 -8q0 -2 -1 -2q-3 2 -14 5q-17 4 -37 4q-4 0 -8 -0.5t-9.5 -0.5t-22.5 -49l-3 -8q1 -3 3 -3t7 5q10 10 17 19q3 5 13 9q-2 -6 -11 -21l-4 -11
q3 0 6 6q24 31 27 31q5 -1 5 -3q-14 -30 -26 -62q-8 -26 -8 -34zM378 -12h-6q-63 0 -97.5 40t-34.5 100q0 49 18 109q11 32 23 56l9 18q-2 1 -40 1q-76 0 -100 -28l-7 -11q-4 11 -4 21q0 28 28 39q16 6 55 6l80 -3q3 0 7 7q13 20 31 42q54 61 89 61q17 0 17 -16
q-9 -72 -71 -103q-20 -9 -22 -9q-8 -3 -22.5 -5t-16 -4.5t-12.5 -31.5q-35 -91 -35 -149q0 -54 41 -87q29 -22 63 -22q53 0 155 32l109 34q114 38 182 38q84 0 130 -46q16 -16 16 -25l-1 -1q-44 39 -135 39q-93 0 -230 -47l-104 -34q-72 -21 -115 -21zM1058 382q-8 0 -13 7
v4q0 15 8 29l4 2q6 0 7 -8q0 -14 -12 -23v-2q1 -3 3 -3q5 2 9 9.5t4 16.5q0 6 -2 17v1q7 0 9 -16l1 -6q0 -14 -11 -25q-4 -3 -7 -3zM993 326q-5 3 -5 8q1 12 25 72q9 21 12 21q6 -1 6 -4l-5 -9q-6 -12 -11 -26l21 37q5 0 6 -18q0 -24 -11 -25q-3 0 -8 4q-1 0 -5 -8
q-17 -31 -23 -49zM334 337q24 0 50 19q14 12 21 21q16 24 17 42l1 5q-22 -13 -48 -34q-32 -30 -46 -52v-1h5zM1054 402q5 5 5 12h-1q-4 -7 -4 -12zM1024 389q11 0 11 15q0 5 -1 5zM605 104q-19 0 -32 15q-9 12 -9 25q0 20 21 112l16 67q1 4 5 9q-16 -6 -42 -13q-1 0 -1 -2
v-17q0 -38 -11 -90q-15 -53 -30 -53q-4 0 -9.5 6.5t-10.5 9t-8.5 12.5t-3.5 46q-19 -76 -33 -76q-4 0 -8 6q-1 1 -7 3.5t-8.5 11.5t-2.5 18q0 26 10 59q7 20 17 35q15 23 26 23q10 0 15 -19q5 9 10.5 14.5t10.5 5.5q7 0 11 -3q0 -2 -5.5 -10.5t-9.5 -21.5q-9 -29 -9 -56
q0 -22 6 -33q2 -4 3 -4q5 3 11 23q15 47 15 92q0 25 -7 27q-20 8 -20 26q0 13 14 20q4 2 8 2q16 0 22 -31q1 -5 3 -5l30 8q13 5 14.5 5.5t7 6t9.5 5.5q9 0 10 -12q0 -3 -5 -20q-33 -112 -33 -166q0 -30 13 -60zM976 124q-25 0 -45.5 22.5t-20.5 71.5q0 20 7 41v4
q-29 -78 -39 -78q-4 0 -7 6t-9 8q-3 0 -6 4q-4 7 -4 18q0 18 9 52q8 27 18 44q19 36 36 36q11 0 16 -22q15 35 26 35q6 0 6 -11q0 -13 -14 -61q-17 -59 -17 -98q0 -37 16 -55q9 -7 19 -7q13 0 29 12q35 30 35 107q0 28 -4 53q-3 9 -6 9q-4 0 -14 -22q-17 -39 -17 -71
q0 -18 7 -29q1 -2 2 -2q-6 -3 -10 -3q-13 0 -18 28q-2 8 -5 12q-3 8 -3 17q0 18 16 46q5 7 15.5 19t15.5 14q10 6 20 6q37 0 37 -52q0 -29 -11 -67q-7 -21 -16 -38q-29 -49 -64 -49zM676 255q4 1 12 9t13 18q12 20 22 62q-12 -12 -32 -51q-16 -32 -16 -38h1zM876 212
q8 14 48 106q0 9 -6 17l-1 1q-2 0 -9 -12q-22 -37 -31 -82l-2 -20zM358 70q-5 0 -11 5q-14 14 -14 55q0 31 10 77v1q-15 -39 -22 -62l-2 -8h-1q-6 0 -14 5q-12 8 -12 28q0 26 21 87q14 37 19 37q18 -2 18 -6q0 -2 -8 -19q-27 -66 -27 -89q32 77 55 115q7 11 11 11t12 -5
l2 -2l-9 -21q-10 -24 -19 -59q-11 -42 -11 -68l1 -1q29 98 52 149q12 22 18 22l14 -3q4 -1 4 -4l-7 -24q-14 -41 -26 -100q-5 -28 -5 -51q0 -21 8 -21q3 0 25 7q39 13 59 13q26 0 38 -15q-7 -1 -32.5 -5.5t-41.5 -10t-33 -14.5q-5 -2 -10 -2q-10 0 -18 13l-8 8
q-11 10 -11 32q0 16 12 66l3 16h-1q-15 -40 -28 -90q-10 -41 -10 -61v-4q0 -2 -1 -2zM235 43q-19 0 -31 17q-9 14 -9 37t6 75v1q-1 0 -7 -13q-14 -30 -25 -48q-5 -8 -10 -8q-4 0 -7.5 6.5t-10 8.5t-6.5 19t12 52q9 24 20 42q21 36 39 36q10 0 14 -17q13 28 16 32q6 8 12 12
t8 4q4 0 5 -7q0 -13 -18 -56q-20 -54 -20 -96q0 -56 19 -93l1 -2q0 -2 -8 -2zM456 177q2 0 7 17q26 74 26 80t-5 14h-2q-11 -3 -24 -55q-5 -19 -7 -40v-2q1 -14 5 -14zM158 131q4 4 8 12l45 86q2 3 2 7q0 5 -4 14l-1 1q-2 0 -9 -9q-17 -24 -30 -58q-10 -28 -11 -48v-5z
M418 -172h-9v86l9 4v-90zM657 -172h-10l-25 35l-3 -3v-32h-8v86q0 1 8 4v-51l25 22h7l-22 -20zM707 -172h-9v34q0 17 -4 20t-8 3q-9 0 -12 -11v-46h-9v86q0 1 9 4v-33q5 4 12 4q15 0 19 -13q2 -6 2 -30v-18zM799 -172q-19 0 -22 5.5t-3 21.5v30h-9v4h9v12q0 1 8 4v-16h11v-4
h-11v-31q0 -18 3 -19.5t6 -1.5q4 0 10 4zM862 -202h-1q0 84 -1 87l6 3l3 -3q5 5 14 5q13 0 18 -11q2 -6 2 -20q0 -25 -9 -29q-5 -3 -11 -3q-8 0 -13 4v-29q0 -1 -3 -2t-5 -2zM501 -172h-9v32q0 18 -3 21.5t-8 3.5q-10 0 -12 -14v-43h-9v26q0 24 -2.5 27.5t-8.5 3.5
q-9 0 -11 -10q-1 -3 -1 -26v-21h-9v58q0 1 3.5 2t5.5 2v-4q5 3 12 3q12 0 17 -7v-1q0 3 5.5 5.5t8.5 2.5q15 0 19 -10q2 -7 2 -34v-17zM572 -172h-9v58q1 1 9 4v-8q2 4 10 7h16q1 0 4 -10q-8 6 -15 6q-10 0 -14 -16q-1 -9 -1 -31v-10zM829 -201h-13l-3 10q8 -5 13 -5
q12 0 14 14l1 14q-5 -4 -13 -4q-14 0 -18 11q-3 6 -3 17v30l9 4v-31q0 -20 3.5 -23t7.5 -3q11 0 14 11v42q0 1 8 4v-61q0 -30 -20 -30zM1156 -172h-8v26q0 24 -3 27.5t-9 3.5q-8 0 -11 -10q-1 -4 -1 -25v-22h-8q-1 0 -1 34q0 17 -3 20t-8 3q-8 0 -11 -9q-1 -4 -1 -27v-21h-8
q-1 0 -1 58q0 1 9 4v-4q5 3 13 3q11 0 16 -6v-2q0 3 5 5.5t9 2.5q16 0 20 -12q1 -6 1 -34v-15zM949 -172h-15q-21 0 -21 25v11q0 26 22 26q20 0 20 -27q0 -2 -10 -4l-23 -5q0 -17 7 -20q3 -1 8 -1q7 0 15 5zM1052 -173q-22 0 -22 31q0 32 22 32q21 0 21 -31t-21 -32z
M133 -172h-4l-13 36l-12 -36h-4q-1 0 -2 5l-20 56h9l17 -46l10 28l-7 18h9q1 0 17 -46l17 46h5zM219 -172h-4q-1 1 -6.5 17.5t-6.5 17.5l-12 -35h-4q-1 1 -22 61h9l3 -7q12 -33 13 -39q1 0 9 24l2 4l-7 18h9l17 -46l17 46h5zM305 -172h-4l-13 36q-12 -36 -13 -36h-4l-21 61
h9l16 -46l10 28l-6 18h9q1 0 17 -46l17 46h5zM372 -173q-12 0 -16 13l-1 9q0 24 32 24q0 12 -13 12q-9 0 -14 -5l-2 -1q3 10 4 10h14q17 0 20 -16v-36q0 -5 3 -9h-8q-2 1 -3 5q-6 -6 -16 -6zM528 -173q-12 0 -16 12l-1 9q0 16 10 20.5t22 4.5q0 12 -13 12q-9 0 -15 -5l-1 -1
q2 10 3 10h15q20 0 20 -26q0 -32 2 -35h-7q-2 0 -3 6q-7 -7 -16 -7zM734 -173q-12 0 -16 12q-1 3 -1 9q0 16 9.5 20.5t22.5 4.5q-1 6 -3.5 9t-9.5 3q-9 0 -16 -6q2 10 3 10h15q14 0 18 -13q2 -5 2 -19q0 -25 2 -29h-8q-2 3 -2 6q-7 -7 -16 -7zM1019 -172h-14q-22 0 -22 31
q0 30 21 30h15q1 0 3 -10q-7 6 -14 6q-11 0 -13 -4.5t-2 -22.5q0 -20 3 -22.5t11 -2.5t15 5q-2 -10 -3 -10zM883 -168q7 0 9.5 6.5t2.5 23.5t-4 20t-9 3q-12 0 -12 -14v-25q0 -14 13 -14zM922 -140l24 4q0 21 -12 21t-12 -23v-2zM1052 -168q7 0 9.5 7t2.5 20q0 20 -4.5 23
t-7.5 3q-13 0 -13 -26q0 -21 4.5 -24t8.5 -3zM375 -166q8 0 13 7v27q-15 0 -19.5 -5.5t-4.5 -13.5q0 -15 10 -15h1zM530 -166q9 0 13 7v27q-15 0 -19 -5.5t-4 -13.5q0 -14 10 -15zM736 -166q9 0 13 7v27q-17 0 -22 -9q-2 -4 -2 -11q0 -14 11 -14zM343 -172h-1q-4 0 -6 4
q0 5 5 7q4 0 6 -5q0 -5 -4 -6zM971 -172h-2q-5 0 -5 5q0 4 5 6q4 0 5 -2.5t1 -3.5q0 -3 -4 -5z" />
    <glyph glyph-name="A" unicode="A" horiz-adv-x="745" 
d="M695 0h-43l-142 331h-274l-142 -331h-44l301 700h43zM493 371l-120 278l-120 -278h240z" />
    <glyph glyph-name="B" unicode="B" horiz-adv-x="671" 
d="M355 0h-305v700h240q133 0 206.5 -48t73.5 -138q0 -56 -29.5 -95.5t-81.5 -61.5q151 -41 151 -173q0 -90 -68 -137t-187 -47zM290 370q239 0 240 144q0 144 -240 146h-200v-290h200zM355 40q212 0 215 144q0 146 -232 146h-248v-290h265z" />
    <glyph glyph-name="C" unicode="C" horiz-adv-x="640" 
d="M360 0q-102 0 -171 49.5t-104 129.5t-35 171q0 92 35 171.5t104 129t171 49.5q74 0 132 -27.5t98 -76.5l-31 -25q-72 89 -199 89q-84 0 -144.5 -40.5t-93 -110.5t-32.5 -159t32.5 -159t93 -110.5t144.5 -40.5q127 0 199 89l31 -25q-40 -48 -98 -76t-132 -28z" />
    <glyph glyph-name="D" unicode="D" horiz-adv-x="680" 
d="M320 0h-270v700h270q103 0 171.5 -49.5t103.5 -129t35 -171.5t-35 -172t-103.5 -129t-171.5 -49zM320 40q85 0 145 40.5t92.5 110.5t32.5 159t-32.5 159t-92.5 110.5t-145 40.5h-230v-620h230z" />
    <glyph glyph-name="E" unicode="E" horiz-adv-x="610" 
d="M560 0h-510v700h500v-40h-460v-290h420v-40h-420v-290h470v-40z" />
    <glyph glyph-name="F" unicode="F" horiz-adv-x="606" 
d="M90 0h-40v700h506v-40h-466v-290h416v-40h-416v-330z" />
    <glyph glyph-name="G" unicode="G" horiz-adv-x="662" 
d="M612 0h-40v147q-69 -147 -240 -147q-92 0 -155 50t-95 130t-32 170q0 92 35 171.5t104 129t171 49.5q74 0 132 -27.5t98 -76.5l-31 -25q-72 89 -199 89q-84 0 -144.5 -40.5t-93 -110.5t-32.5 -159q0 -136 66.5 -223t175.5 -87q85 0 136.5 39.5t76 105t26.5 145.5h-221v40
h262v-370z" />
    <glyph glyph-name="H" unicode="H" horiz-adv-x="660" 
d="M610 0h-40v330h-480v-330h-40v700h40v-330h480v330h40v-700z" />
    <glyph glyph-name="I" unicode="I" horiz-adv-x="140" 
d="M90 0h-40v700h40v-700z" />
    <glyph glyph-name="J" unicode="J" horiz-adv-x="559" 
d="M255 0q-126 0 -205 105l33 23q66 -88 172 -88q214 0 214 310v310h-260v40h300v-350q0 -178 -67.5 -264t-186.5 -86z" />
    <glyph glyph-name="K" unicode="K" horiz-adv-x="660" 
d="M610 -20q-45 0 -73 30.5t-46.5 77t-32.5 96.5t-30.5 93t-40.5 70.5t-63 27.5q-17 0 -50.5 -14.5t-69.5 -50.5l-114 -120v-190h-40v700h40v-452l446 466l28 -28l-261 -273q11 2 21 2q54 0 87 -35t53 -87t36 -106q33 -124 70 -154q16 -13 40 -13v-40z" />
    <glyph glyph-name="L" unicode="L" horiz-adv-x="610" 
d="M560 0h-510v700h40v-660h470v-40z" />
    <glyph glyph-name="M" unicode="M" horiz-adv-x="820" 
d="M770 0h-40v628l-320 -423l-320 423v-628h-40v700h36l324 -429l324 429h36v-700z" />
    <glyph glyph-name="N" unicode="N" horiz-adv-x="660" 
d="M610 0h-45l-475 640v-640h-40v700h45l475 -640v640h40v-700z" />
    <glyph glyph-name="O" unicode="O" horiz-adv-x="720" 
d="M360 0q-102 0 -171 49t-104 129t-35 172t35 171.5t104 129t171 49.5q103 0 171.5 -49.5t103.5 -129t35 -171.5q0 -91 -35 -171t-103.5 -129.5t-171.5 -49.5zM360 40q85 0 145 40.5t92.5 110.5t32.5 159t-32.5 159t-92.5 110.5t-145 40.5q-84 0 -144.5 -40.5t-93 -110.5
t-32.5 -159t32.5 -159t93 -110.5t144.5 -40.5z" />
    <glyph glyph-name="P" unicode="P" horiz-adv-x="586" 
d="M90 0h-40v700h240q69 0 122.5 -22.5t84.5 -68t31 -114.5q0 -102 -67.5 -153.5t-170.5 -51.5h-200v-290zM290 330q89 0 143.5 40.5t54.5 124.5t-54.5 124.5t-143.5 40.5h-200v-330h200z" />
    <glyph glyph-name="Q" unicode="Q" horiz-adv-x="720" 
d="M643 -17l-109 69q-72 -52 -174 -52t-171 49.5t-104 129.5t-35 171q0 92 35 171.5t104 129t171 49.5q74 0 132 -27.5t98 -76.5q80 -103 80 -246q0 -80 -26 -150.5t-77 -120.5l98 -62zM360 40q81 0 137 35l-148 93l22 34l161 -101q98 92 98 249q0 89 -32.5 159t-92.5 110.5
t-145 40.5q-84 0 -144.5 -40.5t-93 -110.5t-32.5 -159t32.5 -159t93 -110.5t144.5 -40.5z" />
    <glyph glyph-name="R" unicode="R" horiz-adv-x="592" 
d="M565 -1q-43 0 -69 22.5t-43 57.5t-31.5 77t-34.5 82t-52.5 66t-87.5 26h-157v-330h-40v700h240q101 0 159.5 -42.5t58.5 -143.5q0 -86 -41.5 -129.5t-106.5 -51.5q36 -28 55 -60.5t32 -71.5l9 -24q13 -39 27.5 -70t33 -49.5t48.5 -18.5v-40zM295 370q85 0 129 32t44 112
q0 81 -45.5 113.5t-132.5 32.5h-200v-290h205z" />
    <glyph glyph-name="S" unicode="S" horiz-adv-x="610" 
d="M315 0q-75 0 -129.5 18.5t-88.5 41.5t-47 38l29 28q10 -12 39.5 -32t79 -37t117.5 -17q92 0 148.5 34t56.5 93q0 56 -40 89t-114 60l-98 39q-56 22 -99 47.5t-67.5 58.5t-24.5 79q0 75 68.5 117.5t165.5 42.5q70 0 134 -25t102 -71l-31 -25q-30 35 -86.5 58t-118.5 23
q-87 0 -140.5 -33.5t-53.5 -86.5q0 -48 40.5 -81.5t125.5 -66.5q49 -19 99.5 -39t91 -45t63.5 -58.5t23 -82.5q0 -55 -33.5 -92.5t-89.5 -56t-122 -18.5z" />
    <glyph glyph-name="T" unicode="T" horiz-adv-x="700" 
d="M370 0h-40v660h-280v40h600v-40h-280v-660z" />
    <glyph glyph-name="U" unicode="U" horiz-adv-x="660" 
d="M330 0q-99 0 -161 49t-90.5 129t-28.5 172v350h40v-350q0 -88 25 -158t78.5 -111t136.5 -41q84 0 137 41t78 111t25 158v350h40v-350q0 -92 -28.5 -172t-90 -129t-161.5 -49z" />
    <glyph glyph-name="V" unicode="V" horiz-adv-x="745" 
d="M394 0h-43l-301 700h44l279 -649l279 649h43z" />
    <glyph glyph-name="W" unicode="W" horiz-adv-x="1185" 
d="M872 0h-37l-242 643l-242 -643h-38l-263 700h43l239 -636l239 636h43l239 -636l240 636h42z" />
    <glyph glyph-name="X" unicode="X" horiz-adv-x="652" 
d="M602 0h-49l-227 316l-227 -316h-49l252 350l-252 350h49l227 -316l227 316h49l-251 -350z" />
    <glyph glyph-name="Y" unicode="Y" horiz-adv-x="752" 
d="M396 0h-40v303l-306 397h51l275 -357l276 357h50l-306 -397v-303z" />
    <glyph glyph-name="Z" unicode="Z" horiz-adv-x="660" 
d="M610 0h-560v40l510 620h-510v40h560v-40l-510 -620h510v-40z" />
    <glyph glyph-name="bracketleft" unicode="[" horiz-adv-x="240" 
d="M188 -59h-140v800h140v-42h-98v-716h98v-42z" />
    <glyph glyph-name="backslash" unicode="\" horiz-adv-x="429" 
d="M389 -3h-44l-304 700h44z" />
    <glyph glyph-name="bracketright" unicode="]" horiz-adv-x="240" 
d="M188 -59h-140v42h98v716h-98v42h140v-800z" />
    <glyph glyph-name="asciicircum" unicode="^" horiz-adv-x="451" 
d="M94 200h-44l150 301h43l158 -300h-43l-135 264z" />
    <glyph glyph-name="underscore" unicode="_" horiz-adv-x="735" 
d="M685 -48h-652v40h652v-40z" />
    <glyph glyph-name="grave" unicode="`" horiz-adv-x="172" 
d="M116 745l-88 97l38 23l82 -100z" />
    <glyph glyph-name="a" unicode="a" horiz-adv-x="745" 
d="M695 0h-43l-279 649l-279 -649h-44l301 700h43z" />
    <glyph glyph-name="b" unicode="b" horiz-adv-x="679" 
d="M355 0h-276v40h276q212 0 215 144q0 146 -232 146h-259v40h211q239 0 240 144q0 143 -240 146h-211v40h211q134 0 207 -48t73 -138q0 -55 -29.5 -95t-81.5 -62q151 -41 151 -173q0 -90 -68 -137t-187 -47z" />
    <glyph glyph-name="c" unicode="c" horiz-adv-x="640" 
d="M360 0q-102 0 -171 49.5t-104 129.5t-35 171q0 92 35 171.5t104 129t171 49.5q74 0 132 -27.5t98 -76.5l-31 -25q-72 89 -199 89q-84 0 -144.5 -40.5t-93 -110.5t-32.5 -159t32.5 -159t93 -110.5t144.5 -40.5q127 0 199 89l31 -25q-40 -48 -98 -76t-132 -28z" />
    <glyph glyph-name="d" unicode="d" horiz-adv-x="680" 
d="M320 0h-241v40h241q86 0 146 40.5t92 111t32 158.5q0 89 -32 159.5t-92 110.5t-146 40h-240v40h240q102 0 171 -49t104 -129t35 -172q0 -91 -35 -170.5t-104 -129.5t-171 -50z" />
    <glyph glyph-name="e" unicode="e" horiz-adv-x="610" 
d="M550 660h-478v40h478v-40zM490 330h-418v40h418v-40zM560 0h-488v40h488v-40z" />
    <glyph glyph-name="f" unicode="f" horiz-adv-x="606" 
d="M556 660h-506v40h506v-40zM90 0h-40v370h456v-40h-416v-330z" />
    <glyph glyph-name="g" unicode="g" horiz-adv-x="635" 
d="M360 0q-102 0 -171 50t-104 129.5t-35 170.5q0 92 35 172t104 129t171 49q145 0 230 -104l-31 -25q-72 89 -199 89q-85 0 -145.5 -40t-92.5 -110.5t-32 -159.5q0 -88 32 -158.5t92.5 -111t145.5 -40.5q117 0 188 76v215h-250v40h290v-270q-40 -47 -97 -74t-131 -27z" />
    <glyph glyph-name="h" unicode="h" horiz-adv-x="660" 
d="M610 0h-40v330h-480v-330h-40v700h40v-330h480v330h40v-700z" />
    <glyph glyph-name="i" unicode="i" horiz-adv-x="140" 
d="M90 0h-40v700h40v-700z" />
    <glyph glyph-name="j" unicode="j" horiz-adv-x="559" 
d="M255 0q-126 0 -205 105l33 23q66 -88 172 -88q214 0 214 310v310h-260v40h300v-350q0 -178 -67.5 -264t-186.5 -86z" />
    <glyph glyph-name="k" unicode="k" horiz-adv-x="642" 
d="M558 0l-56 1l-304 302l-108 -113v-190h-40v700h40v-452l431 452h55l-350 -368z" />
    <glyph glyph-name="l" unicode="l" horiz-adv-x="610" 
d="M560 0h-510v700h40v-660h470v-40z" />
    <glyph glyph-name="m" unicode="m" horiz-adv-x="820" 
d="M770 0h-40v628l-320 -423l-320 423v-628h-40v700h36l324 -429l324 429h36v-700z" />
    <glyph glyph-name="n" unicode="n" horiz-adv-x="660" 
d="M610 0h-45l-475 640v-640h-40v700h45l475 -640v640h40v-700z" />
    <glyph glyph-name="o" unicode="o" horiz-adv-x="720" 
d="M360 0q-102 0 -171 49t-104 129t-35 172t35 171.5t104 129t171 49.5q103 0 171.5 -49.5t103.5 -129t35 -171.5q0 -91 -35 -171t-103.5 -129.5t-171.5 -49.5zM360 40q85 0 145 40.5t92.5 110.5t32.5 159t-32.5 159t-92.5 110.5t-145 40.5q-84 0 -144.5 -40.5t-93 -110.5
t-32.5 -159t32.5 -159t93 -110.5t144.5 -40.5z" />
    <glyph glyph-name="p" unicode="p" horiz-adv-x="586" 
d="M90 0h-40v330h240q89 0 143.5 40.5t54.5 124.5t-54.5 124.5t-143.5 40.5h-240v40h240q68 0 122 -23t85 -68.5t31 -113.5q0 -102 -67 -153.5t-171 -51.5h-200v-290z" />
    <glyph glyph-name="q" unicode="q" horiz-adv-x="720" 
d="M643 -17l-109 69q-72 -52 -174 -52t-171 49.5t-104 129.5t-35 171q0 92 35 171.5t104 129t171 49.5q74 0 132 -27.5t98 -76.5q80 -103 80 -246q0 -80 -26 -150.5t-77 -120.5l98 -62zM360 40q81 0 137 35l-148 93l22 34l161 -101q98 92 98 249q0 89 -32.5 159t-92.5 110.5
t-145 40.5q-84 0 -144.5 -40.5t-93 -110.5t-32.5 -159t32.5 -159t93 -110.5t144.5 -40.5z" />
    <glyph glyph-name="r" unicode="r" horiz-adv-x="602" 
d="M542 0h-43q-12 27 -67 150t-92 151.5t-93 28.5h-168v40h216q84 0 128.5 32.5t44.5 111.5q0 81 -45.5 113.5t-132.5 32.5h-211v40h211q101 0 160 -42q58 -43 58 -144q0 -85 -41.5 -129t-106.5 -52q25 -15 51.5 -56.5t70 -139t56.5 -129.5z" />
    <glyph glyph-name="s" unicode="s" horiz-adv-x="610" 
d="M315 0q-75 0 -129.5 18.5t-88.5 41.5t-47 38l29 28q10 -12 39.5 -32t79 -37t117.5 -17q92 0 148.5 34t56.5 93q0 56 -40 89t-114 60l-98 39q-56 22 -99 47.5t-67.5 58.5t-24.5 79q0 75 68.5 117.5t165.5 42.5q70 0 134 -25t102 -71l-31 -25q-30 35 -86.5 58t-118.5 23
q-87 0 -140.5 -33.5t-53.5 -86.5q0 -48 40.5 -81.5t125.5 -66.5q49 -19 99.5 -39t91 -45t63.5 -58.5t23 -82.5q0 -55 -33.5 -92.5t-89.5 -56t-122 -18.5z" />
    <glyph glyph-name="t" unicode="t" horiz-adv-x="700" 
d="M370 0h-40v660h-280v40h600v-40h-280v-660z" />
    <glyph glyph-name="u" unicode="u" horiz-adv-x="660" 
d="M330 0q-99 0 -161 49t-90.5 129t-28.5 172v350h40v-350q0 -88 25 -158t78.5 -111t136.5 -41q84 0 137 41t78 111t25 158v350h40v-350q0 -92 -28.5 -172t-90 -129t-161.5 -49z" />
    <glyph glyph-name="v" unicode="v" horiz-adv-x="745" 
d="M394 0h-43l-301 700h44l279 -649l279 649h43z" />
    <glyph glyph-name="w" unicode="w" horiz-adv-x="1185" 
d="M872 0h-37l-242 643l-242 -643h-38l-263 700h43l239 -636l239 636h43l239 -636l240 636h42z" />
    <glyph glyph-name="x" unicode="x" horiz-adv-x="652" 
d="M602 0h-49l-227 316l-227 -316h-49l252 350l-252 350h49l227 -316l227 316h49l-251 -350z" />
    <glyph glyph-name="y" unicode="y" horiz-adv-x="752" 
d="M396 0h-40v303l-306 397h51l275 -357l276 357h50l-306 -397v-303z" />
    <glyph glyph-name="z" unicode="z" horiz-adv-x="660" 
d="M610 0h-560v40l510 620h-510v40h560v-40l-510 -620h510v-40z" />
    <glyph glyph-name="braceleft" unicode="{" horiz-adv-x="263" 
d="M225 -58q-133 0 -133 130v169q0 62 -23 75q-7 5 -24 5v40q17 0 24 5q23 13 23 75v168q0 131 133 131v-40q-56 0 -74.5 -22t-18.5 -69v-168q0 -31 -6 -57t-26 -43q20 -18 26 -43.5t6 -56.5v-169q0 -47 18.5 -68.5t74.5 -21.5v-40z" />
    <glyph glyph-name="bar" unicode="|" horiz-adv-x="140" 
d="M88 -49h-40v800h40v-800z" />
    <glyph glyph-name="braceright" unicode="}" horiz-adv-x="263" 
d="M45 -58v40q56 0 74.5 21.5t18.5 68.5v169q0 31 6 56.5t26 43.5q-20 17 -26 43t-6 57v168q0 47 -18.5 69t-74.5 22v40q133 0 133 -131v-168q0 -62 23 -75q8 -5 24 -5v-40q-16 0 -24 -5q-23 -13 -23 -75v-169q0 -130 -133 -130z" />
    <glyph glyph-name="asciitilde" unicode="~" horiz-adv-x="517" 
d="M354 281q-33 0 -60 13t-52 29q-51 32 -91 37q-25 0 -43 -12.5t-40 -45.5l-34 22q26 40 55.5 58t62.5 18q55 -7 100 -38q41 -23 58 -30q23 -11 45 -11q21 0 40.5 13t43.5 49l34 -22q-51 -80 -119 -80z" />
    <glyph glyph-name="exclamdown" unicode="&#xa1;" horiz-adv-x="153" 
d="M96 3h-40v558h40v-558zM76 623q-16 0 -28 11.5t-12 28.5t12 28.5t28 11.5q17 0 28.5 -11.5t11.5 -28.5t-11.5 -28.5t-28.5 -11.5z" />
    <glyph glyph-name="cent" unicode="&#xa2;" horiz-adv-x="417" 
d="M108 -4l44 147q-114 51 -114 183q0 93 61 147.5t143 54.5q14 0 27 -2l47 156l34 2l-50 -164q40 -12 77 -41l-27 -34q-30 23 -63 33l-92 -304q22 -6 47 -6q60 0 108 39l27 -35q-60 -48 -135 -48q-31 0 -59 8l-41 -134zM165 185l91 298l-14 1q-67 0 -113.5 -41.5
t-46.5 -116.5q0 -39 13 -68q21 -49 70 -73z" />
    <glyph glyph-name="sterling" unicode="&#xa3;" horiz-adv-x="626" 
d="M576 0h-486v40q27 0 36 9q21 14 23 72q1 30 1 149h-100v40h100v142q0 122 60.5 185t177.5 63q101 0 162 -49l-25 -31q-47 40 -137 40q-103 0 -149 -50q-49 -47 -49 -158v-142h260v-40h-260q0 -143 -2 -166q-3 -39 -17 -64h405v-40z" />
    <glyph glyph-name="currency" unicode="&#xa4;" 
 />
    <glyph glyph-name="yen" unicode="&#xa5;" horiz-adv-x="752" 
d="M396 0h-40v141h-201v40h201v63h-196v40h196v19l-306 397h51l275 -357l276 357h50l-306 -397v-19h204v-40h-204v-63h199v-40h-199v-141z" />
    <glyph glyph-name="brokenbar" unicode="&#xa6;" 
 />
    <glyph glyph-name="section" unicode="&#xa7;" horiz-adv-x="466" 
d="M237 -1q-55 0 -95 12t-65.5 26.5t-35.5 24.5l27 30q7 -7 28 -19t56.5 -23t84.5 -11q68 0 106 23.5t38 49.5q0 29 -27.5 49t-80.5 38l-72 24q-63 21 -103 49.5t-40 74.5q0 49 50 78.5t129 29.5q-51 17 -91.5 34.5t-64 41t-23.5 60.5q0 49 50 78.5t126 29.5q52 0 99 -16
t76 -46l-29 -27q-21 21 -61 35t-85 14q-67 0 -101.5 -21t-34.5 -47q0 -51 116 -86l72 -24q57 -19 96 -47.5t39 -77.5q0 -45 -45 -75.5t-113 -36.5q158 -43 158 -132q0 -51 -55 -82t-129 -31zM237 283q68 0 106 23.5t38 49.5l-1 10q-21 21 -61 35t-85 14q-67 0 -101.5 -21
t-34.5 -47q0 -25 24 -43q52 -21 115 -21z" />
    <glyph glyph-name="dieresis" unicode="&#xa8;" horiz-adv-x="227" 
d="M58 746q-13 0 -22.5 9.5t-9.5 22.5t9.5 22.5t22.5 9.5q14 0 23 -9.5t9 -22.5t-9 -22.5t-23 -9.5zM156 746q-13 0 -22.5 9.5t-9.5 22.5t9.5 22.5t22.5 9.5t22.5 -9.5t9.5 -22.5t-9.5 -22.5t-22.5 -9.5z" />
    <glyph glyph-name="copyright" unicode="&#xa9;" horiz-adv-x="800" 
d="M400 0q-96 0 -175.5 47.5t-127 127t-47.5 175.5q0 97 47.5 176t127 126.5t175.5 47.5q97 0 176 -47.5t126.5 -126.5t47.5 -176q0 -96 -47.5 -175.5t-126.5 -127t-176 -47.5zM400 42q128 0 218 90.5t90 217.5q0 128 -90 218t-218 90q-127 0 -217.5 -90t-90.5 -218
q0 -127 90.5 -217.5t217.5 -90.5zM410 148q-55 0 -101.5 24t-74.5 69.5t-28 108.5q0 64 28 109t74.5 69t101.5 24q72 0 135 -49l-27 -34q-51 39 -108 39q-64 0 -112 -40.5t-48 -117.5t48 -117.5t112 -40.5q58 0 108 39l27 -35q-61 -48 -135 -48z" />
    <glyph glyph-name="ordfeminine" unicode="&#xaa;" horiz-adv-x="745" 
d="M695 0h-43l-279 649l-279 -649h-44l301 700h43z" />
    <glyph glyph-name="guillemotleft" unicode="&#xab;" horiz-adv-x="388" 
d="M322 197l-175 134v32l175 134l25 -32l-155 -118l155 -118zM232 197l-176 134v32l176 134l24 -32l-155 -118l155 -118z" />
    <glyph glyph-name="logicalnot" unicode="&#xac;" 
 />
    <glyph glyph-name="registered" unicode="&#xae;" horiz-adv-x="800" 
d="M400 0q-96 0 -175.5 47.5t-127 127t-47.5 175.5q0 97 47.5 176t127 126.5t175.5 47.5q97 0 176 -47.5t126.5 -126.5t47.5 -176q0 -96 -47.5 -175.5t-126.5 -127t-176 -47.5zM400 42q128 0 218 90.5t90 217.5q0 128 -90 218t-218 90q-127 0 -217.5 -90t-90.5 -218
q0 -127 90.5 -217.5t217.5 -90.5zM560 148h-51l-107 182h-82v-182h-42v404h127q66 0 105 -27t39 -84q0 -93 -98 -108zM405 372q96 0 96 66v3q0 69 -96 69h-85v-138h85z" />
    <glyph glyph-name="macron" unicode="&#xaf;" 
 />
    <glyph glyph-name="degree" unicode="&#xb0;" 
 />
    <glyph glyph-name="plusminus" unicode="&#xb1;" 
 />
    <glyph glyph-name="uni00B2" unicode="&#xb2;" 
 />
    <glyph glyph-name="uni00B3" unicode="&#xb3;" 
 />
    <glyph glyph-name="acute" unicode="&#xb4;" horiz-adv-x="184" 
d="M65 747l-32 20l82 100l38 -23z" />
    <glyph glyph-name="mu" unicode="&#xb5;" 
 />
    <glyph glyph-name="paragraph" unicode="&#xb6;" 
 />
    <glyph glyph-name="periodcentered" unicode="&#xb7;" 
 />
    <glyph glyph-name="periodcentered" unicode="&#x2219;" 
 />
    <glyph glyph-name="cedilla" unicode="&#xb8;" horiz-adv-x="196" 
d="M100 -101q-31 0 -57 23l29 31q12 -11 28 -11q11 0 15.5 7t4.5 13q0 11 -5.5 21t-15.5 21.5t-18.5 24t-8.5 30.5h43q0 -7 19 -30q29 -31 29 -67q0 -23 -17 -43t-46 -20z" />
    <glyph glyph-name="uni00B9" unicode="&#xb9;" 
 />
    <glyph glyph-name="ordmasculine" unicode="&#xba;" 
 />
    <glyph glyph-name="guillemotright" unicode="&#xbb;" horiz-adv-x="388" 
d="M80 197l-24 32l155 118l-155 118l24 32l176 -134v-32zM171 197l-24 32l154 118l-154 118l24 32l176 -134v-32z" />
    <glyph glyph-name="onequarter" unicode="&#xbc;" 
 />
    <glyph glyph-name="onehalf" unicode="&#xbd;" 
 />
    <glyph glyph-name="threequarters" unicode="&#xbe;" 
 />
    <glyph glyph-name="questiondown" unicode="&#xbf;" horiz-adv-x="462" 
d="M231 -2q-78 0 -133 40t-55 111q0 61 27.5 101.5t64.5 75.5q27 28 52.5 59.5t42 74t16.5 102.5h36q0 -71 -18 -119.5t-44.5 -83.5t-54.5 -63q-33 -32 -56 -66t-23 -81q0 -50 40.5 -79t104.5 -29q96 0 167 72l31 -29q-87 -86 -198 -86zM265 624q-17 0 -28 11t-12 28
q0 17 11 28.5t27 12.5q17 0 29 -11t13 -29q0 -17 -11.5 -28.5t-28.5 -11.5z" />
    <glyph glyph-name="Agrave" unicode="&#xc0;" horiz-adv-x="745" 
d="M493 371l-120 278l-120 -278h240zM695 0h-43l-142 331h-274l-142 -331h-44l301 700h43zM380 745l-87 97l37 23l83 -100z" />
    <glyph glyph-name="Aacute" unicode="&#xc1;" horiz-adv-x="745" 
d="M493 371l-120 278l-120 -278h240zM695 0h-43l-142 331h-274l-142 -331h-44l301 700h43zM365 747l-32 20l82 100l38 -23z" />
    <glyph glyph-name="Acircumflex" unicode="&#xc2;" horiz-adv-x="745" 
d="M493 371l-120 278l-120 -278h240zM695 0h-43l-142 331h-274l-142 -331h-44l301 700h43zM424 747l-51 57l-52 -57l-39 23l91 97l90 -97z" />
    <glyph glyph-name="Atilde" unicode="&#xc3;" horiz-adv-x="745" 
d="M493 371l-120 278l-120 -278h240zM695 0h-43l-142 331h-274l-142 -331h-44l301 700h43zM421 742q-18 1 -32 10t-25 20q-3 2 -6.5 5.5l-7.5 7.5q-22 17 -31 17q-3 0 -4.5 -1l-4.5 -3q-8 -7 -20 -34l-37 15q14 32 30.5 47.5t37.5 15.5q18 -1 32.5 -10t25.5 -20l6 -5
q27 -23 38 -25q3 0 4.5 1t2.5 1q12 8 25 40l37 -16q-13 -33 -30.5 -49.5t-40.5 -16.5z" />
    <glyph glyph-name="Adieresis" unicode="&#xc4;" horiz-adv-x="745" 
d="M493 371l-120 278l-120 -278h240zM695 0h-43l-142 331h-274l-142 -331h-44l301 700h43zM421 746q-13 0 -22.5 9.5t-9.5 22.5q0 14 9.5 23t22.5 9q14 -1 23 -9.5t9 -22.5q0 -13 -9 -22.5t-23 -9.5zM324 746q-13 0 -22.5 9.5t-9.5 22.5q0 14 9.5 23t22.5 9q13 -1 22.5 -9.5
t9.5 -22.5q0 -13 -9 -22.5t-23 -9.5z" />
    <glyph glyph-name="Aring" unicode="&#xc5;" horiz-adv-x="745" 
d="M493 371l-120 278l-120 -278h240zM373 769q20 0 35 14.5t15 35.5t-15 35.5t-35 14.5q-21 0 -35.5 -14.5t-14.5 -35.5t14.5 -35.5t35.5 -14.5zM695 0h-43l-142 331h-274l-142 -331h-44l301 700h43zM373 739q-34 0 -57.5 23.5t-23.5 56.5t23 56t58 24q33 0 56.5 -23.5
t23.5 -56.5t-23.5 -56.5t-56.5 -23.5z" />
    <glyph glyph-name="AE" unicode="&#xc6;" horiz-adv-x="1007" 
d="M957 0h-510v280h-225l-128 -280h-44l321 700h576v-40h-460v-290h420v-40h-420v-290h470v-40zM447 320v340h-50l-156 -340h206z" />
    <glyph glyph-name="Ccedilla" unicode="&#xc7;" horiz-adv-x="640" 
d="M369 -149q-31 0 -57 22l29 32q12 -11 28 -11q11 0 15.5 6.5t4.5 13.5q0 11 -4.5 19t-20 25.5t-22.5 41.5q-144 11 -218 112.5t-74 237.5q0 92 35 171.5t104 129t171 49.5q74 0 132 -27.5t98 -76.5l-31 -25q-72 89 -199 89q-84 0 -144.5 -40.5t-93 -110.5t-32.5 -159
t32.5 -159t93 -110.5t144.5 -40.5q127 0 199 89l31 -25q-73 -90 -202 -103q3 -5 10 -13q11 -12 22.5 -30.5t11.5 -43.5q0 -23 -17 -43t-46 -20z" />
    <glyph glyph-name="Egrave" unicode="&#xc8;" horiz-adv-x="610" 
d="M560 0h-510v700h500v-40h-460v-290h420v-40h-420v-290h470v-40zM305 740l-88 97l38 23l82 -100z" />
    <glyph glyph-name="Eacute" unicode="&#xc9;" horiz-adv-x="610" 
d="M560 0h-510v700h500v-40h-460v-290h420v-40h-420v-290h470v-40zM297 740l-32 20l83 100l37 -23z" />
    <glyph glyph-name="Ecircumflex" unicode="&#xca;" horiz-adv-x="610" 
d="M560 0h-510v700h500v-40h-460v-290h420v-40h-420v-290h470v-40zM356 740l-51 57l-51 -57l-39 23l90 97l90 -97z" />
    <glyph glyph-name="Edieresis" unicode="&#xcb;" horiz-adv-x="610" 
d="M560 0h-510v700h500v-40h-460v-290h420v-40h-420v-290h470v-40zM346 740q-14 0 -23 8.5t-10 21.5q0 15 8.5 24t21.5 10q14 0 23 -8.5t11 -21.5q0 -14 -9 -23.5t-22 -10.5zM266 740q-13 0 -22.5 9.5t-9.5 22.5q0 14 9.5 23t22.5 9t22.5 -9t9.5 -23q0 -13 -9.5 -22.5
t-22.5 -9.5z" />
    <glyph glyph-name="Igrave" unicode="&#xcc;" horiz-adv-x="220" 
d="M157 0h-40v700h40v-700zM138 740l-88 97l38 23l82 -100z" />
    <glyph glyph-name="Iacute" unicode="&#xcd;" horiz-adv-x="220" 
d="M100 0h-40v700h40v-700zM82 740l-32 20l82 100l38 -23z" />
    <glyph glyph-name="Icircumflex" unicode="&#xce;" horiz-adv-x="280" 
d="M160 0h-40v700h40v-700zM191 740l-51 57l-51 -57l-39 23l90 97l90 -97z" />
    <glyph glyph-name="Idieresis" unicode="&#xcf;" horiz-adv-x="244" 
d="M141 0h-40v700h40v-700zM162 740q-13 0 -22.5 8.5t-10.5 22.5q0 13 8.5 22.5t22.5 10.5q13 0 22.5 -8.5t10.5 -22.5q0 -13 -8.5 -22.5t-22.5 -10.5zM82 740q-13 0 -22.5 9.5t-9.5 22.5q0 14 9.5 23t22.5 9q14 0 23 -9t9 -23q0 -13 -9 -22.5t-23 -9.5z" />
    <glyph glyph-name="Eth" unicode="&#xd0;" horiz-adv-x="800" 
d="M440 0h-270v330h-120v40h120v330h270q103 0 171.5 -49.5t103.5 -129t35 -171.5q0 -91 -35 -171t-103.5 -129.5t-171.5 -49.5zM440 40q85 0 145 40.5t92.5 110.5t32.5 159t-32.5 159t-92.5 110.5t-145 40.5h-230v-290h280v-40h-280v-290h230z" />
    <glyph glyph-name="Ntilde" unicode="&#xd1;" horiz-adv-x="660" 
d="M610 0h-45l-475 640v-640h-40v700h45l475 -640v640h40v-700zM386 740h-6q-16 0 -29.5 7t-25.5 15q-36 24 -48 24h-1q-13 -4 -24 -43l-38 11q17 66 58 71l4 1q19 0 34.5 -8t27.5 -17q29 -21 43 -21l5 1q10 6 22 45l38 -11q-17 -68 -60 -75z" />
    <glyph glyph-name="Ograve" unicode="&#xd2;" horiz-adv-x="720" 
d="M360 0q-102 0 -171 49t-104 129t-35 172t35 171.5t104 129t171 49.5q103 0 171.5 -49.5t103.5 -129t35 -171.5q0 -91 -35 -171t-103.5 -129.5t-171.5 -49.5zM360 40q85 0 145 40.5t92.5 110.5t32.5 159t-32.5 159t-92.5 110.5t-145 40.5q-84 0 -144.5 -40.5t-93 -110.5
t-32.5 -159t32.5 -159t93 -110.5t144.5 -40.5zM353 740l-88 97l38 23l82 -100z" />
    <glyph glyph-name="Oacute" unicode="&#xd3;" horiz-adv-x="720" 
d="M360 0q-102 0 -171 49t-104 129t-35 172t35 171.5t104 129t171 49.5q103 0 171.5 -49.5t103.5 -129t35 -171.5q0 -91 -35 -171t-103.5 -129.5t-171.5 -49.5zM360 40q85 0 145 40.5t92.5 110.5t32.5 159t-32.5 159t-92.5 110.5t-145 40.5q-84 0 -144.5 -40.5t-93 -110.5
t-32.5 -159t32.5 -159t93 -110.5t144.5 -40.5zM367 740l-33 20l83 100l37 -23z" />
    <glyph glyph-name="Ocircumflex" unicode="&#xd4;" horiz-adv-x="720" 
d="M360 0q-102 0 -171 49t-104 129t-35 172t35 171.5t104 129t171 49.5q103 0 171.5 -49.5t103.5 -129t35 -171.5q0 -91 -35 -171t-103.5 -129.5t-171.5 -49.5zM360 40q85 0 145 40.5t92.5 110.5t32.5 159t-32.5 159t-92.5 110.5t-145 40.5q-84 0 -144.5 -40.5t-93 -110.5
t-32.5 -159t32.5 -159t93 -110.5t144.5 -40.5zM411 740l-51 57l-51 -57l-39 23l90 97l90 -97z" />
    <glyph glyph-name="Otilde" unicode="&#xd5;" horiz-adv-x="720" 
d="M360 0q-102 0 -171 49t-104 129t-35 172t35 171.5t104 129t171 49.5q103 0 171.5 -49.5t103.5 -129t35 -171.5q0 -91 -35 -171t-103.5 -129.5t-171.5 -49.5zM360 40q85 0 145 40.5t92.5 110.5t32.5 159t-32.5 159t-92.5 110.5t-145 40.5q-84 0 -144.5 -40.5t-93 -110.5
t-32.5 -159t32.5 -159t93 -110.5t144.5 -40.5zM416 740h-6q-16 0 -29.5 7t-25.5 15q-36 24 -48 24h-1q-13 -4 -24 -43l-38 11q17 66 58 71l4 1q19 0 34.5 -8t27.5 -17q29 -21 43 -21l5 1q10 6 22 45l38 -11q-17 -68 -60 -75z" />
    <glyph glyph-name="Odieresis" unicode="&#xd6;" horiz-adv-x="720" 
d="M360 0q-102 0 -171 49t-104 129t-35 172t35 171.5t104 129t171 49.5q103 0 171.5 -49.5t103.5 -129t35 -171.5q0 -91 -35 -171t-103.5 -129.5t-171.5 -49.5zM360 40q85 0 145 40.5t92.5 110.5t32.5 159t-32.5 159t-92.5 110.5t-145 40.5q-84 0 -144.5 -40.5t-93 -110.5
t-32.5 -159t32.5 -159t93 -110.5t144.5 -40.5zM399 740q-13 0 -22.5 9.5t-9.5 22.5q0 14 9.5 23t22.5 9q14 0 23 -9t9 -23q0 -13 -9 -22.5t-23 -9.5zM321 740q-13 0 -22.5 9.5t-9.5 22.5q0 14 9.5 23t22.5 9t22.5 -9t9.5 -23q0 -13 -9.5 -22.5t-22.5 -9.5z" />
    <glyph glyph-name="multiply" unicode="&#xd7;" horiz-adv-x="565" 
d="M497 133l-205 193l-206 -193l-27 29l203 192l-203 191l27 29l206 -193l205 193l27 -29l-203 -191l203 -192z" />
    <glyph glyph-name="Oslash" unicode="&#xd8;" horiz-adv-x="720" 
d="M360 0q-114 0 -190 64l-47 -64l-32 24l50 67q-45 49 -68 116.5t-23 142.5q0 92 35 171.5t104 129t171 49.5q114 0 190 -64l47 64l32 -24l-50 -67q45 -49 68 -116.5t23 -142.5q0 -91 -35 -171t-103.5 -129.5t-171.5 -49.5zM165 124l361 480q-64 56 -166 56
q-84 0 -144.5 -40.5t-93 -110.5t-32.5 -159q0 -136 75 -226zM360 40q85 0 145 40.5t92.5 110.5t32.5 159q0 137 -75 226l-361 -480q64 -56 166 -56z" />
    <glyph glyph-name="Ugrave" unicode="&#xd9;" horiz-adv-x="660" 
d="M330 0q-99 0 -161 49t-90.5 129t-28.5 172v350h40v-350q0 -88 25 -158t78.5 -111t136.5 -41q84 0 137 41t78 111t25 158v350h40v-350q0 -92 -28.5 -172t-90 -129t-161.5 -49zM326 740l-87 97l37 23l83 -100z" />
    <glyph glyph-name="Uacute" unicode="&#xda;" horiz-adv-x="660" 
d="M330 0q-99 0 -161 49t-90.5 129t-28.5 172v350h40v-350q0 -88 25 -158t78.5 -111t136.5 -41q84 0 137 41t78 111t25 158v350h40v-350q0 -92 -28.5 -172t-90 -129t-161.5 -49zM336 740l-32 20l82 100l38 -23z" />
    <glyph glyph-name="Ucircumflex" unicode="&#xdb;" horiz-adv-x="660" 
d="M330 0q-99 0 -161 49t-90.5 129t-28.5 172v350h40v-350q0 -88 25 -158t78.5 -111t136.5 -41q84 0 137 41t78 111t25 158v350h40v-350q0 -92 -28.5 -172t-90 -129t-161.5 -49zM381 740l-51 57l-51 -57l-39 23l90 97l90 -97z" />
    <glyph glyph-name="Udieresis" unicode="&#xdc;" horiz-adv-x="660" 
d="M330 0q-99 0 -161 49t-90.5 129t-28.5 172v350h40v-350q0 -88 25 -158t78.5 -111t136.5 -41q84 0 137 41t78 111t25 158v350h40v-350q0 -92 -28.5 -172t-90 -129t-161.5 -49zM369 740q-13 0 -22.5 9.5t-9.5 22.5q0 14 9.5 23t22.5 9q14 0 23 -9t9 -23q0 -13 -9 -22.5
t-23 -9.5zM291 740q-13 0 -22.5 9.5t-9.5 22.5q0 14 9.5 23t22.5 9t22.5 -9t9.5 -23q0 -13 -9.5 -22.5t-22.5 -9.5z" />
    <glyph glyph-name="Ydieresis" unicode="&#x178;" horiz-adv-x="752" 
d="M396 0h-40v303l-306 397h51l275 -357l276 357h50l-306 -397v-303zM416 740q-13 0 -22.5 9.5t-9.5 22.5q0 14 9.5 23t22.5 9t22.5 -9t9.5 -23q0 -13 -9.5 -22.5t-22.5 -9.5zM337 740q-13 0 -22.5 9.5t-9.5 22.5q0 14 9.5 23t22.5 9t22.5 -9t9.5 -23q0 -13 -9.5 -22.5
t-22.5 -9.5z" />
    <glyph glyph-name="Yacute" unicode="&#xdd;" horiz-adv-x="752" 
d="M396 0h-40v303l-306 397h51l275 -357l276 357h50l-306 -397v-303zM390 740l-33 20l83 100l37 -23z" />
    <glyph glyph-name="Thorn" unicode="&#xde;" horiz-adv-x="620" 
d="M90 0h-40v700h40v-145h200q134 0 207 -51t73 -154q0 -102 -73 -153.5t-207 -51.5h-200v-145zM290 185q240 0 240 165t-232 165h-208v-330h200z" />
    <glyph glyph-name="germandbls" unicode="&#xdf;" horiz-adv-x="610" 
d="M262 0q-54 0 -116 11l7 39q58 -10 109 -10q122 0 190 40.5t68 107.5q0 78 -72.5 121t-202.5 43v40q125 0 185.5 36.5t60.5 97.5q0 55 -49.5 94.5t-144.5 39.5q-207 0 -207 -202v-458h-40v452q0 127 64.5 187.5t182.5 60.5q110 0 172 -51t62 -123q0 -55 -35 -94.5
t-96 -59.5q73 -21 116.5 -67.5t43.5 -116.5q0 -88 -83 -138t-215 -50z" />
    <glyph glyph-name="agrave" unicode="&#xe0;" horiz-adv-x="745" 
d="M695 0h-43l-279 649l-279 -649h-44l301 700h43zM380 745l-87 97l37 23l83 -100z" />
    <glyph glyph-name="aacute" unicode="&#xe1;" horiz-adv-x="745" 
d="M695 0h-43l-279 649l-279 -649h-44l301 700h43zM365 747l-32 20l82 100l38 -23z" />
    <glyph glyph-name="acircumflex" unicode="&#xe2;" horiz-adv-x="745" 
d="M695 0h-43l-279 649l-279 -649h-44l301 700h43zM424 747l-51 57l-52 -57l-39 23l91 97l90 -97z" />
    <glyph glyph-name="atilde" unicode="&#xe3;" horiz-adv-x="745" 
d="M695 0h-43l-279 649l-279 -649h-44l301 700h43zM421 742q-19 1 -34 12t-28 23q-30 25 -39 25q-3 0 -5 -1q-11 -5 -25 -37l-37 15q25 63 68 63q19 0 33 -9.5t26 -20.5l5 -5q27 -25 38 -25q13 0 32 42l37 -16q-27 -66 -71 -66z" />
    <glyph glyph-name="adieresis" unicode="&#xe4;" horiz-adv-x="745" 
d="M695 0h-43l-279 649l-279 -649h-44l301 700h43zM324 746q-13 0 -22.5 9.5t-9.5 22.5t9.5 22.5t22.5 9.5t22.5 -9.5t9.5 -22.5t-9.5 -22.5t-22.5 -9.5zM421 746q-13 0 -22.5 9.5t-9.5 22.5t9.5 22.5t22.5 9.5q14 0 23 -9.5t9 -22.5t-9 -22.5t-23 -9.5z" />
    <glyph glyph-name="aring" unicode="&#xe5;" horiz-adv-x="745" 
d="M695 0h-43l-279 649l-279 -649h-44l301 700h43zM373 739q-34 0 -57.5 23.5t-23.5 56.5t23.5 56.5t57.5 23.5q33 0 56.5 -23.5t23.5 -56.5t-23.5 -56.5t-56.5 -23.5zM373 769q20 0 35 14.5t15 35.5t-15 35.5t-35 14.5q-21 0 -35.5 -14.5t-14.5 -35.5t14.5 -35.5
t35.5 -14.5z" />
    <glyph glyph-name="ae" unicode="&#xe6;" horiz-adv-x="1007" 
d="M957 0h-510v280h-225l-128 -280h-44l321 700h576v-40h-460v-290h420v-40h-420v-290h470v-40zM447 320v340h-50l-156 -340h206z" />
    <glyph glyph-name="ccedilla" unicode="&#xe7;" horiz-adv-x="640" 
d="M369 -149q-31 0 -57 22l29 32q12 -11 28 -11q11 0 15.5 6.5t4.5 13.5q0 11 -4.5 19t-20 25.5t-22.5 41.5q-144 11 -218 112.5t-74 237.5q0 92 35 171.5t104 129t171 49.5q74 0 132 -27.5t98 -76.5l-31 -25q-72 89 -199 89q-84 0 -144.5 -40.5t-93 -110.5t-32.5 -159
t32.5 -159t93 -110.5t144.5 -40.5q127 0 199 89l31 -25q-73 -90 -202 -103q3 -5 10 -13q11 -12 22.5 -30.5t11.5 -43.5q0 -23 -17 -43t-46 -20z" />
    <glyph glyph-name="egrave" unicode="&#xe8;" horiz-adv-x="610" 
d="M550 660h-478v40h478v-40zM490 330h-418v40h418v-40zM560 0h-488v40h488v-40zM324 745l-88 97l38 23l82 -100z" />
    <glyph glyph-name="eacute" unicode="&#xe9;" horiz-adv-x="610" 
d="M550 660h-478v40h478v-40zM490 330h-418v40h418v-40zM560 0h-488v40h488v-40zM308 747l-32 20l82 100l38 -23z" />
    <glyph glyph-name="ecircumflex" unicode="&#xea;" horiz-adv-x="610" 
d="M550 660h-478v40h478v-40zM490 330h-418v40h418v-40zM560 0h-488v40h488v-40zM367 747l-51 57l-51 -57l-39 23l90 97l90 -97z" />
    <glyph glyph-name="edieresis" unicode="&#xeb;" horiz-adv-x="610" 
d="M550 660h-478v40h478v-40zM490 330h-418v40h418v-40zM560 0h-488v40h488v-40zM267 746q-13 0 -22.5 9.5t-9.5 22.5t9.5 22.5t22.5 9.5q14 0 23 -9.5t9 -22.5t-9 -22.5t-23 -9.5zM365 746q-13 0 -22.5 9.5t-9.5 22.5t9.5 22.5t22.5 9.5q14 0 23 -9.5t9 -22.5t-9 -22.5
t-23 -9.5z" />
    <glyph glyph-name="igrave" unicode="&#xec;" horiz-adv-x="220" 
d="M157 0h-40v700h40v-700zM138 740l-88 97l38 23l82 -100z" />
    <glyph glyph-name="iacute" unicode="&#xed;" horiz-adv-x="220" 
d="M100 0h-40v700h40v-700zM82 740l-32 20l82 100l38 -23z" />
    <glyph glyph-name="icircumflex" unicode="&#xee;" horiz-adv-x="280" 
d="M160 0h-40v700h40v-700zM191 740l-51 57l-51 -57l-39 23l90 97l90 -97z" />
    <glyph glyph-name="idieresis" unicode="&#xef;" horiz-adv-x="244" 
d="M141 0h-40v700h40v-700zM162 740q-13 0 -22.5 8.5t-10.5 22.5q0 13 8.5 22.5t22.5 10.5q13 0 22.5 -8.5t10.5 -22.5q0 -13 -8.5 -22.5t-22.5 -10.5zM82 740q-13 0 -22.5 9.5t-9.5 22.5q0 14 9.5 23t22.5 9q14 0 23 -9t9 -23q0 -13 -9 -22.5t-23 -9.5z" />
    <glyph glyph-name="eth" unicode="&#xf0;" horiz-adv-x="800" 
d="M440 0h-270v330h-120v40h120v330h270q103 0 171.5 -49.5t103.5 -129t35 -171.5q0 -91 -35 -171t-103.5 -129.5t-171.5 -49.5zM440 40q85 0 145 40.5t92.5 110.5t32.5 159t-32.5 159t-92.5 110.5t-145 40.5h-230v-290h280v-40h-280v-290h230z" />
    <glyph glyph-name="ntilde" unicode="&#xf1;" horiz-adv-x="660" 
d="M610 0h-45l-475 640v-640h-40v700h45l475 -640v640h40v-700zM379 742q-19 1 -32.5 10t-25.5 20l-5 5q-30 25 -38 25l-4 -1q-10 -2 -27 -37l-36 15q13 32 29 48q19 15 38 15t33 -9.5t25 -20.5q34 -30 44 -30l5 1q12 4 28 41l37 -16q-28 -66 -71 -66z" />
    <glyph glyph-name="ograve" unicode="&#xf2;" horiz-adv-x="720" 
d="M360 0q-102 0 -171 49t-104 129t-35 172t35 171.5t104 129t171 49.5q103 0 171.5 -49.5t103.5 -129t35 -171.5q0 -91 -35 -171t-103.5 -129.5t-171.5 -49.5zM360 40q85 0 145 40.5t92.5 110.5t32.5 159t-32.5 159t-92.5 110.5t-145 40.5q-84 0 -144.5 -40.5t-93 -110.5
t-32.5 -159t32.5 -159t93 -110.5t144.5 -40.5zM353 740l-88 97l38 23l82 -100z" />
    <glyph glyph-name="oacute" unicode="&#xf3;" horiz-adv-x="720" 
d="M360 0q-102 0 -171 49t-104 129t-35 172t35 171.5t104 129t171 49.5q103 0 171.5 -49.5t103.5 -129t35 -171.5q0 -91 -35 -171t-103.5 -129.5t-171.5 -49.5zM360 40q85 0 145 40.5t92.5 110.5t32.5 159t-32.5 159t-92.5 110.5t-145 40.5q-84 0 -144.5 -40.5t-93 -110.5
t-32.5 -159t32.5 -159t93 -110.5t144.5 -40.5zM367 740l-33 20l83 100l37 -23z" />
    <glyph glyph-name="ocircumflex" unicode="&#xf4;" horiz-adv-x="720" 
d="M360 0q-102 0 -171 49t-104 129t-35 172t35 171.5t104 129t171 49.5q103 0 171.5 -49.5t103.5 -129t35 -171.5q0 -91 -35 -171t-103.5 -129.5t-171.5 -49.5zM360 40q85 0 145 40.5t92.5 110.5t32.5 159t-32.5 159t-92.5 110.5t-145 40.5q-84 0 -144.5 -40.5t-93 -110.5
t-32.5 -159t32.5 -159t93 -110.5t144.5 -40.5zM411 740l-51 57l-51 -57l-39 23l90 97l90 -97z" />
    <glyph glyph-name="otilde" unicode="&#xf5;" horiz-adv-x="720" 
d="M360 0q-102 0 -171 49t-104 129t-35 172t35 171.5t104 129t171 49.5q103 0 171.5 -49.5t103.5 -129t35 -171.5q0 -91 -35 -171t-103.5 -129.5t-171.5 -49.5zM360 40q85 0 145 40.5t92.5 110.5t32.5 159t-32.5 159t-92.5 110.5t-145 40.5q-84 0 -144.5 -40.5t-93 -110.5
t-32.5 -159t32.5 -159t93 -110.5t144.5 -40.5zM416 740h-6q-16 0 -29.5 7t-25.5 15q-36 24 -48 24h-1q-13 -4 -24 -43l-38 11q17 66 58 71l4 1q19 0 34.5 -8t27.5 -17q29 -21 43 -21l5 1q10 6 22 45l38 -11q-17 -68 -60 -75z" />
    <glyph glyph-name="odieresis" unicode="&#xf6;" horiz-adv-x="720" 
d="M360 0q-102 0 -171 49t-104 129t-35 172t35 171.5t104 129t171 49.5q103 0 171.5 -49.5t103.5 -129t35 -171.5q0 -91 -35 -171t-103.5 -129.5t-171.5 -49.5zM360 40q85 0 145 40.5t92.5 110.5t32.5 159t-32.5 159t-92.5 110.5t-145 40.5q-84 0 -144.5 -40.5t-93 -110.5
t-32.5 -159t32.5 -159t93 -110.5t144.5 -40.5zM399 740q-13 0 -22.5 9.5t-9.5 22.5q0 14 9.5 23t22.5 9q14 0 23 -9t9 -23q0 -13 -9 -22.5t-23 -9.5zM321 740q-13 0 -22.5 9.5t-9.5 22.5q0 14 9.5 23t22.5 9t22.5 -9t9.5 -23q0 -13 -9.5 -22.5t-22.5 -9.5z" />
    <glyph glyph-name="divide" unicode="&#xf7;" horiz-adv-x="541" 
d="M272 496q-16 0 -28 11.5t-12 28.5t12 28.5t28 11.5q17 0 28.5 -11.5t11.5 -28.5t-11.5 -28.5t-28.5 -11.5zM492 340h-440v40h440v-40zM272 156q-16 0 -28 11.5t-12 28.5t12 28.5t28 11.5q17 0 28.5 -11.5t11.5 -28.5t-11.5 -28.5t-28.5 -11.5z" />
    <glyph glyph-name="oslash" unicode="&#xf8;" horiz-adv-x="720" 
d="M360 0q-114 0 -190 64l-47 -64l-32 24l50 67q-45 49 -68 116.5t-23 142.5q0 92 35 171.5t104 129t171 49.5q114 0 190 -64l47 64l32 -24l-50 -67q45 -49 68 -116.5t23 -142.5q0 -91 -35 -171t-103.5 -129.5t-171.5 -49.5zM165 124l361 480q-64 56 -166 56
q-84 0 -144.5 -40.5t-93 -110.5t-32.5 -159q0 -136 75 -226zM360 40q85 0 145 40.5t92.5 110.5t32.5 159q0 137 -75 226l-361 -480q64 -56 166 -56z" />
    <glyph glyph-name="ugrave" unicode="&#xf9;" horiz-adv-x="660" 
d="M330 0q-99 0 -161 49t-90.5 129t-28.5 172v350h40v-350q0 -88 25 -158t78.5 -111t136.5 -41q84 0 137 41t78 111t25 158v350h40v-350q0 -92 -28.5 -172t-90 -129t-161.5 -49zM326 740l-87 97l37 23l83 -100z" />
    <glyph glyph-name="uacute" unicode="&#xfa;" horiz-adv-x="660" 
d="M330 0q-99 0 -161 49t-90.5 129t-28.5 172v350h40v-350q0 -88 25 -158t78.5 -111t136.5 -41q84 0 137 41t78 111t25 158v350h40v-350q0 -92 -28.5 -172t-90 -129t-161.5 -49zM336 740l-32 20l82 100l38 -23z" />
    <glyph glyph-name="ucircumflex" unicode="&#xfb;" horiz-adv-x="660" 
d="M330 0q-99 0 -161 49t-90.5 129t-28.5 172v350h40v-350q0 -88 25 -158t78.5 -111t136.5 -41q84 0 137 41t78 111t25 158v350h40v-350q0 -92 -28.5 -172t-90 -129t-161.5 -49zM381 740l-51 57l-51 -57l-39 23l90 97l90 -97z" />
    <glyph glyph-name="udieresis" unicode="&#xfc;" horiz-adv-x="660" 
d="M330 0q-99 0 -161 49t-90.5 129t-28.5 172v350h40v-350q0 -88 25 -158t78.5 -111t136.5 -41q84 0 137 41t78 111t25 158v350h40v-350q0 -92 -28.5 -172t-90 -129t-161.5 -49zM369 740q-13 0 -22.5 9.5t-9.5 22.5q0 14 9.5 23t22.5 9q14 0 23 -9t9 -23q0 -13 -9 -22.5
t-23 -9.5zM291 740q-13 0 -22.5 9.5t-9.5 22.5q0 14 9.5 23t22.5 9t22.5 -9t9.5 -23q0 -13 -9.5 -22.5t-22.5 -9.5z" />
    <glyph glyph-name="yacute" unicode="&#xfd;" horiz-adv-x="752" 
d="M396 0h-40v303l-306 397h51l275 -357l276 357h50l-306 -397v-303zM390 740l-33 20l83 100l37 -23z" />
    <glyph glyph-name="thorn" unicode="&#xfe;" horiz-adv-x="620" 
d="M90 0h-40v700h40v-145h200q134 0 207 -51t73 -154q0 -102 -73 -153.5t-207 -51.5h-200v-145zM290 185q240 0 240 165t-232 165h-208v-330h200z" />
    <glyph glyph-name="ydieresis" unicode="&#xff;" horiz-adv-x="752" 
d="M396 0h-40v303l-306 397h51l275 -357l276 357h50l-306 -397v-303zM416 740q-13 0 -22.5 9.5t-9.5 22.5q0 14 9.5 23t22.5 9t22.5 -9t9.5 -23q0 -13 -9.5 -22.5t-22.5 -9.5zM337 740q-13 0 -22.5 9.5t-9.5 22.5q0 14 9.5 23t22.5 9t22.5 -9t9.5 -23q0 -13 -9.5 -22.5
t-22.5 -9.5z" />
    <glyph glyph-name="circumflex" unicode="&#x2c6;" horiz-adv-x="280" 
d="M196 747l-51 57l-51 -57l-39 23l90 97l90 -97z" />
    <glyph glyph-name="tilde" unicode="&#x2dc;" horiz-adv-x="339" 
d="M225 742q-19 1 -34 12t-28 23q-30 25 -39 25q-3 0 -5 -1q-11 -5 -25 -37l-37 15q25 63 68 63q19 0 33 -9.5t26 -20.5l5 -5q27 -25 38 -25q13 0 32 42l37 -16q-27 -66 -71 -66z" />
    <glyph glyph-name="endash" unicode="&#x2013;" 
 />
    <glyph glyph-name="emdash" unicode="&#x2014;" 
 />
    <glyph glyph-name="quoteleft" unicode="&#x2018;" horiz-adv-x="160" 
d="M85 598q-16 0 -28 12t-12 28q0 23 13 46l30 74h37l-32 -81q14 -3 23 -13.5t9 -25.5q0 -16 -11.5 -28t-28.5 -12z" />
    <glyph glyph-name="quoteright" unicode="&#x2019;" horiz-adv-x="151" 
d="M77 606h-37l32 81q-14 3 -23 14t-9 25q0 17 12 28.5t28 11.5q17 0 28.5 -11.5t11.5 -28.5q0 -21 -13 -46z" />
    <glyph glyph-name="quotesinglbase" unicode="&#x201a;" horiz-adv-x="153" 
d="M77 -76h-37l32 81q-14 3 -23 14t-9 25q0 17 12 28.5t28 11.5q17 0 28.5 -11.5t11.5 -28.5q0 -21 -13 -46z" />
    <glyph glyph-name="quotedblleft" unicode="&#x201c;" horiz-adv-x="249" 
d="M76 605q-16 0 -28 12t-12 28q0 23 13 46l30 74h37l-32 -81q14 -3 23 -13.5t9 -25.5q0 -16 -11.5 -28t-28.5 -12zM168 605q-16 0 -28 12t-12 28q0 23 13 46l30 74h37l-31 -81q14 -3 22.5 -13.5t8.5 -25.5q0 -16 -11.5 -28t-28.5 -12z" />
    <glyph glyph-name="quotedblright" unicode="&#x201d;" horiz-adv-x="242" 
d="M162 619h-36l31 81q-14 3 -23 14t-9 25q0 17 12 28.5t28 11.5q17 0 28.5 -11.5t11.5 -28.5q0 -21 -12 -46zM70 619h-37l32 81q-14 3 -23 14t-9 25q0 17 12 28.5t28 11.5q17 0 28.5 -11.5t11.5 -28.5q0 -21 -13 -46z" />
    <glyph glyph-name="quotedblbase" unicode="&#x201e;" horiz-adv-x="249" 
d="M169 -71h-36l31 81q-14 3 -23 14t-9 25q0 17 12 28.5t28 11.5q17 0 28.5 -11.5t11.5 -28.5q0 -21 -12 -46zM77 -71h-37l32 81q-14 3 -23 14t-9 25q0 17 12 28.5t28 11.5q17 0 28.5 -11.5t11.5 -28.5q0 -21 -13 -46z" />
    <glyph glyph-name="dagger" unicode="&#x2020;" 
 />
    <glyph glyph-name="daggerdbl" unicode="&#x2021;" 
 />
    <glyph glyph-name="bullet" unicode="&#x2022;" horiz-adv-x="500" 
d="M189 270q-33 0 -56.5 23.5t-23.5 56.5t23.5 56.5t56.5 23.5t56.5 -23.5t23.5 -56.5t-23.5 -56.5t-56.5 -23.5z" />
    <glyph glyph-name="ellipsis" unicode="&#x2026;" horiz-adv-x="1000" 
d="M95 2q-16 0 -28 12t-12 28q0 17 12 28.5t28 11.5q17 0 28.5 -11.5t11.5 -28.5q0 -16 -11.5 -28t-28.5 -12zM428 2q-16 0 -28 12t-12 28q0 17 12 28.5t28 11.5q17 0 28.5 -11.5t11.5 -28.5q0 -16 -11.5 -28t-28.5 -12zM761 2q-16 0 -28 12t-12 28q0 17 12 28.5t28 11.5
q17 0 28.5 -11.5t11.5 -28.5q0 -16 -11.5 -28t-28.5 -12z" />
    <glyph glyph-name="guilsinglleft" unicode="&#x2039;" 
 />
    <glyph glyph-name="guilsinglright" unicode="&#x203a;" 
 />
    <glyph glyph-name="Euro" unicode="&#x20ac;" horiz-adv-x="764" 
d="M517 2q-115 0 -201.5 72.5t-111.5 202.5h-161v40h156l-1 35q0 24 2 45h-157v40h163q26 126 112.5 195.5t198.5 69.5q120 0 210 -61l-21 -34q-51 31 -92 43t-97 12q-98 0 -172 -57.5t-99 -167.5h217v-40h-223q-2 -21 -2 -45l1 -35h224v-40h-218q22 -114 97 -174.5
t175 -60.5q122 0 187 54l25 -31q-45 -35 -96.5 -49t-115.5 -14z" />
    <glyph glyph-name="trademark" unicode="&#x2122;" 
 />
    <glyph glyph-name="OE" unicode="&#x152;" horiz-adv-x="1140" 
d="M1090 0h-487v162q-35 -72 -100 -117t-157 -45q-98 0 -164 49.5t-99 129.5t-33 171t33 171t99 129.5t164 49.5q71 0 127 -28q86 -43 130 -134v162h477v-40h-437v-290h399v-40h-399v-290h447v-40zM346 40q121 0 189 88t68 222t-68 222t-189 88q-120 0 -188 -88t-68 -222
t68 -222t188 -88z" />
  </font>
</defs>
</svg>
